<?xml version="1.0" encoding="UTF-8"?>
<svg xmlns="http://www.w3.org/2000/svg" xmlns:xlink="http://www.w3.org/1999/xlink" width="305mm" height="305mm" viewBox="0 0 305 305" version="1.1">
<g id="surface1">
<path style="fill-rule:nonzero;fill:rgb(80%,80%,80%);fill-opacity:1;stroke-width:0.5;stroke-linecap:butt;stroke-linejoin:miter;stroke:rgb(0%,0%,0%);stroke-opacity:1;stroke-miterlimit:10;" d="M 0 2 C 0 0.894531 0.894531 0 2 0 L 303 0 C 304.105469 0 305 0.894531 305 2 L 305 303 C 305 304.105469 304.105469 305 303 305 L 2 305 C 0.894531 305 0 304.105469 0 303 Z M 305 2 C 305 0.894531 305.894531 0 307 0 L 608 0 C 609.105469 0 610 0.894531 610 2 L 610 303 C 610 304.105469 609.105469 305 608 305 L 307 305 C 305.894531 305 305 304.105469 305 303 Z M 5 7 L 5 48 C 5 49.105469 5.894531 50 7 50 L 48 50 C 49.105469 50 50 49.105469 50 48 L 50 7 C 50 5.894531 49.105469 5 48 5 L 7 5 C 5.894531 5 5 5.894531 5 7 Z M 55 7 L 55 48 C 55 49.105469 55.894531 50 57 50 L 98 50 C 99.105469 50 100 49.105469 100 48 L 100 7 C 100 5.894531 99.105469 5 98 5 L 57 5 C 55.894531 5 55 5.894531 55 7 Z M 105 7 L 105 48 C 105 49.105469 105.894531 50 107 50 L 148 50 C 149.105469 50 150 49.105469 150 48 L 150 7 C 150 5.894531 149.105469 5 148 5 L 107 5 C 105.894531 5 105 5.894531 105 7 Z M 155 7 L 155 48 C 155 49.105469 155.894531 50 157 50 L 198 50 C 199.105469 50 200 49.105469 200 48 L 200 7 C 200 5.894531 199.105469 5 198 5 L 157 5 C 155.894531 5 155 5.894531 155 7 Z M 205 7 L 205 48 C 205 49.105469 205.894531 50 207 50 L 248 50 C 249.105469 50 250 49.105469 250 48 L 250 7 C 250 5.894531 249.105469 5 248 5 L 207 5 C 205.894531 5 205 5.894531 205 7 Z M 255 7 L 255 48 C 255 49.105469 255.894531 50 257 50 L 298 50 C 299.105469 50 300 49.105469 300 48 L 300 7 C 300 5.894531 299.105469 5 298 5 L 257 5 C 255.894531 5 255 5.894531 255 7 Z M 5 57 L 5 98 C 5 99.105469 5.894531 100 7 100 L 48 100 C 49.105469 100 50 99.105469 50 98 L 50 57 C 50 55.894531 49.105469 55 48 55 L 7 55 C 5.894531 55 5 55.894531 5 57 Z M 55 57 L 55 98 C 55 99.105469 55.894531 100 57 100 L 98 100 C 99.105469 100 100 99.105469 100 98 L 100 57 C 100 55.894531 99.105469 55 98 55 L 57 55 C 55.894531 55 55 55.894531 55 57 Z M 105 57 L 105 98 C 105 99.105469 105.894531 100 107 100 L 148 100 C 149.105469 100 150 99.105469 150 98 L 150 57 C 150 55.894531 149.105469 55 148 55 L 107 55 C 105.894531 55 105 55.894531 105 57 Z M 155 57 L 155 98 C 155 99.105469 155.894531 100 157 100 L 198 100 C 199.105469 100 200 99.105469 200 98 L 200 57 C 200 55.894531 199.105469 55 198 55 L 157 55 C 155.894531 55 155 55.894531 155 57 Z M 205 57 L 205 98 C 205 99.105469 205.894531 100 207 100 L 248 100 C 249.105469 100 250 99.105469 250 98 L 250 57 C 250 55.894531 249.105469 55 248 55 L 207 55 C 205.894531 55 205 55.894531 205 57 Z M 255 57 L 255 98 C 255 99.105469 255.894531 100 257 100 L 298 100 C 299.105469 100 300 99.105469 300 98 L 300 57 C 300 55.894531 299.105469 55 298 55 L 257 55 C 255.894531 55 255 55.894531 255 57 Z M 5 107 L 5 148 C 5 149.105469 5.894531 150 7 150 L 48 150 C 49.105469 150 50 149.105469 50 148 L 50 107 C 50 105.894531 49.105469 105 48 105 L 7 105 C 5.894531 105 5 105.894531 5 107 Z M 55 107 L 55 148 C 55 149.105469 55.894531 150 57 150 L 98 150 C 99.105469 150 100 149.105469 100 148 L 100 107 C 100 105.894531 99.105469 105 98 105 L 57 105 C 55.894531 105 55 105.894531 55 107 Z M 105 107 L 105 148 C 105 149.105469 105.894531 150 107 150 L 148 150 C 149.105469 150 150 149.105469 150 148 L 150 107 C 150 105.894531 149.105469 105 148 105 L 107 105 C 105.894531 105 105 105.894531 105 107 Z M 155 107 L 155 148 C 155 149.105469 155.894531 150 157 150 L 198 150 C 199.105469 150 200 149.105469 200 148 L 200 107 C 200 105.894531 199.105469 105 198 105 L 157 105 C 155.894531 105 155 105.894531 155 107 Z M 205 107 L 205 148 C 205 149.105469 205.894531 150 207 150 L 248 150 C 249.105469 150 250 149.105469 250 148 L 250 107 C 250 105.894531 249.105469 105 248 105 L 207 105 C 205.894531 105 205 105.894531 205 107 Z M 255 107 L 255 148 C 255 149.105469 255.894531 150 257 150 L 298 150 C 299.105469 150 300 149.105469 300 148 L 300 107 C 300 105.894531 299.105469 105 298 105 L 257 105 C 255.894531 105 255 105.894531 255 107 Z M 5 157 L 5 198 C 5 199.105469 5.894531 200 7 200 L 48 200 C 49.105469 200 50 199.105469 50 198 L 50 157 C 50 155.894531 49.105469 155 48 155 L 7 155 C 5.894531 155 5 155.894531 5 157 Z M 55 157 L 55 198 C 55 199.105469 55.894531 200 57 200 L 98 200 C 99.105469 200 100 199.105469 100 198 L 100 157 C 100 155.894531 99.105469 155 98 155 L 57 155 C 55.894531 155 55 155.894531 55 157 Z M 105 157 L 105 198 C 105 199.105469 105.894531 200 107 200 L 148 200 C 149.105469 200 150 199.105469 150 198 L 150 157 C 150 155.894531 149.105469 155 148 155 L 107 155 C 105.894531 155 105 155.894531 105 157 Z M 155 157 L 155 198 C 155 199.105469 155.894531 200 157 200 L 198 200 C 199.105469 200 200 199.105469 200 198 L 200 157 C 200 155.894531 199.105469 155 198 155 L 157 155 C 155.894531 155 155 155.894531 155 157 Z M 205 157 L 205 198 C 205 199.105469 205.894531 200 207 200 L 248 200 C 249.105469 200 250 199.105469 250 198 L 250 157 C 250 155.894531 249.105469 155 248 155 L 207 155 C 205.894531 155 205 155.894531 205 157 Z M 255 157 L 255 198 C 255 199.105469 255.894531 200 257 200 L 298 200 C 299.105469 200 300 199.105469 300 198 L 300 157 C 300 155.894531 299.105469 155 298 155 L 257 155 C 255.894531 155 255 155.894531 255 157 Z M 5 207 L 5 248 C 5 249.105469 5.894531 250 7 250 L 48 250 C 49.105469 250 50 249.105469 50 248 L 50 207 C 50 205.894531 49.105469 205 48 205 L 7 205 C 5.894531 205 5 205.894531 5 207 Z M 55 207 L 55 248 C 55 249.105469 55.894531 250 57 250 L 98 250 C 99.105469 250 100 249.105469 100 248 L 100 207 C 100 205.894531 99.105469 205 98 205 L 57 205 C 55.894531 205 55 205.894531 55 207 Z M 105 207 L 105 248 C 105 249.105469 105.894531 250 107 250 L 148 250 C 149.105469 250 150 249.105469 150 248 L 150 207 C 150 205.894531 149.105469 205 148 205 L 107 205 C 105.894531 205 105 205.894531 105 207 Z M 155 207 L 155 248 C 155 249.105469 155.894531 250 157 250 L 198 250 C 199.105469 250 200 249.105469 200 248 L 200 207 C 200 205.894531 199.105469 205 198 205 L 157 205 C 155.894531 205 155 205.894531 155 207 Z M 205 207 L 205 248 C 205 249.105469 205.894531 250 207 250 L 248 250 C 249.105469 250 250 249.105469 250 248 L 250 207 C 250 205.894531 249.105469 205 248 205 L 207 205 C 205.894531 205 205 205.894531 205 207 Z M 255 207 L 255 248 C 255 249.105469 255.894531 250 257 250 L 298 250 C 299.105469 250 300 249.105469 300 248 L 300 207 C 300 205.894531 299.105469 205 298 205 L 257 205 C 255.894531 205 255 205.894531 255 207 Z M 5 257 L 5 298 C 5 299.105469 5.894531 300 7 300 L 48 300 C 49.105469 300 50 299.105469 50 298 L 50 257 C 50 255.894531 49.105469 255 48 255 L 7 255 C 5.894531 255 5 255.894531 5 257 Z M 55 257 L 55 298 C 55 299.105469 55.894531 300 57 300 L 98 300 C 99.105469 300 100 299.105469 100 298 L 100 257 C 100 255.894531 99.105469 255 98 255 L 57 255 C 55.894531 255 55 255.894531 55 257 Z M 105 257 L 105 298 C 105 299.105469 105.894531 300 107 300 L 148 300 C 149.105469 300 150 299.105469 150 298 L 150 257 C 150 255.894531 149.105469 255 148 255 L 107 255 C 105.894531 255 105 255.894531 105 257 Z M 155 257 L 155 298 C 155 299.105469 155.894531 300 157 300 L 198 300 C 199.105469 300 200 299.105469 200 298 L 200 257 C 200 255.894531 199.105469 255 198 255 L 157 255 C 155.894531 255 155 255.894531 155 257 Z M 205 257 L 205 298 C 205 299.105469 205.894531 300 207 300 L 248 300 C 249.105469 300 250 299.105469 250 298 L 250 257 C 250 255.894531 249.105469 255 248 255 L 207 255 C 205.894531 255 205 255.894531 205 257 Z M 255 257 L 255 298 C 255 299.105469 255.894531 300 257 300 L 298 300 C 299.105469 300 300 299.105469 300 298 L 300 257 C 300 255.894531 299.105469 255 298 255 L 257 255 C 255.894531 255 255 255.894531 255 257 Z M 5.5 15.5 L 5.5 39.5 C 5.5 45.023438 9.976562 49.5 15.5 49.5 L 39.5 49.5 C 45.023438 49.5 49.5 45.023438 49.5 39.5 L 49.5 15.5 C 49.5 9.976562 45.023438 5.5 39.5 5.5 L 15.5 5.5 C 9.976562 5.5 5.5 9.976562 5.5 15.5 Z M 55.5 15.5 L 55.5 39.5 C 55.5 45.023438 59.976562 49.5 65.5 49.5 L 89.5 49.5 C 95.023438 49.5 99.5 45.023438 99.5 39.5 L 99.5 15.5 C 99.5 9.976562 95.023438 5.5 89.5 5.5 L 65.5 5.5 C 59.976562 5.5 55.5 9.976562 55.5 15.5 Z M 105.5 15.5 L 105.5 39.5 C 105.5 45.023438 109.976562 49.5 115.5 49.5 L 139.5 49.5 C 145.023438 49.5 149.5 45.023438 149.5 39.5 L 149.5 15.5 C 149.5 9.976562 145.023438 5.5 139.5 5.5 L 115.5 5.5 C 109.976562 5.5 105.5 9.976562 105.5 15.5 Z M 155.5 15.5 L 155.5 39.5 C 155.5 45.023438 159.976562 49.5 165.5 49.5 L 189.5 49.5 C 195.023438 49.5 199.5 45.023438 199.5 39.5 L 199.5 15.5 C 199.5 9.976562 195.023438 5.5 189.5 5.5 L 165.5 5.5 C 159.976562 5.5 155.5 9.976562 155.5 15.5 Z M 205.5 15.5 L 205.5 39.5 C 205.5 45.023438 209.976562 49.5 215.5 49.5 L 239.5 49.5 C 245.023438 49.5 249.5 45.023438 249.5 39.5 L 249.5 15.5 C 249.5 9.976562 245.023438 5.5 239.5 5.5 L 215.5 5.5 C 209.976562 5.5 205.5 9.976562 205.5 15.5 Z M 255.5 15.5 L 255.5 39.5 C 255.5 45.023438 259.976562 49.5 265.5 49.5 L 289.5 49.5 C 295.023438 49.5 299.5 45.023438 299.5 39.5 L 299.5 15.5 C 299.5 9.976562 295.023438 5.5 289.5 5.5 L 265.5 5.5 C 259.976562 5.5 255.5 9.976562 255.5 15.5 Z M 5.5 65.5 L 5.5 89.5 C 5.5 95.023438 9.976562 99.5 15.5 99.5 L 39.5 99.5 C 45.023438 99.5 49.5 95.023438 49.5 89.5 L 49.5 65.5 C 49.5 59.976562 45.023438 55.5 39.5 55.5 L 15.5 55.5 C 9.976562 55.5 5.5 59.976562 5.5 65.5 Z M 55.5 65.5 L 55.5 89.5 C 55.5 95.023438 59.976562 99.5 65.5 99.5 L 89.5 99.5 C 95.023438 99.5 99.5 95.023438 99.5 89.5 L 99.5 65.5 C 99.5 59.976562 95.023438 55.5 89.5 55.5 L 65.5 55.5 C 59.976562 55.5 55.5 59.976562 55.5 65.5 Z M 105.5 65.5 L 105.5 89.5 C 105.5 95.023438 109.976562 99.5 115.5 99.5 L 139.5 99.5 C 145.023438 99.5 149.5 95.023438 149.5 89.5 L 149.5 65.5 C 149.5 59.976562 145.023438 55.5 139.5 55.5 L 115.5 55.5 C 109.976562 55.5 105.5 59.976562 105.5 65.5 Z M 155.5 65.5 L 155.5 89.5 C 155.5 95.023438 159.976562 99.5 165.5 99.5 L 189.5 99.5 C 195.023438 99.5 199.5 95.023438 199.5 89.5 L 199.5 65.5 C 199.5 59.976562 195.023438 55.5 189.5 55.5 L 165.5 55.5 C 159.976562 55.5 155.5 59.976562 155.5 65.5 Z M 205.5 65.5 L 205.5 89.5 C 205.5 95.023438 209.976562 99.5 215.5 99.5 L 239.5 99.5 C 245.023438 99.5 249.5 95.023438 249.5 89.5 L 249.5 65.5 C 249.5 59.976562 245.023438 55.5 239.5 55.5 L 215.5 55.5 C 209.976562 55.5 205.5 59.976562 205.5 65.5 Z M 255.5 65.5 L 255.5 89.5 C 255.5 95.023438 259.976562 99.5 265.5 99.5 L 289.5 99.5 C 295.023438 99.5 299.5 95.023438 299.5 89.5 L 299.5 65.5 C 299.5 59.976562 295.023438 55.5 289.5 55.5 L 265.5 55.5 C 259.976562 55.5 255.5 59.976562 255.5 65.5 Z M 5.5 115.5 L 5.5 139.5 C 5.5 145.023438 9.976562 149.5 15.5 149.5 L 39.5 149.5 C 45.023438 149.5 49.5 145.023438 49.5 139.5 L 49.5 115.5 C 49.5 109.976562 45.023438 105.5 39.5 105.5 L 15.5 105.5 C 9.976562 105.5 5.5 109.976562 5.5 115.5 Z M 55.5 115.5 L 55.5 139.5 C 55.5 145.023438 59.976562 149.5 65.5 149.5 L 89.5 149.5 C 95.023438 149.5 99.5 145.023438 99.5 139.5 L 99.5 115.5 C 99.5 109.976562 95.023438 105.5 89.5 105.5 L 65.5 105.5 C 59.976562 105.5 55.5 109.976562 55.5 115.5 Z M 105.5 115.5 L 105.5 139.5 C 105.5 145.023438 109.976562 149.5 115.5 149.5 L 139.5 149.5 C 145.023438 149.5 149.5 145.023438 149.5 139.5 L 149.5 115.5 C 149.5 109.976562 145.023438 105.5 139.5 105.5 L 115.5 105.5 C 109.976562 105.5 105.5 109.976562 105.5 115.5 Z M 155.5 115.5 L 155.5 139.5 C 155.5 145.023438 159.976562 149.5 165.5 149.5 L 189.5 149.5 C 195.023438 149.5 199.5 145.023438 199.5 139.5 L 199.5 115.5 C 199.5 109.976562 195.023438 105.5 189.5 105.5 L 165.5 105.5 C 159.976562 105.5 155.5 109.976562 155.5 115.5 Z M 205.5 115.5 L 205.5 139.5 C 205.5 145.023438 209.976562 149.5 215.5 149.5 L 239.5 149.5 C 245.023438 149.5 249.5 145.023438 249.5 139.5 L 249.5 115.5 C 249.5 109.976562 245.023438 105.5 239.5 105.5 L 215.5 105.5 C 209.976562 105.5 205.5 109.976562 205.5 115.5 Z M 255.5 115.5 L 255.5 139.5 C 255.5 145.023438 259.976562 149.5 265.5 149.5 L 289.5 149.5 C 295.023438 149.5 299.5 145.023438 299.5 139.5 L 299.5 115.5 C 299.5 109.976562 295.023438 105.5 289.5 105.5 L 265.5 105.5 C 259.976562 105.5 255.5 109.976562 255.5 115.5 Z M 5.5 165.5 L 5.5 189.5 C 5.5 195.023438 9.976562 199.5 15.5 199.5 L 39.5 199.5 C 45.023438 199.5 49.5 195.023438 49.5 189.5 L 49.5 165.5 C 49.5 159.976562 45.023438 155.5 39.5 155.5 L 15.5 155.5 C 9.976562 155.5 5.5 159.976562 5.5 165.5 Z M 55.5 165.5 L 55.5 189.5 C 55.5 195.023438 59.976562 199.5 65.5 199.5 L 89.5 199.5 C 95.023438 199.5 99.5 195.023438 99.5 189.5 L 99.5 165.5 C 99.5 159.976562 95.023438 155.5 89.5 155.5 L 65.5 155.5 C 59.976562 155.5 55.5 159.976562 55.5 165.5 Z M 105.5 165.5 L 105.5 189.5 C 105.5 195.023438 109.976562 199.5 115.5 199.5 L 139.5 199.5 C 145.023438 199.5 149.5 195.023438 149.5 189.5 L 149.5 165.5 C 149.5 159.976562 145.023438 155.5 139.5 155.5 L 115.5 155.5 C 109.976562 155.5 105.5 159.976562 105.5 165.5 Z M 155.5 165.5 L 155.5 189.5 C 155.5 195.023438 159.976562 199.5 165.5 199.5 L 189.5 199.5 C 195.023438 199.5 199.5 195.023438 199.5 189.5 L 199.5 165.5 C 199.5 159.976562 195.023438 155.5 189.5 155.5 L 165.5 155.5 C 159.976562 155.5 155.5 159.976562 155.5 165.5 Z M 205.5 165.5 L 205.5 189.5 C 205.5 195.023438 209.976562 199.5 215.5 199.5 L 239.5 199.5 C 245.023438 199.5 249.5 195.023438 249.5 189.5 L 249.5 165.5 C 249.5 159.976562 245.023438 155.5 239.5 155.5 L 215.5 155.5 C 209.976562 155.5 205.5 159.976562 205.5 165.5 Z M 255.5 165.5 L 255.5 189.5 C 255.5 195.023438 259.976562 199.5 265.5 199.5 L 289.5 199.5 C 295.023438 199.5 299.5 195.023438 299.5 189.5 L 299.5 165.5 C 299.5 159.976562 295.023438 155.5 289.5 155.5 L 265.5 155.5 C 259.976562 155.5 255.5 159.976562 255.5 165.5 Z M 5.5 215.5 L 5.5 239.5 C 5.5 245.023438 9.976562 249.5 15.5 249.5 L 39.5 249.5 C 45.023438 249.5 49.5 245.023438 49.5 239.5 L 49.5 215.5 C 49.5 209.976562 45.023438 205.5 39.5 205.5 L 15.5 205.5 C 9.976562 205.5 5.5 209.976562 5.5 215.5 Z M 55.5 215.5 L 55.5 239.5 C 55.5 245.023438 59.976562 249.5 65.5 249.5 L 89.5 249.5 C 95.023438 249.5 99.5 245.023438 99.5 239.5 L 99.5 215.5 C 99.5 209.976562 95.023438 205.5 89.5 205.5 L 65.5 205.5 C 59.976562 205.5 55.5 209.976562 55.5 215.5 Z M 105.5 215.5 L 105.5 239.5 C 105.5 245.023438 109.976562 249.5 115.5 249.5 L 139.5 249.5 C 145.023438 249.5 149.5 245.023438 149.5 239.5 L 149.5 215.5 C 149.5 209.976562 145.023438 205.5 139.5 205.5 L 115.5 205.5 C 109.976562 205.5 105.5 209.976562 105.5 215.5 Z M 155.5 215.5 L 155.5 239.5 C 155.5 245.023438 159.976562 249.5 165.5 249.5 L 189.5 249.5 C 195.023438 249.5 199.5 245.023438 199.5 239.5 L 199.5 215.5 C 199.5 209.976562 195.023438 205.5 189.5 205.5 L 165.5 205.5 C 159.976562 205.5 155.5 209.976562 155.5 215.5 Z M 205.5 215.5 L 205.5 239.5 C 205.5 245.023438 209.976562 249.5 215.5 249.5 L 239.5 249.5 C 245.023438 249.5 249.5 245.023438 249.5 239.5 L 249.5 215.5 C 249.5 209.976562 245.023438 205.5 239.5 205.5 L 215.5 205.5 C 209.976562 205.5 205.5 209.976562 205.5 215.5 Z M 255.5 215.5 L 255.5 239.5 C 255.5 245.023438 259.976562 249.5 265.5 249.5 L 289.5 249.5 C 295.023438 249.5 299.5 245.023438 299.5 239.5 L 299.5 215.5 C 299.5 209.976562 295.023438 205.5 289.5 205.5 L 265.5 205.5 C 259.976562 205.5 255.5 209.976562 255.5 215.5 Z M 5.5 265.5 L 5.5 289.5 C 5.5 295.023438 9.976562 299.5 15.5 299.5 L 39.5 299.5 C 45.023438 299.5 49.5 295.023438 49.5 289.5 L 49.5 265.5 C 49.5 259.976562 45.023438 255.5 39.5 255.5 L 15.5 255.5 C 9.976562 255.5 5.5 259.976562 5.5 265.5 Z M 55.5 265.5 L 55.5 289.5 C 55.5 295.023438 59.976562 299.5 65.5 299.5 L 89.5 299.5 C 95.023438 299.5 99.5 295.023438 99.5 289.5 L 99.5 265.5 C 99.5 259.976562 95.023438 255.5 89.5 255.5 L 65.5 255.5 C 59.976562 255.5 55.5 259.976562 55.5 265.5 Z M 105.5 265.5 L 105.5 289.5 C 105.5 295.023438 109.976562 299.5 115.5 299.5 L 139.5 299.5 C 145.023438 299.5 149.5 295.023438 149.5 289.5 L 149.5 265.5 C 149.5 259.976562 145.023438 255.5 139.5 255.5 L 115.5 255.5 C 109.976562 255.5 105.5 259.976562 105.5 265.5 Z M 155.5 265.5 L 155.5 289.5 C 155.5 295.023438 159.976562 299.5 165.5 299.5 L 189.5 299.5 C 195.023438 299.5 199.5 295.023438 199.5 289.5 L 199.5 265.5 C 199.5 259.976562 195.023438 255.5 189.5 255.5 L 165.5 255.5 C 159.976562 255.5 155.5 259.976562 155.5 265.5 Z M 205.5 265.5 L 205.5 289.5 C 205.5 295.023438 209.976562 299.5 215.5 299.5 L 239.5 299.5 C 245.023438 299.5 249.5 295.023438 249.5 289.5 L 249.5 265.5 C 249.5 259.976562 245.023438 255.5 239.5 255.5 L 215.5 255.5 C 209.976562 255.5 205.5 259.976562 205.5 265.5 Z M 255.5 265.5 L 255.5 289.5 C 255.5 295.023438 259.976562 299.5 265.5 299.5 L 289.5 299.5 C 295.023438 299.5 299.5 295.023438 299.5 289.5 L 299.5 265.5 C 299.5 259.976562 295.023438 255.5 289.5 255.5 L 265.5 255.5 C 259.976562 255.5 255.5 259.976562 255.5 265.5 Z M 255.5 265.5 "/>
<path style="fill:none;stroke-width:3;stroke-linecap:butt;stroke-linejoin:miter;stroke:rgb(0%,0%,100%);stroke-opacity:0.5;stroke-miterlimit:10;" d="M 0 20 L 5 20 M 20 0 L 20 5 M 0 35 L 5 35 M 35 0 L 35 5 M 50 20 L 55 20 M 20 50 L 20 55 M 50 35 L 55 35 M 35 50 L 35 55 M 100 20 L 105 20 M 20 100 L 20 105 M 100 35 L 105 35 M 35 100 L 35 105 M 150 20 L 155 20 M 20 150 L 20 155 M 150 35 L 155 35 M 35 150 L 35 155 M 200 20 L 205 20 M 20 200 L 20 205 M 200 35 L 205 35 M 35 200 L 35 205 M 250 20 L 255 20 M 20 250 L 20 255 M 250 35 L 255 35 M 35 250 L 35 255 M 300 20 L 305 20 M 20 300 L 20 305 M 300 35 L 305 35 M 35 300 L 35 305 M 0 70 L 5 70 M 70 0 L 70 5 M 0 85 L 5 85 M 85 0 L 85 5 M 50 70 L 55 70 M 70 50 L 70 55 M 50 85 L 55 85 M 85 50 L 85 55 M 100 70 L 105 70 M 70 100 L 70 105 M 100 85 L 105 85 M 85 100 L 85 105 M 150 70 L 155 70 M 70 150 L 70 155 M 150 85 L 155 85 M 85 150 L 85 155 M 200 70 L 205 70 M 70 200 L 70 205 M 200 85 L 205 85 M 85 200 L 85 205 M 250 70 L 255 70 M 70 250 L 70 255 M 250 85 L 255 85 M 85 250 L 85 255 M 300 70 L 305 70 M 70 300 L 70 305 M 300 85 L 305 85 M 85 300 L 85 305 M 0 120 L 5 120 M 120 0 L 120 5 M 0 135 L 5 135 M 135 0 L 135 5 M 50 120 L 55 120 M 120 50 L 120 55 M 50 135 L 55 135 M 135 50 L 135 55 M 100 120 L 105 120 M 120 100 L 120 105 M 100 135 L 105 135 M 135 100 L 135 105 M 150 120 L 155 120 M 120 150 L 120 155 M 150 135 L 155 135 M 135 150 L 135 155 M 200 120 L 205 120 M 120 200 L 120 205 M 200 135 L 205 135 M 135 200 L 135 205 M 250 120 L 255 120 M 120 250 L 120 255 M 250 135 L 255 135 M 135 250 L 135 255 M 300 120 L 305 120 M 120 300 L 120 305 M 300 135 L 305 135 M 135 300 L 135 305 M 0 170 L 5 170 M 170 0 L 170 5 M 0 185 L 5 185 M 185 0 L 185 5 M 50 170 L 55 170 M 170 50 L 170 55 M 50 185 L 55 185 M 185 50 L 185 55 M 100 170 L 105 170 M 170 100 L 170 105 M 100 185 L 105 185 M 185 100 L 185 105 M 150 170 L 155 170 M 170 150 L 170 155 M 150 185 L 155 185 M 185 150 L 185 155 M 200 170 L 205 170 M 170 200 L 170 205 M 200 185 L 205 185 M 185 200 L 185 205 M 250 170 L 255 170 M 170 250 L 170 255 M 250 185 L 255 185 M 185 250 L 185 255 M 300 170 L 305 170 M 170 300 L 170 305 M 300 185 L 305 185 M 185 300 L 185 305 M 0 220 L 5 220 M 220 0 L 220 5 M 0 235 L 5 235 M 235 0 L 235 5 M 50 220 L 55 220 M 220 50 L 220 55 M 50 235 L 55 235 M 235 50 L 235 55 M 100 220 L 105 220 M 220 100 L 220 105 M 100 235 L 105 235 M 235 100 L 235 105 M 150 220 L 155 220 M 220 150 L 220 155 M 150 235 L 155 235 M 235 150 L 235 155 M 200 220 L 205 220 M 220 200 L 220 205 M 200 235 L 205 235 M 235 200 L 235 205 M 250 220 L 255 220 M 220 250 L 220 255 M 250 235 L 255 235 M 235 250 L 235 255 M 300 220 L 305 220 M 220 300 L 220 305 M 300 235 L 305 235 M 235 300 L 235 305 M 0 270 L 5 270 M 270 0 L 270 5 M 0 285 L 5 285 M 285 0 L 285 5 M 50 270 L 55 270 M 270 50 L 270 55 M 50 285 L 55 285 M 285 50 L 285 55 M 100 270 L 105 270 M 270 100 L 270 105 M 100 285 L 105 285 M 285 100 L 285 105 M 150 270 L 155 270 M 270 150 L 270 155 M 150 285 L 155 285 M 285 150 L 285 155 M 200 270 L 205 270 M 270 200 L 270 205 M 200 285 L 205 285 M 285 200 L 285 205 M 250 270 L 255 270 M 270 250 L 270 255 M 250 285 L 255 285 M 285 250 L 285 255 M 300 270 L 305 270 M 270 300 L 270 305 M 300 285 L 305 285 M 285 300 L 285 305 M 49.5 35 C 34.75 35 20 20.25 20 5.5 M 5.5 20 C 27.5 20 27.5 20 49.5 20 M 35 5.5 C 35 27.5 35 27.5 35 49.5 M 20 49.5 C 20 42.25 12.75 35 5.5 35 M 70 49.5 C 70 37.5 85 37.5 85 49.5 M 55.5 35 C 77.5 35 77.5 35 99.5 35 M 70 5.5 C 70 20.25 84.75 20 99.5 20 M 85 5.5 C 85 20.25 70.25 20 55.5 20 M 149.5 35 C 134.75 35 120 34.75 120 49.5 M 135 49.5 C 135 34.75 120.25 35 105.5 35 M 135 5.5 C 135 17.5 120 17.5 120 5.5 M 149.5 20 C 127.5 20 127.5 20 105.5 20 M 155.5 20 C 170.25 20 185 20.25 185 5.5 M 199.5 20 C 184.75 20 170 20.25 170 5.5 M 199.5 35 C 192.25 35 185 42.25 185 49.5 M 155.5 35 C 162.75 35 170 42.25 170 49.5 M 235 49.5 C 235 34.75 220.25 35 205.5 35 M 220 49.5 C 220 34.75 220.25 20 205.5 20 M 249.5 35 C 234.75 35 235 20.25 235 5.5 M 249.5 20 C 234.75 20 220 20.25 220 5.5 M 299.5 20 C 284.75 20 285 34.75 285 49.5 M 255.5 20 C 262.75 20 270 12.75 270 5.5 M 285 5.5 C 285 20.25 270.25 35 255.5 35 M 270 49.5 C 270 34.75 284.75 35 299.5 35 M 20 99.5 C 20 84.75 34.75 70 49.5 70 M 5.5 85 C 17.5 85 17.5 70 5.5 70 M 49.5 85 C 42.25 85 35 92.25 35 99.5 M 35 55.5 C 35 67.5 20 67.5 20 55.5 M 85 55.5 C 85 67.5 70 67.5 70 55.5 M 85 99.5 C 85 84.75 70.25 85 55.5 85 M 55.5 70 C 77.5 70 77.5 70 99.5 70 M 70 99.5 C 70 84.75 84.75 85 99.5 85 M 149.5 85 C 134.75 85 120 84.75 120 99.5 M 135 99.5 C 135 84.75 134.75 70 149.5 70 M 105.5 70 C 112.75 70 120 62.75 120 55.5 M 105.5 85 C 120.25 85 135 70.25 135 55.5 M 170 55.5 C 170 70.25 184.75 70 199.5 70 M 155.5 70 C 170.25 70 185 84.75 185 99.5 M 199.5 85 C 184.75 85 170 84.75 170 99.5 M 185 55.5 C 185 70.25 170.25 85 155.5 85 M 220 99.5 C 220 77.5 220 77.5 220 55.5 M 235 55.5 C 235 70.25 220.25 85 205.5 85 M 205.5 70 C 227.5 70 227.5 70 249.5 70 M 249.5 85 C 242.25 85 235 92.25 235 99.5 M 270 99.5 C 270 77.5 285 77.5 285 55.5 M 255.5 85 C 270.25 85 270 70.25 270 55.5 M 255.5 70 C 277.5 70 277.5 85 299.5 85 M 299.5 70 C 284.75 70 285 84.75 285 99.5 M 20 149.5 C 20 137.5 35 137.5 35 149.5 M 35 105.5 C 35 120.25 34.75 135 49.5 135 M 5.5 120 C 17.5 120 17.5 135 5.5 135 M 49.5 120 C 34.75 120 20 120.25 20 105.5 M 70 149.5 C 70 127.5 85 127.5 85 105.5 M 55.5 120 C 70.25 120 85 134.75 85 149.5 M 99.5 120 C 84.75 120 70 120.25 70 105.5 M 55.5 135 C 77.5 135 77.5 135 99.5 135 M 105.5 120 C 127.5 120 127.5 135 149.5 135 M 135 105.5 C 135 127.5 120 127.5 120 149.5 M 120 105.5 C 120 120.25 134.75 120 149.5 120 M 135 149.5 C 135 134.75 120.25 135 105.5 135 M 185 149.5 C 185 127.5 170 127.5 170 105.5 M 155.5 135 C 177.5 135 177.5 120 199.5 120 M 170 149.5 C 170 127.5 185 127.5 185 105.5 M 155.5 120 C 177.5 120 177.5 135 199.5 135 M 205.5 120 C 227.5 120 227.5 120 249.5 120 M 235 149.5 C 235 142.25 242.25 135 249.5 135 M 220 149.5 C 220 142.25 212.75 135 205.5 135 M 220 105.5 C 220 117.5 235 117.5 235 105.5 M 285 105.5 C 285 127.5 270 127.5 270 149.5 M 270 105.5 C 270 120.25 284.75 120 299.5 120 M 255.5 135 C 277.5 135 277.5 135 299.5 135 M 255.5 120 C 270.25 120 285 134.75 285 149.5 M 5.5 185 C 20.25 185 35 184.75 35 199.5 M 35 155.5 C 35 162.75 42.25 170 49.5 170 M 49.5 185 C 34.75 185 20 170.25 20 155.5 M 5.5 170 C 20.25 170 20 184.75 20 199.5 M 85 155.5 C 85 162.75 92.25 170 99.5 170 M 99.5 185 C 84.75 185 70 170.25 70 155.5 M 55.5 185 C 62.75 185 70 192.25 70 199.5 M 85 199.5 C 85 184.75 70.25 170 55.5 170 M 120 199.5 C 120 192.25 112.75 185 105.5 185 M 120 155.5 C 120 167.5 135 167.5 135 155.5 M 105.5 170 C 127.5 170 127.5 170 149.5 170 M 149.5 185 C 142.25 185 135 192.25 135 199.5 M 170 155.5 C 170 170.25 184.75 185 199.5 185 M 155.5 170 C 177.5 170 177.5 170 199.5 170 M 155.5 185 C 170.25 185 185 170.25 185 155.5 M 170 199.5 C 170 187.5 185 187.5 185 199.5 M 235 199.5 C 235 184.75 220.25 185 205.5 185 M 220 155.5 C 220 162.75 212.75 170 205.5 170 M 249.5 185 C 237.5 185 237.5 170 249.5 170 M 235 155.5 C 235 177.5 220 177.5 220 199.5 M 285 155.5 C 285 167.5 270 167.5 270 155.5 M 255.5 185 C 270.25 185 285 184.75 285 199.5 M 299.5 185 C 277.5 185 277.5 170 255.5 170 M 270 199.5 C 270 184.75 284.75 170 299.5 170 M 5.5 220 C 20.25 220 35 220.25 35 205.5 M 35 249.5 C 35 242.25 42.25 235 49.5 235 M 5.5 235 C 12.75 235 20 242.25 20 249.5 M 49.5 220 C 34.75 220 20 220.25 20 205.5 M 85 205.5 C 85 212.75 92.25 220 99.5 220 M 70 205.5 C 70 227.5 70 227.5 70 249.5 M 85 249.5 C 85 234.75 70.25 235 55.5 235 M 55.5 220 C 77.5 220 77.5 235 99.5 235 M 149.5 220 C 127.5 220 127.5 220 105.5 220 M 149.5 235 C 134.75 235 135 220.25 135 205.5 M 105.5 235 C 120.25 235 135 234.75 135 249.5 M 120 249.5 C 120 227.5 120 227.5 120 205.5 M 155.5 220 C 167.5 220 167.5 235 155.5 235 M 199.5 220 C 187.5 220 187.5 235 199.5 235 M 185 205.5 C 185 227.5 185 227.5 185 249.5 M 170 249.5 C 170 227.5 170 227.5 170 205.5 M 205.5 235 C 212.75 235 220 242.25 220 249.5 M 220 205.5 C 220 220.25 234.75 220 249.5 220 M 249.5 235 C 242.25 235 235 242.25 235 249.5 M 205.5 220 C 220.25 220 235 220.25 235 205.5 M 255.5 235 C 270.25 235 285 220.25 285 205.5 M 270 205.5 C 270 227.5 285 227.5 285 249.5 M 270 249.5 C 270 234.75 284.75 220 299.5 220 M 255.5 220 C 277.5 220 277.5 235 299.5 235 M 35 255.5 C 35 277.5 20 277.5 20 299.5 M 49.5 270 C 34.75 270 35 284.75 35 299.5 M 49.5 285 C 27.5 285 27.5 285 5.5 285 M 20 255.5 C 20 262.75 12.75 270 5.5 270 M 55.5 270 C 70.25 270 85 284.75 85 299.5 M 55.5 285 C 70.25 285 70 270.25 70 255.5 M 85 255.5 C 85 270.25 84.75 285 99.5 285 M 99.5 270 C 84.75 270 70 284.75 70 299.5 M 120 255.5 C 120 277.5 135 277.5 135 299.5 M 105.5 285 C 112.75 285 120 292.25 120 299.5 M 105.5 270 C 127.5 270 127.5 270 149.5 270 M 135 255.5 C 135 270.25 134.75 285 149.5 285 M 170 299.5 C 170 284.75 170.25 270 155.5 270 M 185 299.5 C 185 277.5 170 277.5 170 255.5 M 155.5 285 C 170.25 285 185 270.25 185 255.5 M 199.5 285 C 187.5 285 187.5 270 199.5 270 M 235 299.5 C 235 284.75 220.25 285 205.5 285 M 220 299.5 C 220 284.75 234.75 285 249.5 285 M 235 255.5 C 235 267.5 220 267.5 220 255.5 M 249.5 270 C 227.5 270 227.5 270 205.5 270 M 285 255.5 C 285 270.25 270.25 285 255.5 285 M 299.5 285 C 277.5 285 277.5 270 255.5 270 M 270 299.5 C 270 287.5 285 287.5 285 299.5 M 299.5 270 C 284.75 270 270 270.25 270 255.5 "/>
</g>
</svg>
