<?xml version="1.0" encoding="UTF-8"?>
<svg xmlns="http://www.w3.org/2000/svg" xmlns:xlink="http://www.w3.org/1999/xlink" width="801mm" height="280mm" viewBox="0 0 801 280">
<path fill="none" stroke-width="0.2" stroke-linecap="butt" stroke-linejoin="miter" stroke="rgb(0%, 0%, 100%)" stroke-opacity="1" stroke-miterlimit="10" d="M 4.5 18.832031 L 6 18.832031 L 7.691406 18.960938 L 9.183594 19.324219 L 10.597656 19.960938 L 11.769531 20.808594 L 12.699219 21.828125 L 13.441406 23.089844 L 13.894531 24.457031 L 14.0625 26 L 13.894531 27.542969 L 13.441406 28.910156 L 12.699219 30.171875 L 11.769531 31.191406 L 10.597656 32.039062 L 9.183594 32.675781 L 7.691406 33.039062 L 6 33.167969 L 4.5 33.167969 M 4.5 61.832031 L 6 61.832031 L 8.429688 61.976562 L 10.84375 62.390625 L 13.226562 63.0625 L 15.652344 64.019531 L 18.003906 65.214844 L 20.347656 66.695312 L 22.566406 68.390625 L 24.636719 70.285156 L 26.535156 72.347656 L 28.242188 74.558594 L 29.730469 76.902344 L 30.933594 79.25 L 31.902344 81.671875 L 32.609375 84.15625 L 33.023438 86.570312 L 33.167969 89 L 33.167969 92 L 33.203125 100.324219 L 33.507812 105.398438 L 34.214844 109.648438 L 35.382812 113.046875 L 36.171875 114.476562 L 37.125 115.742188 L 38.191406 116.773438 L 39.433594 117.636719 L 40.859375 118.316406 L 42.382812 118.78125 L 44.09375 119.070312 L 46 119.167969 L 49 119.167969 L 51.316406 119.4375 L 53.5625 120.199219 L 55.765625 121.457031 L 57.824219 123.175781 L 59.542969 125.234375 L 60.800781 127.4375 L 61.5625 129.683594 L 61.832031 132 L 61.832031 135 L 61.929688 136.90625 L 62.21875 138.617188 L 62.683594 140.140625 L 63.363281 141.566406 L 64.226562 142.808594 L 65.257812 143.875 L 66.523438 144.828125 L 67.953125 145.617188 L 71.351562 146.785156 L 75.601562 147.492188 L 80.675781 147.796875 L 89 147.832031 L 92 147.832031 L 94.824219 147.933594 L 97.496094 148.242188 L 100.019531 148.761719 L 102.394531 149.488281 L 104.804688 150.492188 L 107.152344 151.746094 L 115.855469 157.648438 L 120.148438 159.9375 L 122.859375 160.925781 L 125.707031 161.617188 L 128.796875 162.035156 L 132 162.167969 L 135 162.167969 L 136.90625 162.070312 L 138.617188 161.78125 L 140.140625 161.316406 L 141.566406 160.636719 L 142.808594 159.773438 L 143.875 158.742188 L 144.828125 157.476562 L 145.617188 156.046875 L 146.785156 152.648438 L 147.492188 148.398438 L 147.796875 143.324219 L 147.832031 135 L 147.832031 132 L 147.976562 129.570312 L 148.390625 127.15625 L 149.0625 124.773438 L 150.019531 122.347656 L 151.214844 119.996094 L 152.695312 117.652344 L 154.390625 115.433594 L 156.285156 113.363281 L 158.347656 111.464844 L 160.558594 109.757812 L 162.902344 108.269531 L 165.25 107.066406 L 167.671875 106.097656 L 170.15625 105.390625 L 172.570312 104.976562 L 175 104.832031 L 178 104.832031 L 180.824219 104.933594 L 183.496094 105.242188 L 186.019531 105.761719 L 188.394531 106.488281 L 190.804688 107.492188 L 193.152344 108.746094 L 201.855469 114.648438 L 206.148438 116.9375 L 208.859375 117.925781 L 211.707031 118.617188 L 214.796875 119.035156 L 218 119.167969 L 262.5 119.167969 M 4.5 76.167969 L 6 76.167969 L 8.429688 76.023438 L 10.84375 75.609375 L 13.328125 74.902344 L 15.75 73.933594 L 18.097656 72.730469 L 20.441406 71.242188 L 22.652344 69.535156 L 24.714844 67.636719 L 26.609375 65.566406 L 28.304688 63.347656 L 29.785156 61.003906 L 30.980469 58.652344 L 31.9375 56.226562 L 32.609375 53.84375 L 33.023438 51.429688 L 33.167969 49 L 33.167969 46 L 33.039062 44.308594 L 32.675781 42.816406 L 32.039062 41.402344 L 31.191406 40.230469 L 30.171875 39.300781 L 28.910156 38.558594 L 27.542969 38.105469 L 26 37.9375 L 24.457031 38.105469 L 23.089844 38.558594 L 21.828125 39.300781 L 20.808594 40.230469 L 19.960938 41.402344 L 19.324219 42.816406 L 18.960938 44.308594 L 18.832031 46 L 18.832031 49 L 18.976562 51.429688 L 19.390625 53.84375 L 20.0625 56.226562 L 21.019531 58.652344 L 22.214844 61.003906 L 23.695312 63.347656 L 25.390625 65.566406 L 27.285156 67.636719 L 29.347656 69.535156 L 31.558594 71.242188 L 33.902344 72.730469 L 36.25 73.933594 L 38.671875 74.902344 L 41.15625 75.609375 L 43.570312 76.023438 L 46 76.167969 L 49 76.167969 L 52.203125 76.035156 L 55.292969 75.617188 L 58.140625 74.925781 L 60.851562 73.9375 L 65.144531 71.648438 L 73.847656 65.746094 L 76.195312 64.492188 L 78.605469 63.488281 L 80.980469 62.761719 L 83.503906 62.242188 L 86.175781 61.933594 L 89 61.832031 L 92 61.832031 L 94.429688 61.976562 L 96.84375 62.390625 L 99.328125 63.097656 L 101.75 64.066406 L 104.097656 65.269531 L 106.441406 66.757812 L 108.652344 68.464844 L 110.714844 70.363281 L 112.609375 72.433594 L 114.304688 74.652344 L 115.785156 76.996094 L 116.980469 79.347656 L 117.9375 81.773438 L 118.609375 84.15625 L 119.023438 86.570312 L 119.167969 89 L 119.167969 135 L 119.039062 136.691406 L 118.675781 138.183594 L 118.039062 139.597656 L 117.191406 140.769531 L 116.171875 141.699219 L 114.910156 142.441406 L 113.542969 142.894531 L 112 143.0625 L 110.457031 142.894531 L 109.089844 142.441406 L 107.828125 141.699219 L 106.808594 140.769531 L 105.960938 139.597656 L 105.324219 138.183594 L 104.960938 136.691406 L 104.832031 135 L 104.832031 89 L 104.976562 86.570312 L 105.390625 84.15625 L 106.0625 81.773438 L 107.019531 79.347656 L 108.214844 76.996094 L 109.695312 74.652344 L 111.390625 72.433594 L 113.285156 70.363281 L 115.347656 68.464844 L 117.558594 66.757812 L 119.902344 65.269531 L 122.25 64.066406 L 124.671875 63.097656 L 127.15625 62.390625 L 129.570312 61.976562 L 132 61.832031 L 135 61.832031 L 143.324219 61.796875 L 148.398438 61.492188 L 152.648438 60.785156 L 156.046875 59.617188 L 157.476562 58.828125 L 158.742188 57.875 L 159.773438 56.808594 L 160.636719 55.566406 L 161.316406 54.140625 L 161.78125 52.617188 L 162.070312 50.90625 L 162.167969 49 L 162.167969 46 L 162.4375 43.683594 L 163.199219 41.4375 L 164.457031 39.234375 L 166.175781 37.175781 L 168.234375 35.457031 L 170.4375 34.199219 L 172.683594 33.4375 L 175 33.167969 L 178 33.167969 L 180.429688 33.023438 L 182.84375 32.609375 L 185.328125 31.902344 L 187.75 30.933594 L 190.097656 29.730469 L 192.441406 28.242188 L 194.652344 26.535156 L 196.714844 24.636719 L 198.609375 22.566406 L 200.304688 20.347656 L 201.785156 18.003906 L 202.980469 15.652344 L 203.9375 13.226562 L 204.609375 10.84375 L 205.023438 8.429688 L 205.167969 6 L 205.167969 4.5 M 4.5 104.832031 L 6 104.832031 L 8.429688 104.976562 L 10.84375 105.390625 L 13.226562 106.0625 L 15.652344 107.019531 L 18.003906 108.214844 L 20.347656 109.695312 L 22.566406 111.390625 L 24.636719 113.285156 L 26.535156 115.347656 L 28.242188 117.558594 L 29.730469 119.902344 L 30.933594 122.25 L 31.902344 124.671875 L 32.609375 127.15625 L 33.023438 129.570312 L 33.167969 132 L 33.167969 135 L 33.070312 136.90625 L 32.78125 138.617188 L 32.316406 140.140625 L 31.636719 141.566406 L 30.773438 142.808594 L 29.742188 143.875 L 28.476562 144.828125 L 27.046875 145.617188 L 23.648438 146.785156 L 19.398438 147.492188 L 14.324219 147.796875 L 6 147.832031 L 4.5 147.832031 M 119.167969 4.5 L 119.167969 49 L 119.023438 51.429688 L 118.609375 53.84375 L 117.9375 56.226562 L 116.980469 58.652344 L 115.785156 61.003906 L 114.304688 63.347656 L 112.609375 65.566406 L 110.714844 67.636719 L 108.652344 69.535156 L 106.441406 71.242188 L 104.097656 72.730469 L 101.75 73.933594 L 99.328125 74.902344 L 96.84375 75.609375 L 94.429688 76.023438 L 92 76.167969 L 89 76.167969 L 85.796875 76.035156 L 82.707031 75.617188 L 79.859375 74.925781 L 77.148438 73.9375 L 72.855469 71.648438 L 64.152344 65.746094 L 61.804688 64.492188 L 59.394531 63.488281 L 57.019531 62.761719 L 54.496094 62.242188 L 51.824219 61.933594 L 49 61.832031 L 46 61.832031 L 43.570312 61.976562 L 41.15625 62.390625 L 38.773438 63.0625 L 36.347656 64.019531 L 33.996094 65.214844 L 31.652344 66.695312 L 29.433594 68.390625 L 27.363281 70.285156 L 25.464844 72.347656 L 23.757812 74.558594 L 22.269531 76.902344 L 21.066406 79.25 L 20.097656 81.671875 L 19.390625 84.15625 L 18.976562 86.570312 L 18.832031 89 L 18.832031 92 L 18.796875 100.324219 L 18.492188 105.398438 L 17.785156 109.648438 L 16.617188 113.046875 L 15.828125 114.476562 L 14.875 115.742188 L 13.808594 116.773438 L 12.566406 117.636719 L 11.140625 118.316406 L 9.617188 118.78125 L 7.90625 119.070312 L 6 119.167969 L 4.5 119.167969 M 61.832031 4.5 L 61.832031 6 L 61.5625 8.316406 L 60.800781 10.5625 L 59.542969 12.765625 L 57.824219 14.824219 L 55.765625 16.542969 L 53.5625 17.800781 L 51.316406 18.5625 L 49 18.832031 L 46 18.832031 L 44.308594 18.960938 L 42.816406 19.324219 L 41.402344 19.960938 L 40.230469 20.808594 L 39.300781 21.828125 L 38.558594 23.089844 L 38.105469 24.457031 L 37.9375 26 L 38.105469 27.542969 L 38.558594 28.910156 L 39.300781 30.171875 L 40.230469 31.191406 L 41.402344 32.039062 L 42.816406 32.675781 L 44.308594 33.039062 L 46 33.167969 L 49 33.167969 L 51.316406 33.4375 L 53.5625 34.199219 L 55.765625 35.457031 L 57.824219 37.175781 L 59.542969 39.234375 L 60.800781 41.4375 L 61.5625 43.683594 L 61.832031 46 L 61.832031 49 L 61.933594 51.824219 L 62.242188 54.496094 L 62.761719 57.019531 L 63.488281 59.394531 L 64.492188 61.804688 L 65.746094 64.152344 L 71.648438 72.855469 L 73.9375 77.148438 L 74.925781 79.859375 L 75.617188 82.707031 L 76.035156 85.796875 L 76.167969 89 L 76.167969 92 L 76.070312 93.90625 L 75.78125 95.617188 L 75.316406 97.140625 L 74.636719 98.566406 L 73.773438 99.808594 L 72.742188 100.875 L 71.476562 101.828125 L 70.046875 102.617188 L 66.648438 103.785156 L 62.398438 104.492188 L 57.324219 104.796875 L 49 104.832031 L 46 104.832031 L 43.570312 104.976562 L 41.15625 105.390625 L 38.773438 106.0625 L 36.347656 107.019531 L 33.996094 108.214844 L 31.652344 109.695312 L 29.433594 111.390625 L 27.363281 113.285156 L 25.464844 115.347656 L 23.757812 117.558594 L 22.269531 119.902344 L 21.066406 122.25 L 20.097656 124.671875 L 19.390625 127.15625 L 18.976562 129.570312 L 18.832031 132 L 18.832031 135 L 18.796875 143.324219 L 18.492188 148.398438 L 17.785156 152.648438 L 16.617188 156.046875 L 15.828125 157.476562 L 14.875 158.742188 L 13.808594 159.773438 L 12.566406 160.636719 L 11.140625 161.316406 L 9.617188 161.78125 L 7.90625 162.070312 L 6 162.167969 L 4.5 162.167969 M 4.5 190.832031 L 6 190.832031 L 14.324219 190.796875 L 19.398438 190.492188 L 23.648438 189.785156 L 27.046875 188.617188 L 28.476562 187.828125 L 29.742188 186.875 L 30.773438 185.808594 L 31.636719 184.566406 L 32.316406 183.140625 L 32.78125 181.617188 L 33.070312 179.90625 L 33.167969 178 L 33.167969 175 L 33.4375 172.683594 L 34.199219 170.4375 L 35.457031 168.234375 L 37.175781 166.175781 L 39.234375 164.457031 L 41.4375 163.199219 L 43.683594 162.4375 L 46 162.167969 L 49 162.167969 L 57.324219 162.203125 L 62.398438 162.507812 L 66.648438 163.214844 L 70.046875 164.382812 L 71.476562 165.171875 L 72.742188 166.125 L 73.773438 167.191406 L 74.636719 168.433594 L 75.316406 169.859375 L 75.78125 171.382812 L 76.070312 173.09375 L 76.167969 175 L 76.167969 178 L 76.203125 186.324219 L 76.507812 191.398438 L 77.214844 195.648438 L 78.382812 199.046875 L 79.171875 200.476562 L 80.125 201.742188 L 81.191406 202.773438 L 82.433594 203.636719 L 83.859375 204.316406 L 85.382812 204.78125 L 87.09375 205.070312 L 89 205.167969 L 178 205.167969 L 186.324219 205.203125 L 191.398438 205.507812 L 195.648438 206.214844 L 199.046875 207.382812 L 200.476562 208.171875 L 201.742188 209.125 L 202.773438 210.191406 L 203.636719 211.433594 L 204.316406 212.859375 L 204.78125 214.382812 L 205.070312 216.09375 L 205.167969 218 L 205.167969 262.5 M 4.5 205.167969 L 6 205.167969 L 7.90625 205.070312 L 9.617188 204.78125 L 11.140625 204.316406 L 12.566406 203.636719 L 13.808594 202.773438 L 14.875 201.742188 L 15.828125 200.476562 L 16.617188 199.046875 L 17.785156 195.648438 L 18.492188 191.398438 L 18.796875 186.324219 L 18.832031 178 L 18.832031 175 L 18.976562 172.570312 L 19.390625 170.15625 L 20.097656 167.671875 L 21.066406 165.25 L 22.269531 162.902344 L 23.757812 160.558594 L 25.464844 158.347656 L 27.363281 156.285156 L 29.433594 154.390625 L 31.652344 152.695312 L 33.996094 151.214844 L 36.347656 150.019531 L 38.773438 149.0625 L 41.15625 148.390625 L 43.570312 147.976562 L 46 147.832031 L 49 147.832031 L 50.90625 147.929688 L 52.617188 148.21875 L 54.140625 148.683594 L 55.566406 149.363281 L 56.808594 150.226562 L 57.875 151.257812 L 58.828125 152.523438 L 59.617188 153.953125 L 60.785156 157.351562 L 61.492188 161.601562 L 61.796875 166.675781 L 61.832031 175 L 61.832031 221 L 61.933594 223.824219 L 62.242188 226.496094 L 62.761719 229.019531 L 63.488281 231.394531 L 64.492188 233.804688 L 65.746094 236.152344 L 71.648438 244.855469 L 73.9375 249.148438 L 74.925781 251.859375 L 75.617188 254.707031 L 76.035156 257.796875 L 76.167969 261 L 76.167969 262.5 M 4.5 233.832031 L 6 233.832031 L 7.90625 233.929688 L 9.617188 234.21875 L 11.140625 234.683594 L 12.566406 235.363281 L 13.808594 236.226562 L 14.875 237.257812 L 15.828125 238.523438 L 16.617188 239.953125 L 17.785156 243.351562 L 18.492188 247.601562 L 18.796875 252.675781 L 18.832031 261 L 18.832031 262.5 M 4.5 248.167969 L 6 248.167969 L 9.203125 248.035156 L 12.292969 247.617188 L 15.140625 246.925781 L 17.851562 245.9375 L 22.144531 243.648438 L 30.847656 237.746094 L 33.195312 236.492188 L 35.605469 235.488281 L 37.980469 234.761719 L 40.503906 234.242188 L 43.175781 233.933594 L 46 233.832031 L 92 233.832031 L 93.691406 233.960938 L 95.183594 234.324219 L 96.597656 234.960938 L 97.769531 235.808594 L 98.699219 236.828125 L 99.441406 238.089844 L 99.894531 239.457031 L 100.0625 241 L 99.894531 242.542969 L 99.441406 243.910156 L 98.699219 245.171875 L 97.769531 246.191406 L 96.597656 247.039062 L 95.183594 247.675781 L 93.691406 248.039062 L 92 248.167969 L 89 248.167969 L 80.675781 248.203125 L 75.601562 248.507812 L 71.351562 249.214844 L 67.953125 250.382812 L 66.523438 251.171875 L 65.257812 252.125 L 64.226562 253.191406 L 63.363281 254.433594 L 62.683594 255.859375 L 62.21875 257.382812 L 61.929688 259.09375 L 61.832031 261 L 61.832031 262.5 M 18.832031 4.5 L 18.832031 6 L 18.960938 7.691406 L 19.324219 9.183594 L 19.960938 10.597656 L 20.808594 11.769531 L 21.828125 12.699219 L 23.089844 13.441406 L 24.457031 13.894531 L 26 14.0625 L 27.542969 13.894531 L 28.910156 13.441406 L 30.171875 12.699219 L 31.191406 11.769531 L 32.039062 10.597656 L 32.675781 9.183594 L 33.039062 7.691406 L 33.167969 6 L 33.167969 4.5 M 33.167969 262.5 L 33.167969 218 L 33.039062 216.308594 L 32.675781 214.816406 L 32.039062 213.402344 L 31.191406 212.230469 L 30.171875 211.300781 L 28.910156 210.558594 L 27.542969 210.105469 L 26 209.9375 L 24.457031 210.105469 L 23.089844 210.558594 L 21.828125 211.300781 L 20.808594 212.230469 L 19.960938 213.402344 L 19.324219 214.816406 L 18.960938 216.308594 L 18.832031 218 L 18.832031 221 L 18.976562 223.429688 L 19.390625 225.84375 L 20.097656 228.328125 L 21.066406 230.75 L 22.269531 233.097656 L 23.757812 235.441406 L 25.464844 237.652344 L 27.363281 239.714844 L 29.433594 241.609375 L 31.652344 243.304688 L 33.996094 244.785156 L 36.347656 245.980469 L 38.773438 246.9375 L 41.15625 247.609375 L 43.570312 248.023438 L 46 248.167969 L 49 248.167969 L 51.429688 248.023438 L 53.84375 247.609375 L 56.226562 246.9375 L 58.652344 245.980469 L 61.003906 244.785156 L 63.347656 243.304688 L 65.566406 241.609375 L 67.636719 239.714844 L 69.535156 237.652344 L 71.242188 235.441406 L 72.730469 233.097656 L 73.933594 230.75 L 74.902344 228.328125 L 75.609375 225.84375 L 76.023438 223.429688 L 76.167969 221 L 76.167969 218 L 76.023438 215.570312 L 75.609375 213.15625 L 74.9375 210.773438 L 73.980469 208.347656 L 72.785156 205.996094 L 71.304688 203.652344 L 69.609375 201.433594 L 67.714844 199.363281 L 65.652344 197.464844 L 63.441406 195.757812 L 61.097656 194.269531 L 58.75 193.066406 L 56.328125 192.097656 L 53.84375 191.390625 L 51.429688 190.976562 L 49 190.832031 L 46 190.832031 L 44.308594 190.960938 L 42.816406 191.324219 L 41.402344 191.960938 L 40.230469 192.808594 L 39.300781 193.828125 L 38.558594 195.089844 L 38.105469 196.457031 L 37.9375 198 L 38.105469 199.542969 L 38.558594 200.910156 L 39.300781 202.171875 L 40.230469 203.191406 L 41.402344 204.039062 L 42.816406 204.675781 L 44.308594 205.039062 L 46 205.167969 L 49 205.167969 L 52.203125 205.035156 L 55.292969 204.617188 L 58.140625 203.925781 L 60.851562 202.9375 L 65.144531 200.648438 L 73.847656 194.746094 L 76.195312 193.492188 L 78.605469 192.488281 L 80.980469 191.761719 L 83.503906 191.242188 L 86.175781 190.933594 L 89 190.832031 L 92 190.832031 L 94.429688 190.976562 L 96.84375 191.390625 L 99.328125 192.097656 L 101.75 193.066406 L 104.097656 194.269531 L 106.441406 195.757812 L 108.652344 197.464844 L 110.714844 199.363281 L 112.609375 201.433594 L 114.304688 203.652344 L 115.785156 205.996094 L 116.980469 208.347656 L 117.9375 210.773438 L 118.609375 213.15625 L 119.023438 215.570312 L 119.167969 218 L 119.167969 221 L 119.203125 229.324219 L 119.507812 234.398438 L 120.214844 238.648438 L 121.382812 242.046875 L 122.171875 243.476562 L 123.125 244.742188 L 124.191406 245.773438 L 125.433594 246.636719 L 126.859375 247.316406 L 128.382812 247.78125 L 130.09375 248.070312 L 132 248.167969 L 135 248.167969 L 137.429688 248.023438 L 139.84375 247.609375 L 142.226562 246.9375 L 144.652344 245.980469 L 147.003906 244.785156 L 149.347656 243.304688 L 151.566406 241.609375 L 153.636719 239.714844 L 155.535156 237.652344 L 157.242188 235.441406 L 158.730469 233.097656 L 159.933594 230.75 L 160.902344 228.328125 L 161.609375 225.84375 L 162.023438 223.429688 L 162.167969 221 L 162.167969 175 L 162.039062 173.308594 L 161.675781 171.816406 L 161.039062 170.402344 L 160.191406 169.230469 L 159.171875 168.300781 L 157.910156 167.558594 L 156.542969 167.105469 L 155 166.9375 L 153.457031 167.105469 L 152.089844 167.558594 L 150.828125 168.300781 L 149.808594 169.230469 L 148.960938 170.402344 L 148.324219 171.816406 L 147.960938 173.308594 L 147.832031 175 L 147.832031 178 L 147.929688 179.90625 L 148.21875 181.617188 L 148.683594 183.140625 L 149.363281 184.566406 L 150.226562 185.808594 L 151.257812 186.875 L 152.523438 187.828125 L 153.953125 188.617188 L 157.351562 189.785156 L 161.601562 190.492188 L 166.675781 190.796875 L 175 190.832031 L 178 190.832031 L 180.824219 190.933594 L 183.496094 191.242188 L 186.019531 191.761719 L 188.394531 192.488281 L 190.804688 193.492188 L 193.152344 194.746094 L 201.855469 200.648438 L 206.148438 202.9375 L 208.859375 203.925781 L 211.707031 204.617188 L 214.796875 205.035156 L 218 205.167969 L 221 205.167969 L 222.691406 205.039062 L 224.183594 204.675781 L 225.597656 204.039062 L 226.769531 203.191406 L 227.699219 202.171875 L 228.441406 200.910156 L 228.894531 199.542969 L 229.0625 198 L 228.894531 196.457031 L 228.441406 195.089844 L 227.699219 193.828125 L 226.769531 192.808594 L 225.597656 191.960938 L 224.183594 191.324219 L 222.691406 190.960938 L 221 190.832031 L 218 190.832031 L 215.570312 190.976562 L 213.15625 191.390625 L 210.671875 192.097656 L 208.25 193.066406 L 205.902344 194.269531 L 203.558594 195.757812 L 201.347656 197.464844 L 199.285156 199.363281 L 197.390625 201.433594 L 195.695312 203.652344 L 194.214844 205.996094 L 193.019531 208.347656 L 192.0625 210.773438 L 191.390625 213.15625 L 190.976562 215.570312 L 190.832031 218 L 190.832031 221 L 190.5625 223.316406 L 189.800781 225.5625 L 188.542969 227.765625 L 186.824219 229.824219 L 184.765625 231.542969 L 182.5625 232.800781 L 180.316406 233.5625 L 178 233.832031 L 175 233.832031 L 173.308594 233.960938 L 171.816406 234.324219 L 170.402344 234.960938 L 169.230469 235.808594 L 168.300781 236.828125 L 167.558594 238.089844 L 167.105469 239.457031 L 166.9375 241 L 167.105469 242.542969 L 167.558594 243.910156 L 168.300781 245.171875 L 169.230469 246.191406 L 170.402344 247.039062 L 171.816406 247.675781 L 173.308594 248.039062 L 175 248.167969 L 178 248.167969 L 180.316406 248.4375 L 182.5625 249.199219 L 184.765625 250.457031 L 186.824219 252.175781 L 188.542969 254.234375 L 189.800781 256.4375 L 190.5625 258.683594 L 190.832031 261 L 190.832031 262.5 M 76.167969 4.5 L 76.167969 6 L 76.4375 8.316406 L 77.199219 10.5625 L 78.457031 12.765625 L 80.175781 14.824219 L 82.234375 16.542969 L 84.4375 17.800781 L 86.683594 18.5625 L 89 18.832031 L 135 18.832031 L 137.316406 18.5625 L 139.5625 17.800781 L 141.765625 16.542969 L 143.824219 14.824219 L 145.542969 12.765625 L 146.800781 10.5625 L 147.5625 8.316406 L 147.832031 6 L 147.832031 4.5 M 104.832031 4.5 L 104.832031 49 L 104.976562 51.429688 L 105.390625 53.84375 L 106.097656 56.328125 L 107.066406 58.75 L 108.269531 61.097656 L 109.757812 63.441406 L 111.464844 65.652344 L 113.363281 67.714844 L 115.433594 69.609375 L 117.652344 71.304688 L 119.996094 72.785156 L 122.347656 73.980469 L 124.773438 74.9375 L 127.15625 75.609375 L 129.570312 76.023438 L 132 76.167969 L 135 76.167969 L 138.203125 76.035156 L 141.292969 75.617188 L 144.140625 74.925781 L 146.851562 73.9375 L 151.144531 71.648438 L 159.847656 65.746094 L 162.195312 64.492188 L 164.605469 63.488281 L 166.980469 62.761719 L 169.503906 62.242188 L 172.175781 61.933594 L 175 61.832031 L 178 61.832031 L 181.203125 61.964844 L 184.292969 62.382812 L 187.140625 63.074219 L 189.851562 64.0625 L 194.144531 66.351562 L 202.847656 72.253906 L 205.195312 73.507812 L 207.605469 74.511719 L 209.980469 75.238281 L 212.503906 75.757812 L 215.175781 76.066406 L 218 76.167969 L 221 76.167969 L 222.90625 76.070312 L 224.617188 75.78125 L 226.140625 75.316406 L 227.566406 74.636719 L 228.808594 73.773438 L 229.875 72.742188 L 230.828125 71.476562 L 231.617188 70.046875 L 232.785156 66.648438 L 233.492188 62.398438 L 233.796875 57.324219 L 233.832031 49 L 233.832031 46 L 233.929688 44.09375 L 234.21875 42.382812 L 234.683594 40.859375 L 235.363281 39.433594 L 236.226562 38.191406 L 237.257812 37.125 L 238.523438 36.171875 L 239.953125 35.382812 L 243.351562 34.214844 L 247.601562 33.507812 L 252.675781 33.203125 L 261 33.167969 L 262.5 33.167969 M 104.832031 262.5 L 104.832031 261 L 104.976562 258.570312 L 105.390625 256.15625 L 106.097656 253.671875 L 107.066406 251.25 L 108.269531 248.902344 L 109.757812 246.558594 L 111.464844 244.347656 L 113.363281 242.285156 L 115.433594 240.390625 L 117.652344 238.695312 L 119.996094 237.214844 L 122.347656 236.019531 L 124.773438 235.0625 L 127.15625 234.390625 L 129.570312 233.976562 L 132 233.832031 L 135 233.832031 L 136.90625 233.929688 L 138.617188 234.21875 L 140.140625 234.683594 L 141.566406 235.363281 L 142.808594 236.226562 L 143.875 237.257812 L 144.828125 238.523438 L 145.617188 239.953125 L 146.785156 243.351562 L 147.492188 247.601562 L 147.796875 252.675781 L 147.832031 261 L 147.832031 262.5 M 162.167969 4.5 L 162.167969 6 L 162.023438 8.429688 L 161.609375 10.84375 L 160.9375 13.226562 L 159.980469 15.652344 L 158.785156 18.003906 L 157.304688 20.347656 L 155.609375 22.566406 L 153.714844 24.636719 L 151.652344 26.535156 L 149.441406 28.242188 L 147.097656 29.730469 L 144.75 30.933594 L 142.328125 31.902344 L 139.84375 32.609375 L 137.429688 33.023438 L 135 33.167969 L 89 33.167969 L 86.683594 33.4375 L 84.4375 34.199219 L 82.234375 35.457031 L 80.175781 37.175781 L 78.457031 39.234375 L 77.199219 41.4375 L 76.4375 43.683594 L 76.167969 46 L 76.167969 49 L 76.035156 52.203125 L 75.617188 55.292969 L 74.925781 58.140625 L 73.9375 60.851562 L 71.648438 65.144531 L 65.746094 73.847656 L 64.492188 76.195312 L 63.488281 78.605469 L 62.761719 80.980469 L 62.242188 83.503906 L 61.933594 86.175781 L 61.832031 89 L 61.832031 92 L 61.976562 94.429688 L 62.390625 96.84375 L 63.097656 99.328125 L 64.066406 101.75 L 65.269531 104.097656 L 66.757812 106.441406 L 68.464844 108.652344 L 70.363281 110.714844 L 72.433594 112.609375 L 74.652344 114.304688 L 76.996094 115.785156 L 79.347656 116.980469 L 81.773438 117.9375 L 84.15625 118.609375 L 86.570312 119.023438 L 89 119.167969 L 92 119.167969 L 95.203125 119.035156 L 98.292969 118.617188 L 101.140625 117.925781 L 103.851562 116.9375 L 108.144531 114.648438 L 116.847656 108.746094 L 119.195312 107.492188 L 121.605469 106.488281 L 123.980469 105.761719 L 126.503906 105.242188 L 129.175781 104.933594 L 132 104.832031 L 135 104.832031 L 137.429688 104.976562 L 139.84375 105.390625 L 142.226562 106.0625 L 144.652344 107.019531 L 147.003906 108.214844 L 149.347656 109.695312 L 151.566406 111.390625 L 153.636719 113.285156 L 155.535156 115.347656 L 157.242188 117.558594 L 158.730469 119.902344 L 159.933594 122.25 L 160.902344 124.671875 L 161.609375 127.15625 L 162.023438 129.570312 L 162.167969 132 L 162.167969 135 L 162.070312 136.90625 L 161.78125 138.617188 L 161.316406 140.140625 L 160.636719 141.566406 L 159.773438 142.808594 L 158.742188 143.875 L 157.476562 144.828125 L 156.046875 145.617188 L 152.648438 146.785156 L 148.398438 147.492188 L 143.324219 147.796875 L 135 147.832031 L 132 147.832031 L 129.570312 147.976562 L 127.15625 148.390625 L 124.671875 149.097656 L 122.25 150.066406 L 119.902344 151.269531 L 117.558594 152.757812 L 115.347656 154.464844 L 113.285156 156.363281 L 111.390625 158.433594 L 109.695312 160.652344 L 108.214844 162.996094 L 107.019531 165.347656 L 106.0625 167.773438 L 105.390625 170.15625 L 104.976562 172.570312 L 104.832031 175 L 104.832031 221 L 104.933594 223.824219 L 105.242188 226.496094 L 105.761719 229.019531 L 106.488281 231.394531 L 107.492188 233.804688 L 108.746094 236.152344 L 114.648438 244.855469 L 116.9375 249.148438 L 117.925781 251.859375 L 118.617188 254.707031 L 119.035156 257.796875 L 119.167969 261 L 119.167969 262.5 M 162.167969 262.5 L 162.167969 261 L 162.035156 257.796875 L 161.617188 254.707031 L 160.925781 251.859375 L 159.9375 249.148438 L 157.648438 244.855469 L 151.746094 236.152344 L 150.492188 233.804688 L 149.488281 231.394531 L 148.761719 229.019531 L 148.242188 226.496094 L 147.933594 223.824219 L 147.832031 221 L 147.832031 218 L 147.796875 209.675781 L 147.492188 204.601562 L 146.785156 200.351562 L 145.617188 196.953125 L 144.828125 195.523438 L 143.875 194.257812 L 142.808594 193.226562 L 141.566406 192.363281 L 140.140625 191.683594 L 138.617188 191.21875 L 136.90625 190.929688 L 135 190.832031 L 132 190.832031 L 129.683594 190.5625 L 127.4375 189.800781 L 125.234375 188.542969 L 123.175781 186.824219 L 121.457031 184.765625 L 120.199219 182.5625 L 119.4375 180.316406 L 119.167969 178 L 119.167969 175 L 119.070312 173.09375 L 118.78125 171.382812 L 118.316406 169.859375 L 117.636719 168.433594 L 116.773438 167.191406 L 115.742188 166.125 L 114.476562 165.171875 L 113.046875 164.382812 L 109.648438 163.214844 L 105.398438 162.507812 L 100.324219 162.203125 L 92 162.167969 L 89 162.167969 L 87.09375 162.070312 L 85.382812 161.78125 L 83.859375 161.316406 L 82.433594 160.636719 L 81.191406 159.773438 L 80.125 158.742188 L 79.171875 157.476562 L 78.382812 156.046875 L 77.214844 152.648438 L 76.507812 148.398438 L 76.203125 143.324219 L 76.167969 135 L 76.167969 132 L 76.203125 123.675781 L 76.507812 118.601562 L 77.214844 114.351562 L 78.382812 110.953125 L 79.171875 109.523438 L 80.125 108.257812 L 81.191406 107.226562 L 82.433594 106.363281 L 83.859375 105.683594 L 85.382812 105.21875 L 87.09375 104.929688 L 89 104.832031 L 92 104.832031 L 94.824219 104.933594 L 97.496094 105.242188 L 100.019531 105.761719 L 102.394531 106.488281 L 104.804688 107.492188 L 107.152344 108.746094 L 115.855469 114.648438 L 120.148438 116.9375 L 122.859375 117.925781 L 125.707031 118.617188 L 128.796875 119.035156 L 132 119.167969 L 135 119.167969 L 136.90625 119.070312 L 138.617188 118.78125 L 140.140625 118.316406 L 141.566406 117.636719 L 142.808594 116.773438 L 143.875 115.742188 L 144.828125 114.476562 L 145.617188 113.046875 L 146.785156 109.648438 L 147.492188 105.398438 L 147.796875 100.324219 L 147.832031 92 L 147.832031 89 L 147.929688 87.09375 L 148.21875 85.382812 L 148.683594 83.859375 L 149.363281 82.433594 L 150.226562 81.191406 L 151.257812 80.125 L 152.523438 79.171875 L 153.953125 78.382812 L 157.351562 77.214844 L 161.601562 76.507812 L 166.675781 76.203125 L 175 76.167969 L 178 76.167969 L 186.324219 76.203125 L 191.398438 76.507812 L 195.648438 77.214844 L 199.046875 78.382812 L 200.476562 79.171875 L 201.742188 80.125 L 202.773438 81.191406 L 203.636719 82.433594 L 204.316406 83.859375 L 204.78125 85.382812 L 205.070312 87.09375 L 205.167969 89 L 205.167969 135 L 205.4375 137.316406 L 206.199219 139.5625 L 207.457031 141.765625 L 209.175781 143.824219 L 211.234375 145.542969 L 213.4375 146.800781 L 215.683594 147.5625 L 218 147.832031 L 221 147.832031 L 222.691406 147.960938 L 224.183594 148.324219 L 225.597656 148.960938 L 226.769531 149.808594 L 227.699219 150.828125 L 228.441406 152.089844 L 228.894531 153.457031 L 229.0625 155 L 228.894531 156.542969 L 228.441406 157.910156 L 227.699219 159.171875 L 226.769531 160.191406 L 225.597656 161.039062 L 224.183594 161.675781 L 222.691406 162.039062 L 221 162.167969 L 218 162.167969 L 215.683594 162.4375 L 213.4375 163.199219 L 211.234375 164.457031 L 209.175781 166.175781 L 207.457031 168.234375 L 206.199219 170.4375 L 205.4375 172.683594 L 205.167969 175 L 205.167969 178 L 205.039062 179.691406 L 204.675781 181.183594 L 204.039062 182.597656 L 203.191406 183.769531 L 202.171875 184.699219 L 200.910156 185.441406 L 199.542969 185.894531 L 198 186.0625 L 196.457031 185.894531 L 195.089844 185.441406 L 193.828125 184.699219 L 192.808594 183.769531 L 191.960938 182.597656 L 191.324219 181.183594 L 190.960938 179.691406 L 190.832031 178 L 190.832031 175 L 190.5625 172.683594 L 189.800781 170.4375 L 188.542969 168.234375 L 186.824219 166.175781 L 184.765625 164.457031 L 182.5625 163.199219 L 180.316406 162.4375 L 178 162.167969 L 175 162.167969 L 173.308594 162.039062 L 171.816406 161.675781 L 170.402344 161.039062 L 169.230469 160.191406 L 168.300781 159.171875 L 167.558594 157.910156 L 167.105469 156.542969 L 166.9375 155 L 167.105469 153.457031 L 167.558594 152.089844 L 168.300781 150.828125 L 169.230469 149.808594 L 170.402344 148.960938 L 171.816406 148.324219 L 173.308594 147.960938 L 175 147.832031 L 178 147.832031 L 180.316406 147.5625 L 182.5625 146.800781 L 184.765625 145.542969 L 186.824219 143.824219 L 188.542969 141.765625 L 189.800781 139.5625 L 190.5625 137.316406 L 190.832031 135 L 190.832031 132 L 190.976562 129.570312 L 191.390625 127.15625 L 192.0625 124.773438 L 193.019531 122.347656 L 194.214844 119.996094 L 195.695312 117.652344 L 197.390625 115.433594 L 199.285156 113.363281 L 201.347656 111.464844 L 203.558594 109.757812 L 205.902344 108.269531 L 208.25 107.066406 L 210.671875 106.097656 L 213.15625 105.390625 L 215.570312 104.976562 L 218 104.832031 L 221 104.832031 L 223.316406 104.5625 L 225.5625 103.800781 L 227.765625 102.542969 L 229.824219 100.824219 L 231.542969 98.765625 L 232.800781 96.5625 L 233.5625 94.316406 L 233.832031 92 L 233.832031 89 L 233.796875 80.675781 L 233.492188 75.601562 L 232.785156 71.351562 L 231.617188 67.953125 L 230.828125 66.523438 L 229.875 65.257812 L 228.808594 64.226562 L 227.566406 63.363281 L 226.140625 62.683594 L 224.617188 62.21875 L 222.90625 61.929688 L 221 61.832031 L 218 61.832031 L 209.675781 61.796875 L 204.601562 61.492188 L 200.351562 60.785156 L 196.953125 59.617188 L 195.523438 58.828125 L 194.257812 57.875 L 193.226562 56.808594 L 192.363281 55.566406 L 191.683594 54.140625 L 191.21875 52.617188 L 190.929688 50.90625 L 190.832031 49 L 190.832031 46 L 190.929688 44.09375 L 191.21875 42.382812 L 191.683594 40.859375 L 192.363281 39.433594 L 193.226562 38.191406 L 194.257812 37.125 L 195.523438 36.171875 L 196.953125 35.382812 L 200.351562 34.214844 L 204.601562 33.507812 L 209.675781 33.203125 L 218 33.167969 L 221 33.167969 L 222.90625 33.070312 L 224.617188 32.78125 L 226.140625 32.316406 L 227.566406 31.636719 L 228.808594 30.773438 L 229.875 29.742188 L 230.828125 28.476562 L 231.617188 27.046875 L 232.785156 23.648438 L 233.492188 19.398438 L 233.796875 14.324219 L 233.832031 6 L 233.832031 4.5 M 190.832031 4.5 L 190.832031 6 L 190.5625 8.316406 L 189.800781 10.5625 L 188.542969 12.765625 L 186.824219 14.824219 L 184.765625 16.542969 L 182.5625 17.800781 L 180.316406 18.5625 L 178 18.832031 L 175 18.832031 L 172.570312 18.976562 L 170.15625 19.390625 L 167.773438 20.0625 L 165.347656 21.019531 L 162.996094 22.214844 L 160.652344 23.695312 L 158.433594 25.390625 L 156.363281 27.285156 L 154.464844 29.347656 L 152.757812 31.558594 L 151.269531 33.902344 L 150.066406 36.25 L 149.097656 38.671875 L 148.390625 41.15625 L 147.976562 43.570312 L 147.832031 46 L 147.832031 49 L 147.933594 51.824219 L 148.242188 54.496094 L 148.761719 57.019531 L 149.488281 59.394531 L 150.492188 61.804688 L 151.746094 64.152344 L 157.648438 72.855469 L 159.9375 77.148438 L 160.925781 79.859375 L 161.617188 82.707031 L 162.035156 85.796875 L 162.167969 89 L 162.167969 92 L 162.203125 100.324219 L 162.507812 105.398438 L 163.214844 109.648438 L 164.382812 113.046875 L 165.171875 114.476562 L 166.125 115.742188 L 167.191406 116.773438 L 168.433594 117.636719 L 169.859375 118.316406 L 171.382812 118.78125 L 173.09375 119.070312 L 175 119.167969 L 178 119.167969 L 179.90625 119.070312 L 181.617188 118.78125 L 183.140625 118.316406 L 184.566406 117.636719 L 185.808594 116.773438 L 186.875 115.742188 L 187.828125 114.476562 L 188.617188 113.046875 L 189.785156 109.648438 L 190.492188 105.398438 L 190.796875 100.324219 L 190.832031 92 L 190.832031 89 L 190.933594 86.175781 L 191.242188 83.503906 L 191.761719 80.980469 L 192.488281 78.605469 L 193.492188 76.195312 L 194.746094 73.847656 L 200.648438 65.144531 L 202.9375 60.851562 L 203.925781 58.140625 L 204.617188 55.292969 L 205.035156 52.203125 L 205.167969 49 L 205.167969 46 L 205.203125 37.675781 L 205.507812 32.601562 L 206.214844 28.351562 L 207.382812 24.953125 L 208.171875 23.523438 L 209.125 22.257812 L 210.191406 21.226562 L 211.433594 20.363281 L 212.859375 19.683594 L 214.382812 19.21875 L 216.09375 18.929688 L 218 18.832031 L 221 18.832031 L 229.324219 18.796875 L 234.398438 18.492188 L 238.648438 17.785156 L 242.046875 16.617188 L 243.476562 15.828125 L 244.742188 14.875 L 245.773438 13.808594 L 246.636719 12.566406 L 247.316406 11.140625 L 247.78125 9.617188 L 248.070312 7.90625 L 248.167969 6 L 248.167969 4.5 M 262.5 248.167969 L 261 248.167969 L 252.675781 248.203125 L 247.601562 248.507812 L 243.351562 249.214844 L 239.953125 250.382812 L 238.523438 251.171875 L 237.257812 252.125 L 236.226562 253.191406 L 235.363281 254.433594 L 234.683594 255.859375 L 234.21875 257.382812 L 233.929688 259.09375 L 233.832031 261 L 233.832031 262.5 M 262.5 190.832031 L 261 190.832031 L 258.570312 190.976562 L 256.15625 191.390625 L 253.671875 192.097656 L 251.25 193.066406 L 248.902344 194.269531 L 246.558594 195.757812 L 244.347656 197.464844 L 242.285156 199.363281 L 240.390625 201.433594 L 238.695312 203.652344 L 237.214844 205.996094 L 236.019531 208.347656 L 235.0625 210.773438 L 234.390625 213.15625 L 233.976562 215.570312 L 233.832031 218 L 233.832031 221 L 233.796875 229.324219 L 233.492188 234.398438 L 232.785156 238.648438 L 231.617188 242.046875 L 230.828125 243.476562 L 229.875 244.742188 L 228.808594 245.773438 L 227.566406 246.636719 L 226.140625 247.316406 L 224.617188 247.78125 L 222.90625 248.070312 L 221 248.167969 L 218 248.167969 L 216.308594 248.039062 L 214.816406 247.675781 L 213.402344 247.039062 L 212.230469 246.191406 L 211.300781 245.171875 L 210.558594 243.910156 L 210.105469 242.542969 L 209.9375 241 L 210.105469 239.457031 L 210.558594 238.089844 L 211.300781 236.828125 L 212.230469 235.808594 L 213.402344 234.960938 L 214.816406 234.324219 L 216.308594 233.960938 L 218 233.832031 L 221 233.832031 L 223.429688 233.976562 L 225.84375 234.390625 L 228.226562 235.0625 L 230.652344 236.019531 L 233.003906 237.214844 L 235.347656 238.695312 L 237.566406 240.390625 L 239.636719 242.285156 L 241.535156 244.347656 L 243.242188 246.558594 L 244.730469 248.902344 L 245.933594 251.25 L 246.902344 253.671875 L 247.609375 256.15625 L 248.023438 258.570312 L 248.167969 261 L 248.167969 262.5 M 262.5 18.832031 L 261 18.832031 L 259.09375 18.929688 L 257.382812 19.21875 L 255.859375 19.683594 L 254.433594 20.363281 L 253.191406 21.226562 L 252.125 22.257812 L 251.171875 23.523438 L 250.382812 24.953125 L 249.214844 28.351562 L 248.507812 32.601562 L 248.203125 37.675781 L 248.167969 46 L 248.167969 49 L 248.203125 57.324219 L 248.507812 62.398438 L 249.214844 66.648438 L 250.382812 70.046875 L 251.171875 71.476562 L 252.125 72.742188 L 253.191406 73.773438 L 254.433594 74.636719 L 255.859375 75.316406 L 257.382812 75.78125 L 259.09375 76.070312 L 261 76.167969 L 262.5 76.167969 M 262.5 61.832031 L 261 61.832031 L 259.09375 61.929688 L 257.382812 62.21875 L 255.859375 62.683594 L 254.433594 63.363281 L 253.191406 64.226562 L 252.125 65.257812 L 251.171875 66.523438 L 250.382812 67.953125 L 249.214844 71.351562 L 248.507812 75.601562 L 248.203125 80.675781 L 248.167969 89 L 248.167969 92 L 248.4375 94.316406 L 249.199219 96.5625 L 250.457031 98.765625 L 252.175781 100.824219 L 254.234375 102.542969 L 256.4375 103.800781 L 258.683594 104.5625 L 261 104.832031 L 262.5 104.832031 M 262.5 147.832031 L 261 147.832031 L 258.570312 147.976562 L 256.15625 148.390625 L 253.671875 149.097656 L 251.25 150.066406 L 248.902344 151.269531 L 246.558594 152.757812 L 244.347656 154.464844 L 242.285156 156.363281 L 240.390625 158.433594 L 238.695312 160.652344 L 237.214844 162.996094 L 236.019531 165.347656 L 235.0625 167.773438 L 234.390625 170.15625 L 233.976562 172.570312 L 233.832031 175 L 233.832031 178 L 233.976562 180.429688 L 234.390625 182.84375 L 235.097656 185.328125 L 236.066406 187.75 L 237.269531 190.097656 L 238.757812 192.441406 L 240.464844 194.652344 L 242.363281 196.714844 L 244.433594 198.609375 L 246.652344 200.304688 L 248.996094 201.785156 L 251.347656 202.980469 L 253.773438 203.9375 L 256.15625 204.609375 L 258.570312 205.023438 L 261 205.167969 L 262.5 205.167969 M 262.5 162.167969 L 261 162.167969 L 258.683594 162.4375 L 256.4375 163.199219 L 254.234375 164.457031 L 252.175781 166.175781 L 250.457031 168.234375 L 249.199219 170.4375 L 248.4375 172.683594 L 248.167969 175 L 248.167969 221 L 248.4375 223.316406 L 249.199219 225.5625 L 250.457031 227.765625 L 252.175781 229.824219 L 254.234375 231.542969 L 256.4375 232.800781 L 258.683594 233.5625 L 261 233.832031 L 262.5 233.832031 M 233.832031 132 L 233.960938 130.308594 L 234.324219 128.816406 L 234.960938 127.402344 L 235.808594 126.230469 L 236.828125 125.300781 L 238.089844 124.558594 L 239.457031 124.105469 L 241 123.9375 L 242.542969 124.105469 L 243.910156 124.558594 L 245.171875 125.300781 L 246.191406 126.230469 L 247.039062 127.402344 L 247.675781 128.816406 L 248.039062 130.308594 L 248.167969 132 L 248.167969 135 L 248.039062 136.691406 L 247.675781 138.183594 L 247.039062 139.597656 L 246.191406 140.769531 L 245.171875 141.699219 L 243.910156 142.441406 L 242.542969 142.894531 L 241 143.0625 L 239.457031 142.894531 L 238.089844 142.441406 L 236.828125 141.699219 L 235.808594 140.769531 L 234.960938 139.597656 L 234.324219 138.183594 L 233.960938 136.691406 L 233.832031 135 L 233.832031 132 M 11.667969 266.898438 L 10.066406 271.101562 M 11.667969 266.898438 L 13.265625 271.101562 M 10.667969 269.699219 L 12.667969 269.699219 M 24.699219 266.898438 L 24.699219 271.101562 M 24.699219 266.898438 L 26.5 266.898438 L 27.101562 267.101562 L 27.300781 267.300781 L 27.5 267.699219 L 27.5 268.101562 L 27.300781 268.5 L 27.101562 268.699219 L 26.5 268.898438 M 24.699219 268.898438 L 26.5 268.898438 L 27.101562 269.101562 L 27.300781 269.300781 L 27.5 269.699219 L 27.5 270.300781 L 27.300781 270.699219 L 27.101562 270.898438 L 26.5 271.101562 L 24.699219 271.101562 M 41.832031 267.898438 L 41.632812 267.5 L 41.234375 267.101562 L 40.832031 266.898438 L 40.035156 266.898438 L 39.632812 267.101562 L 39.234375 267.5 L 39.035156 267.898438 L 38.832031 268.5 L 38.832031 269.5 L 39.035156 270.101562 L 39.234375 270.5 L 39.632812 270.898438 L 40.035156 271.101562 L 40.832031 271.101562 L 41.234375 270.898438 L 41.632812 270.5 L 41.832031 270.101562 M 53.367188 266.898438 L 53.367188 271.101562 M 53.367188 266.898438 L 54.765625 266.898438 L 55.367188 267.101562 L 55.765625 267.5 L 55.964844 267.898438 L 56.167969 268.5 L 56.167969 269.5 L 55.964844 270.101562 L 55.765625 270.5 L 55.367188 270.898438 L 54.765625 271.101562 L 53.367188 271.101562 M 67.898438 266.898438 L 67.898438 271.101562 M 67.898438 266.898438 L 70.5 266.898438 M 67.898438 268.898438 L 69.5 268.898438 M 67.898438 271.101562 L 70.5 271.101562 M 82.332031 266.898438 L 82.332031 271.101562 M 82.332031 266.898438 L 84.933594 266.898438 M 82.332031 268.898438 L 83.933594 268.898438 M 99.167969 267.898438 L 98.964844 267.5 L 98.566406 267.101562 L 98.167969 266.898438 L 97.367188 266.898438 L 96.964844 267.101562 L 96.566406 267.5 L 96.367188 267.898438 L 96.167969 268.5 L 96.167969 269.5 L 96.367188 270.101562 L 96.566406 270.5 L 96.964844 270.898438 L 97.367188 271.101562 L 98.167969 271.101562 L 98.566406 270.898438 L 98.964844 270.5 L 99.167969 270.101562 L 99.167969 269.5 M 98.167969 269.5 L 99.167969 269.5 M 110.601562 266.898438 L 110.601562 271.101562 M 113.398438 266.898438 L 113.398438 271.101562 M 110.601562 268.898438 L 113.398438 268.898438 M 126.332031 266.898438 L 126.332031 271.101562 M 141.464844 266.898438 L 141.464844 270.101562 L 141.265625 270.699219 L 141.066406 270.898438 L 140.667969 271.101562 L 140.265625 271.101562 L 139.867188 270.898438 L 139.667969 270.699219 L 139.464844 270.101562 L 139.464844 269.699219 M 153.699219 266.898438 L 153.699219 271.101562 M 156.5 266.898438 L 153.699219 269.699219 M 154.699219 268.699219 L 156.5 271.101562 M 168.433594 266.898438 L 168.433594 271.101562 M 168.433594 271.101562 L 170.832031 271.101562 M 182.066406 266.898438 L 182.066406 271.101562 M 182.066406 266.898438 L 183.667969 271.101562 M 185.265625 266.898438 L 183.667969 271.101562 M 185.265625 266.898438 L 185.265625 271.101562 M 196.601562 266.898438 L 196.601562 271.101562 M 196.601562 266.898438 L 199.398438 271.101562 M 199.398438 266.898438 L 199.398438 271.101562 M 211.933594 266.898438 L 211.535156 267.101562 L 211.132812 267.5 L 210.933594 267.898438 L 210.734375 268.5 L 210.734375 269.5 L 210.933594 270.101562 L 211.132812 270.5 L 211.535156 270.898438 L 211.933594 271.101562 L 212.734375 271.101562 L 213.132812 270.898438 L 213.535156 270.5 L 213.734375 270.101562 L 213.933594 269.5 L 213.933594 268.5 L 213.734375 267.898438 L 213.535156 267.5 L 213.132812 267.101562 L 212.734375 266.898438 L 211.933594 266.898438 M 225.367188 266.898438 L 225.367188 271.101562 M 225.367188 266.898438 L 227.167969 266.898438 L 227.765625 267.101562 L 227.964844 267.300781 L 228.167969 267.699219 L 228.167969 268.300781 L 227.964844 268.699219 L 227.765625 268.898438 L 227.167969 269.101562 L 225.367188 269.101562 M 240.601562 266.898438 L 240.199219 267.101562 L 239.800781 267.5 L 239.601562 267.898438 L 239.398438 268.5 L 239.398438 269.5 L 239.601562 270.101562 L 239.800781 270.5 L 240.199219 270.898438 L 240.601562 271.101562 L 241.398438 271.101562 L 241.800781 270.898438 L 242.199219 270.5 L 242.398438 270.101562 L 242.601562 269.5 L 242.601562 268.5 L 242.398438 267.898438 L 242.199219 267.5 L 241.800781 267.101562 L 241.398438 266.898438 L 240.601562 266.898438 M 241.199219 270.300781 L 242.398438 271.5 M 254.035156 266.898438 L 254.035156 271.101562 M 254.035156 266.898438 L 255.832031 266.898438 L 256.433594 267.101562 L 256.632812 267.300781 L 256.832031 267.699219 L 256.832031 268.101562 L 256.632812 268.5 L 256.433594 268.699219 L 255.832031 268.898438 L 254.035156 268.898438 M 255.433594 268.898438 L 256.832031 271.101562 M 585.5 106.5 L 584.5 104.5 L 582.5 102.5 L 580.5 101.5 L 576.5 101.5 L 574.5 102.5 L 572.5 104.5 L 571.5 106.5 L 570.5 109.5 L 570.5 114.5 L 571.5 117.5 L 572.5 119.5 L 574.5 121.5 L 576.5 122.5 L 580.5 122.5 L 582.5 121.5 L 584.5 119.5 L 585.5 117.5 M 585.5 106.5 L 584.5 104.5 L 582.5 102.5 L 580.5 101.5 L 576.5 101.5 L 574.5 102.5 L 572.5 104.5 L 571.5 106.5 L 570.5 109.5 L 570.5 114.5 L 571.5 117.5 L 572.5 119.5 L 574.5 121.5 L 576.5 122.5 L 580.5 122.5 L 582.5 121.5 L 584.5 119.5 L 585.5 117.5 M 603.5 108.5 L 603.5 122.5 M 603.5 111.5 L 601.5 109.5 L 599.5 108.5 L 596.5 108.5 L 594.5 109.5 L 592.5 111.5 L 591.5 114.5 L 591.5 116.5 L 592.5 119.5 L 594.5 121.5 L 596.5 122.5 L 599.5 122.5 L 601.5 121.5 L 603.5 119.5 M 603.5 111.5 L 601.5 109.5 L 599.5 108.5 L 596.5 108.5 L 594.5 109.5 L 592.5 111.5 L 591.5 114.5 L 591.5 116.5 L 592.5 119.5 L 594.5 121.5 L 596.5 122.5 L 599.5 122.5 L 601.5 121.5 L 603.5 119.5 M 611.5 108.5 L 611.5 122.5 M 611.5 112.5 L 614.5 109.5 L 616.5 108.5 L 619.5 108.5 L 621.5 109.5 L 622.5 112.5 L 622.5 122.5 M 622.5 112.5 L 625.5 109.5 L 627.5 108.5 L 630.5 108.5 L 632.5 109.5 L 633.5 112.5 L 633.5 122.5 M 622.5 112.5 L 625.5 109.5 L 627.5 108.5 L 630.5 108.5 L 632.5 109.5 L 633.5 112.5 L 633.5 122.5 M 640.5 101.5 L 641.5 102.5 L 642.5 101.5 L 641.5 100.5 L 640.5 101.5 M 641.5 108.5 L 641.5 122.5 M 641.5 108.5 L 641.5 122.5 M 649.5 108.5 L 649.5 122.5 M 649.5 112.5 L 652.5 109.5 L 654.5 108.5 L 657.5 108.5 L 659.5 109.5 L 660.5 112.5 L 660.5 122.5 M 649.5 112.5 L 652.5 109.5 L 654.5 108.5 L 657.5 108.5 L 659.5 109.5 L 660.5 112.5 L 660.5 122.5 M 668.5 101.5 L 668.5 122.5 M 668.5 112.5 L 671.5 109.5 L 673.5 108.5 L 676.5 108.5 L 678.5 109.5 L 679.5 112.5 L 679.5 122.5 M 668.5 112.5 L 671.5 109.5 L 673.5 108.5 L 676.5 108.5 L 678.5 109.5 L 679.5 112.5 L 679.5 122.5 M 691.5 108.5 L 689.5 109.5 L 687.5 111.5 L 686.5 114.5 L 686.5 116.5 L 687.5 119.5 L 689.5 121.5 L 691.5 122.5 L 694.5 122.5 L 696.5 121.5 L 698.5 119.5 L 699.5 116.5 L 699.5 114.5 L 698.5 111.5 L 696.5 109.5 L 694.5 108.5 L 691.5 108.5 M 691.5 108.5 L 689.5 109.5 L 687.5 111.5 L 686.5 114.5 L 686.5 116.5 L 687.5 119.5 L 689.5 121.5 L 691.5 122.5 L 694.5 122.5 L 696.5 121.5 L 698.5 119.5 L 699.5 116.5 L 699.5 114.5 L 698.5 111.5 L 696.5 109.5 L 694.5 108.5 L 691.5 108.5 M 716.5 111.5 L 715.5 109.5 L 712.5 108.5 L 709.5 108.5 L 706.5 109.5 L 705.5 111.5 L 706.5 113.5 L 708.5 114.5 L 713.5 115.5 L 715.5 116.5 L 716.5 118.5 L 716.5 119.5 L 715.5 121.5 L 712.5 122.5 L 709.5 122.5 L 706.5 121.5 L 705.5 119.5 M 716.5 111.5 L 715.5 109.5 L 712.5 108.5 L 709.5 108.5 L 706.5 109.5 L 705.5 111.5 L 706.5 113.5 L 708.5 114.5 L 713.5 115.5 L 715.5 116.5 L 716.5 118.5 L 716.5 119.5 L 715.5 121.5 L 712.5 122.5 L 709.5 122.5 L 706.5 121.5 L 705.5 119.5 M 716.5 111.5 L 715.5 109.5 L 712.5 108.5 L 709.5 108.5 L 706.5 109.5 L 705.5 111.5 L 706.5 113.5 L 708.5 114.5 L 713.5 115.5 L 715.5 116.5 L 716.5 118.5 L 716.5 119.5 L 715.5 121.5 L 712.5 122.5 L 709.5 122.5 L 706.5 121.5 L 705.5 119.5 M 716.5 111.5 L 715.5 109.5 L 712.5 108.5 L 709.5 108.5 L 706.5 109.5 L 705.5 111.5 L 706.5 113.5 L 708.5 114.5 L 713.5 115.5 L 715.5 116.5 L 716.5 118.5 L 716.5 119.5 L 715.5 121.5 L 712.5 122.5 L 709.5 122.5 L 706.5 121.5 L 705.5 119.5 M 633.5 157.5 L 633.5 178.5 M 633.5 157.5 L 641.5 178.5 M 649.5 157.5 L 641.5 178.5 M 649.5 157.5 L 649.5 178.5 M 649.5 157.5 L 649.5 178.5 M 668.5 164.5 L 668.5 178.5 M 668.5 167.5 L 666.5 165.5 L 664.5 164.5 L 661.5 164.5 L 659.5 165.5 L 657.5 167.5 L 656.5 170.5 L 656.5 172.5 L 657.5 175.5 L 659.5 177.5 L 661.5 178.5 L 664.5 178.5 L 666.5 177.5 L 668.5 175.5 M 668.5 167.5 L 666.5 165.5 L 664.5 164.5 L 661.5 164.5 L 659.5 165.5 L 657.5 167.5 L 656.5 170.5 L 656.5 172.5 L 657.5 175.5 L 659.5 177.5 L 661.5 178.5 L 664.5 178.5 L 666.5 177.5 L 668.5 175.5 M 676.5 157.5 L 676.5 178.5 M 676.5 157.5 L 676.5 178.5 M 684.5 164.5 L 684.5 174.5 L 685.5 177.5 L 687.5 178.5 L 690.5 178.5 L 692.5 177.5 L 695.5 174.5 M 695.5 164.5 L 695.5 178.5 M 695.5 164.5 L 695.5 178.5 M 714.5 167.5 L 712.5 165.5 L 710.5 164.5 L 707.5 164.5 L 705.5 165.5 L 703.5 167.5 L 702.5 170.5 L 702.5 172.5 L 703.5 175.5 L 705.5 177.5 L 707.5 178.5 L 710.5 178.5 L 712.5 177.5 L 714.5 175.5 M 714.5 167.5 L 712.5 165.5 L 710.5 164.5 L 707.5 164.5 L 705.5 165.5 L 703.5 167.5 L 702.5 170.5 L 702.5 172.5 L 703.5 175.5 L 705.5 177.5 L 707.5 178.5 L 710.5 178.5 L 712.5 177.5 L 714.5 175.5 M 725.5 164.5 L 723.5 165.5 L 721.5 167.5 L 720.5 170.5 L 720.5 172.5 L 721.5 175.5 L 723.5 177.5 L 725.5 178.5 L 728.5 178.5 L 730.5 177.5 L 732.5 175.5 L 733.5 172.5 L 733.5 170.5 L 732.5 167.5 L 730.5 165.5 L 728.5 164.5 L 725.5 164.5 M 725.5 164.5 L 723.5 165.5 L 721.5 167.5 L 720.5 170.5 L 720.5 172.5 L 721.5 175.5 L 723.5 177.5 L 725.5 178.5 L 728.5 178.5 L 730.5 177.5 L 732.5 175.5 L 733.5 172.5 L 733.5 170.5 L 732.5 167.5 L 730.5 165.5 L 728.5 164.5 L 725.5 164.5 M 750.5 167.5 L 749.5 165.5 L 746.5 164.5 L 743.5 164.5 L 740.5 165.5 L 739.5 167.5 L 740.5 169.5 L 742.5 170.5 L 747.5 171.5 L 749.5 172.5 L 750.5 174.5 L 750.5 175.5 L 749.5 177.5 L 746.5 178.5 L 743.5 178.5 L 740.5 177.5 L 739.5 175.5 M 707.199219 269.800781 L 707.199219 274 M 705.800781 269.800781 L 708.601562 269.800781 M 705.800781 269.800781 L 708.601562 269.800781 M 709.398438 269.800781 L 709.601562 270 L 709.800781 269.800781 L 709.601562 269.601562 L 709.398438 269.800781 M 709.601562 271.199219 L 709.601562 274 M 709.601562 271.199219 L 709.601562 274 M 712 271.199219 L 711.601562 271.398438 L 711.199219 271.800781 L 711 272.398438 L 711 272.800781 L 711.199219 273.398438 L 711.601562 273.800781 L 712 274 L 712.601562 274 L 713 273.800781 L 713.398438 273.398438 L 713.601562 272.800781 L 713.601562 272.398438 L 713.398438 271.800781 L 713 271.398438 L 712.601562 271.199219 L 712 271.199219 M 712 271.199219 L 711.601562 271.398438 L 711.199219 271.800781 L 711 272.398438 L 711 272.800781 L 711.199219 273.398438 L 711.601562 273.800781 L 712 274 L 712.601562 274 L 713 273.800781 L 713.398438 273.398438 L 713.601562 272.800781 L 713.601562 272.398438 L 713.398438 271.800781 L 713 271.398438 L 712.601562 271.199219 L 712 271.199219 M 712 271.199219 L 711.601562 271.398438 L 711.199219 271.800781 L 711 272.398438 L 711 272.800781 L 711.199219 273.398438 L 711.601562 273.800781 L 712 274 L 712.601562 274 L 713 273.800781 L 713.398438 273.398438 L 713.601562 272.800781 L 713.601562 272.398438 L 713.398438 271.800781 L 713 271.398438 L 712.601562 271.199219 L 712 271.199219 M 718.199219 269.800781 L 718.199219 274 M 718.199219 269.800781 L 720 269.800781 L 720.601562 270 L 720.800781 270.199219 L 721 270.601562 L 721 271.199219 L 720.800781 271.601562 L 720.601562 271.800781 L 720 272 L 718.199219 272 M 718.199219 269.800781 L 720 269.800781 L 720.601562 270 L 720.800781 270.199219 L 721 270.601562 L 721 271.199219 L 720.800781 271.601562 L 720.601562 271.800781 L 720 272 L 718.199219 272 M 724.601562 271.199219 L 724.601562 274 M 724.601562 271.800781 L 724.199219 271.398438 L 723.800781 271.199219 L 723.199219 271.199219 L 722.800781 271.398438 L 722.398438 271.800781 L 722.199219 272.398438 L 722.199219 272.800781 L 722.398438 273.398438 L 722.800781 273.800781 L 723.199219 274 L 723.800781 274 L 724.199219 273.800781 L 724.601562 273.398438 M 724.601562 271.800781 L 724.199219 271.398438 L 723.800781 271.199219 L 723.199219 271.199219 L 722.800781 271.398438 L 722.398438 271.800781 L 722.199219 272.398438 L 722.199219 272.800781 L 722.398438 273.398438 L 722.800781 273.800781 L 723.199219 274 L 723.800781 274 L 724.199219 273.800781 L 724.601562 273.398438 M 726.199219 271.199219 L 726.199219 273.199219 L 726.398438 273.800781 L 726.800781 274 L 727.398438 274 L 727.800781 273.800781 L 728.398438 273.199219 M 728.398438 271.199219 L 728.398438 274 M 728.398438 271.199219 L 728.398438 274 M 730 269.800781 L 730 274 M 730 269.800781 L 730 274 M 732.398438 271.199219 L 732 271.398438 L 731.601562 271.800781 L 731.398438 272.398438 L 731.398438 272.800781 L 731.601562 273.398438 L 732 273.800781 L 732.398438 274 L 733 274 L 733.398438 273.800781 L 733.800781 273.398438 L 734 272.800781 L 734 272.398438 L 733.800781 271.800781 L 733.398438 271.398438 L 733 271.199219 L 732.398438 271.199219 M 732.398438 271.199219 L 732 271.398438 L 731.601562 271.800781 L 731.398438 272.398438 L 731.398438 272.800781 L 731.601562 273.398438 L 732 273.800781 L 732.398438 274 L 733 274 L 733.398438 273.800781 L 733.800781 273.398438 L 734 272.800781 L 734 272.398438 L 733.800781 271.800781 L 733.398438 271.398438 L 733 271.199219 L 732.398438 271.199219 M 732.398438 271.199219 L 732 271.398438 L 731.601562 271.800781 L 731.398438 272.398438 L 731.398438 272.800781 L 731.601562 273.398438 L 732 273.800781 L 732.398438 274 L 733 274 L 733.398438 273.800781 L 733.800781 273.398438 L 734 272.800781 L 734 272.398438 L 733.800781 271.800781 L 733.398438 271.398438 L 733 271.199219 L 732.398438 271.199219 M 738.601562 272.199219 L 742.199219 272.199219 M 738.601562 272.199219 L 742.199219 272.199219 M 738.601562 272.199219 L 742.199219 272.199219 M 748.601562 269.800781 L 748.601562 273 L 748.398438 273.601562 L 748.199219 273.800781 L 747.800781 274 L 747.398438 274 L 747 273.800781 L 746.800781 273.601562 L 746.601562 273 L 746.601562 272.601562 M 748.601562 269.800781 L 748.601562 273 L 748.398438 273.601562 L 748.199219 273.800781 L 747.800781 274 L 747.398438 274 L 747 273.800781 L 746.800781 273.601562 L 746.601562 273 L 746.601562 272.601562 M 750.199219 271.199219 L 750.199219 273.199219 L 750.398438 273.800781 L 750.800781 274 L 751.398438 274 L 751.800781 273.800781 L 752.398438 273.199219 M 752.398438 271.199219 L 752.398438 274 M 752.398438 271.199219 L 752.398438 274 M 754 271.199219 L 754 274 M 754 272 L 754.601562 271.398438 L 755 271.199219 L 755.601562 271.199219 L 756 271.398438 L 756.199219 272 L 756.199219 274 M 754 272 L 754.601562 271.398438 L 755 271.199219 L 755.601562 271.199219 L 756 271.398438 L 756.199219 272 L 756.199219 274 M 757.800781 269.800781 L 757.800781 274 M 757.800781 272 L 758.398438 271.398438 L 758.800781 271.199219 L 759.398438 271.199219 L 759.800781 271.398438 L 760 272 L 760 274 M 757.800781 272 L 758.398438 271.398438 L 758.800781 271.199219 L 759.398438 271.199219 L 759.800781 271.398438 L 760 272 L 760 274 M 762.398438 271.199219 L 762 271.398438 L 761.601562 271.800781 L 761.398438 272.398438 L 761.398438 272.800781 L 761.601562 273.398438 L 762 273.800781 L 762.398438 274 L 763 274 L 763.398438 273.800781 L 763.800781 273.398438 L 764 272.800781 L 764 272.398438 L 763.800781 271.800781 L 763.398438 271.398438 L 763 271.199219 L 762.398438 271.199219 M 762.398438 271.199219 L 762 271.398438 L 761.601562 271.800781 L 761.398438 272.398438 L 761.398438 272.800781 L 761.601562 273.398438 L 762 273.800781 L 762.398438 274 L 763 274 L 763.398438 273.800781 L 763.800781 273.398438 L 764 272.800781 L 764 272.398438 L 763.800781 271.800781 L 763.398438 271.398438 L 763 271.199219 L 762.398438 271.199219 M 768.601562 269 L 765 275.398438 M 768.601562 269 L 765 275.398438 M 769.800781 270.800781 L 769.800781 270.601562 L 770 270.199219 L 770.199219 270 L 770.601562 269.800781 L 771.398438 269.800781 L 771.800781 270 L 772 270.199219 L 772.199219 270.601562 L 772.199219 271 L 772 271.398438 L 771.601562 272 L 769.601562 274 L 772.398438 274 M 769.800781 270.800781 L 769.800781 270.601562 L 770 270.199219 L 770.199219 270 L 770.601562 269.800781 L 771.398438 269.800781 L 771.800781 270 L 772 270.199219 L 772.199219 270.601562 L 772.199219 271 L 772 271.398438 L 771.601562 272 L 769.601562 274 L 772.398438 274 M 774.800781 269.800781 L 774.199219 270 L 773.800781 270.601562 L 773.601562 271.601562 L 773.601562 272.199219 L 773.800781 273.199219 L 774.199219 273.800781 L 774.800781 274 L 775.199219 274 L 775.800781 273.800781 L 776.199219 273.199219 L 776.398438 272.199219 L 776.398438 271.601562 L 776.199219 270.601562 L 775.800781 270 L 775.199219 269.800781 L 774.800781 269.800781 M 774.800781 269.800781 L 774.199219 270 L 773.800781 270.601562 L 773.601562 271.601562 L 773.601562 272.199219 L 773.800781 273.199219 L 774.199219 273.800781 L 774.800781 274 L 775.199219 274 L 775.800781 273.800781 L 776.199219 273.199219 L 776.398438 272.199219 L 776.398438 271.601562 L 776.199219 270.601562 L 775.800781 270 L 775.199219 269.800781 L 774.800781 269.800781 M 778.199219 270.601562 L 778.601562 270.398438 L 779.199219 269.800781 L 779.199219 274 M 778.199219 270.601562 L 778.601562 270.398438 L 779.199219 269.800781 L 779.199219 274 M 784.199219 271.199219 L 784 271.800781 L 783.601562 272.199219 L 783 272.398438 L 782.800781 272.398438 L 782.199219 272.199219 L 781.800781 271.800781 L 781.601562 271.199219 L 781.601562 271 L 781.800781 270.398438 L 782.199219 270 L 782.800781 269.800781 L 783 269.800781 L 783.601562 270 L 784 270.398438 L 784.199219 271.199219 L 784.199219 272.199219 L 784 273.199219 L 783.601562 273.800781 L 783 274 L 782.601562 274 L 782 273.800781 L 781.800781 273.398438 "/>
</svg>
