<?xml version="1.0" encoding="UTF-8"?>
<svg xmlns="http://www.w3.org/2000/svg" xmlns:xlink="http://www.w3.org/1999/xlink" width="267mm" height="280mm" viewBox="0 0 267 280">
<path fill-rule="nonzero" fill="rgb(82%, 71%, 55%)" fill-opacity="1" d="M 0.00390625 270.003906 L 0.148438 269.996094 L 0.429688 269.96875 L 0.710938 269.914062 L 0.984375 269.832031 L 1.25 269.726562 L 1.503906 269.597656 L 1.742188 269.441406 L 1.964844 269.265625 L 2.171875 269.070312 L 2.359375 268.851562 L 2.523438 268.621094 L 2.667969 268.375 L 2.785156 268.113281 L 2.878906 267.84375 L 2.945312 267.566406 L 2.988281 267.285156 L 3 267 L 3 7.882812 L 3.003906 7.8125 L 3.003906 7.785156 L 3.007812 7.714844 L 3.011719 7.683594 L 3.015625 7.613281 L 3.019531 7.582031 L 3.023438 7.511719 L 3.027344 7.480469 L 3.035156 7.414062 L 3.039062 7.382812 L 3.046875 7.3125 L 3.050781 7.28125 L 3.0625 7.210938 L 3.066406 7.183594 L 3.078125 7.113281 L 3.085938 7.082031 L 3.097656 7.015625 L 3.105469 6.984375 L 3.117188 6.917969 L 3.125 6.886719 L 3.140625 6.816406 L 3.148438 6.789062 L 3.167969 6.71875 L 3.175781 6.691406 L 3.191406 6.625 L 3.203125 6.59375 L 3.222656 6.527344 L 3.230469 6.5 L 3.253906 6.429688 L 3.261719 6.402344 L 3.285156 6.335938 L 3.296875 6.308594 L 3.320312 6.242188 L 3.332031 6.214844 L 3.355469 6.148438 L 3.367188 6.121094 L 3.394531 6.054688 L 3.40625 6.027344 L 3.433594 5.960938 L 3.445312 5.933594 L 3.476562 5.871094 L 3.488281 5.84375 L 3.519531 5.78125 L 3.535156 5.753906 L 3.566406 5.691406 L 3.578125 5.664062 L 3.613281 5.601562 L 3.628906 5.574219 L 3.664062 5.511719 L 3.675781 5.488281 L 3.714844 5.425781 L 3.730469 5.402344 L 3.765625 5.339844 L 3.78125 5.316406 L 3.820312 5.253906 L 3.875 5.171875 L 3.894531 5.148438 L 3.933594 5.089844 L 3.953125 5.066406 L 3.992188 5.007812 L 4.011719 4.984375 L 4.054688 4.929688 L 4.074219 4.90625 L 4.117188 4.847656 L 4.136719 4.824219 L 4.183594 4.773438 L 4.203125 4.75 L 4.246094 4.695312 L 4.265625 4.671875 L 4.316406 4.621094 L 4.335938 4.597656 L 4.382812 4.546875 L 4.40625 4.527344 L 4.453125 4.476562 L 4.476562 4.453125 L 4.527344 4.40625 L 4.546875 4.382812 L 4.597656 4.335938 L 4.621094 4.316406 L 4.671875 4.265625 L 4.695312 4.246094 L 4.75 4.203125 L 4.773438 4.183594 L 4.824219 4.136719 L 4.847656 4.117188 L 4.90625 4.074219 L 4.929688 4.054688 L 4.984375 4.011719 L 5.007812 3.992188 L 5.066406 3.953125 L 5.089844 3.933594 L 5.148438 3.894531 L 5.171875 3.875 L 5.253906 3.820312 L 5.316406 3.78125 L 5.339844 3.765625 L 5.402344 3.730469 L 5.425781 3.714844 L 5.488281 3.675781 L 5.511719 3.664062 L 5.574219 3.628906 L 5.601562 3.613281 L 5.664062 3.578125 L 5.691406 3.566406 L 5.753906 3.535156 L 5.78125 3.519531 L 5.84375 3.488281 L 5.871094 3.476562 L 5.933594 3.445312 L 5.960938 3.433594 L 6.027344 3.40625 L 6.054688 3.394531 L 6.121094 3.367188 L 6.148438 3.355469 L 6.214844 3.332031 L 6.242188 3.320312 L 6.308594 3.296875 L 6.335938 3.285156 L 6.402344 3.261719 L 6.429688 3.253906 L 6.5 3.230469 L 6.527344 3.222656 L 6.59375 3.203125 L 6.625 3.191406 L 6.691406 3.175781 L 6.71875 3.167969 L 6.789062 3.148438 L 6.816406 3.140625 L 6.886719 3.125 L 6.917969 3.117188 L 6.984375 3.105469 L 7.015625 3.097656 L 7.082031 3.085938 L 7.113281 3.078125 L 7.183594 3.066406 L 7.210938 3.0625 L 7.28125 3.050781 L 7.3125 3.046875 L 7.382812 3.039062 L 7.414062 3.035156 L 7.480469 3.027344 L 7.511719 3.023438 L 7.582031 3.019531 L 7.613281 3.015625 L 7.683594 3.011719 L 7.714844 3.007812 L 7.785156 3.003906 L 7.8125 3.003906 L 7.882812 3 L 259.117188 3 L 259.1875 3.003906 L 259.214844 3.003906 L 259.285156 3.007812 L 259.316406 3.011719 L 259.386719 3.015625 L 259.417969 3.019531 L 259.488281 3.023438 L 259.519531 3.027344 L 259.585938 3.035156 L 259.617188 3.039062 L 259.6875 3.046875 L 259.71875 3.050781 L 259.789062 3.0625 L 259.816406 3.066406 L 259.886719 3.078125 L 259.917969 3.085938 L 259.984375 3.097656 L 260.015625 3.105469 L 260.082031 3.117188 L 260.113281 3.125 L 260.183594 3.140625 L 260.210938 3.148438 L 260.28125 3.167969 L 260.308594 3.175781 L 260.375 3.191406 L 260.40625 3.203125 L 260.472656 3.222656 L 260.5 3.230469 L 260.570312 3.253906 L 260.597656 3.261719 L 260.664062 3.285156 L 260.691406 3.296875 L 260.757812 3.320312 L 260.785156 3.332031 L 260.851562 3.355469 L 260.878906 3.367188 L 260.945312 3.394531 L 260.972656 3.40625 L 261.039062 3.433594 L 261.066406 3.445312 L 261.128906 3.476562 L 261.15625 3.488281 L 261.21875 3.519531 L 261.246094 3.535156 L 261.308594 3.566406 L 261.335938 3.578125 L 261.398438 3.613281 L 261.425781 3.628906 L 261.488281 3.664062 L 261.511719 3.675781 L 261.574219 3.714844 L 261.597656 3.730469 L 261.660156 3.765625 L 261.683594 3.78125 L 261.746094 3.820312 L 261.828125 3.875 L 261.851562 3.894531 L 261.910156 3.933594 L 261.933594 3.953125 L 261.992188 3.992188 L 262.015625 4.011719 L 262.070312 4.054688 L 262.09375 4.074219 L 262.152344 4.117188 L 262.175781 4.136719 L 262.226562 4.183594 L 262.25 4.203125 L 262.304688 4.246094 L 262.328125 4.265625 L 262.378906 4.316406 L 262.402344 4.335938 L 262.453125 4.382812 L 262.472656 4.40625 L 262.523438 4.453125 L 262.546875 4.476562 L 262.59375 4.527344 L 262.617188 4.546875 L 262.664062 4.597656 L 262.683594 4.621094 L 262.734375 4.671875 L 262.753906 4.695312 L 262.796875 4.75 L 262.816406 4.773438 L 262.863281 4.824219 L 262.882812 4.847656 L 262.925781 4.90625 L 262.945312 4.929688 L 262.988281 4.984375 L 263.007812 5.007812 L 263.046875 5.066406 L 263.066406 5.089844 L 263.105469 5.148438 L 263.125 5.171875 L 263.179688 5.253906 L 263.21875 5.316406 L 263.234375 5.339844 L 263.269531 5.402344 L 263.285156 5.425781 L 263.324219 5.488281 L 263.335938 5.511719 L 263.371094 5.574219 L 263.386719 5.601562 L 263.421875 5.664062 L 263.433594 5.691406 L 263.464844 5.753906 L 263.480469 5.78125 L 263.511719 5.84375 L 263.523438 5.871094 L 263.554688 5.933594 L 263.566406 5.960938 L 263.59375 6.027344 L 263.605469 6.054688 L 263.632812 6.121094 L 263.644531 6.148438 L 263.667969 6.214844 L 263.679688 6.242188 L 263.703125 6.308594 L 263.714844 6.335938 L 263.738281 6.402344 L 263.746094 6.429688 L 263.769531 6.5 L 263.777344 6.527344 L 263.796875 6.59375 L 263.808594 6.625 L 263.824219 6.691406 L 263.832031 6.71875 L 263.851562 6.789062 L 263.859375 6.816406 L 263.875 6.886719 L 263.882812 6.917969 L 263.894531 6.984375 L 263.902344 7.015625 L 263.914062 7.082031 L 263.921875 7.113281 L 263.933594 7.183594 L 263.9375 7.210938 L 263.949219 7.28125 L 263.953125 7.3125 L 263.960938 7.382812 L 263.964844 7.414062 L 263.972656 7.480469 L 263.976562 7.511719 L 263.980469 7.582031 L 263.984375 7.613281 L 263.988281 7.683594 L 263.992188 7.714844 L 263.996094 7.785156 L 263.996094 7.8125 L 264 7.882812 L 264 267 L 264.015625 267.304688 L 264.0625 267.605469 L 264.136719 267.898438 L 264.242188 268.183594 L 264.378906 268.457031 L 264.539062 268.714844 L 264.726562 268.957031 L 264.933594 269.175781 L 265.164062 269.375 L 265.414062 269.546875 L 265.683594 269.695312 L 265.960938 269.816406 L 266.253906 269.90625 L 266.550781 269.964844 L 266.851562 269.996094 L 266.996094 270.003906 L 267 270.074219 L 267 274.113281 L 266.996094 274.1875 L 266.996094 274.214844 L 266.992188 274.289062 L 266.992188 274.3125 L 266.988281 274.386719 L 266.984375 274.414062 L 266.980469 274.488281 L 266.976562 274.511719 L 266.972656 274.589844 L 266.96875 274.613281 L 266.960938 274.6875 L 266.957031 274.710938 L 266.949219 274.789062 L 266.945312 274.8125 L 266.933594 274.886719 L 266.929688 274.910156 L 266.917969 274.984375 L 266.914062 275.011719 L 266.902344 275.085938 L 266.898438 275.109375 L 266.882812 275.183594 L 266.878906 275.207031 L 266.863281 275.28125 L 266.855469 275.304688 L 266.839844 275.378906 L 266.832031 275.402344 L 266.816406 275.476562 L 266.808594 275.5 L 266.789062 275.574219 L 266.785156 275.597656 L 266.761719 275.667969 L 266.757812 275.695312 L 266.703125 275.859375 L 266.695312 275.886719 L 266.664062 275.980469 L 266.636719 276.050781 L 266.628906 276.074219 L 266.601562 276.144531 L 266.59375 276.167969 L 266.566406 276.238281 L 266.558594 276.261719 L 266.527344 276.332031 L 266.519531 276.355469 L 266.488281 276.421875 L 266.480469 276.445312 L 266.449219 276.515625 L 266.4375 276.535156 L 266.40625 276.605469 L 266.394531 276.628906 L 266.359375 276.695312 L 266.347656 276.71875 L 266.316406 276.785156 L 266.304688 276.804688 L 266.269531 276.871094 L 266.253906 276.894531 L 266.21875 276.960938 L 266.207031 276.980469 L 266.167969 277.046875 L 266.15625 277.070312 L 266.117188 277.132812 L 266.105469 277.152344 L 266.0625 277.21875 L 266.050781 277.238281 L 266.007812 277.300781 L 265.996094 277.324219 L 265.953125 277.386719 L 265.941406 277.40625 L 265.894531 277.46875 L 265.882812 277.488281 L 265.835938 277.550781 L 265.824219 277.570312 L 265.574219 277.882812 L 265.523438 277.941406 L 265.507812 277.960938 L 265.457031 278.015625 L 265.441406 278.035156 L 265.390625 278.089844 L 265.375 278.109375 L 265.320312 278.160156 L 265.304688 278.179688 L 265.179688 278.304688 L 265.160156 278.320312 L 265.109375 278.375 L 265.089844 278.390625 L 265.035156 278.441406 L 265.015625 278.457031 L 264.960938 278.507812 L 264.941406 278.523438 L 264.882812 278.574219 L 264.570312 278.824219 L 264.550781 278.835938 L 264.488281 278.882812 L 264.46875 278.894531 L 264.40625 278.941406 L 264.386719 278.953125 L 264.324219 278.996094 L 264.300781 279.007812 L 264.238281 279.050781 L 264.21875 279.0625 L 264.152344 279.105469 L 264.132812 279.117188 L 264.070312 279.15625 L 264.046875 279.167969 L 263.980469 279.207031 L 263.960938 279.21875 L 263.894531 279.253906 L 263.871094 279.269531 L 263.804688 279.304688 L 263.785156 279.316406 L 263.71875 279.347656 L 263.695312 279.359375 L 263.628906 279.394531 L 263.605469 279.40625 L 263.535156 279.4375 L 263.515625 279.449219 L 263.445312 279.480469 L 263.421875 279.488281 L 263.355469 279.519531 L 263.332031 279.527344 L 263.261719 279.558594 L 263.238281 279.566406 L 263.167969 279.59375 L 263.144531 279.601562 L 263.074219 279.628906 L 263.050781 279.636719 L 262.980469 279.664062 L 262.886719 279.695312 L 262.859375 279.703125 L 262.695312 279.757812 L 262.667969 279.761719 L 262.597656 279.785156 L 262.574219 279.789062 L 262.5 279.808594 L 262.476562 279.816406 L 262.402344 279.832031 L 262.378906 279.839844 L 262.304688 279.855469 L 262.28125 279.863281 L 262.207031 279.878906 L 262.183594 279.882812 L 262.109375 279.898438 L 262.085938 279.902344 L 262.011719 279.914062 L 261.984375 279.917969 L 261.910156 279.929688 L 261.886719 279.933594 L 261.8125 279.945312 L 261.789062 279.949219 L 261.710938 279.957031 L 261.6875 279.960938 L 261.613281 279.96875 L 261.589844 279.972656 L 261.511719 279.976562 L 261.488281 279.980469 L 261.414062 279.984375 L 261.386719 279.988281 L 261.3125 279.992188 L 261.289062 279.992188 L 261.214844 279.996094 L 261.1875 279.996094 L 261.113281 280 L 257.074219 280 L 257.003906 279.996094 L 256.996094 279.851562 L 256.96875 279.570312 L 256.914062 279.289062 L 256.832031 279.015625 L 256.726562 278.75 L 256.597656 278.496094 L 256.441406 278.257812 L 256.265625 278.035156 L 256.070312 277.828125 L 255.851562 277.640625 L 255.621094 277.476562 L 255.375 277.332031 L 255.113281 277.214844 L 254.84375 277.121094 L 254.566406 277.054688 L 254.285156 277.011719 L 254 277 L 13 277 L 12.695312 277.015625 L 12.394531 277.0625 L 12.101562 277.136719 L 11.816406 277.242188 L 11.542969 277.378906 L 11.285156 277.539062 L 11.042969 277.726562 L 10.824219 277.933594 L 10.625 278.164062 L 10.453125 278.414062 L 10.304688 278.683594 L 10.183594 278.960938 L 10.09375 279.253906 L 10.035156 279.550781 L 10.003906 279.851562 L 9.996094 279.996094 L 9.925781 280 L 5.886719 280 L 5.8125 279.996094 L 5.785156 279.996094 L 5.710938 279.992188 L 5.6875 279.992188 L 5.613281 279.988281 L 5.585938 279.984375 L 5.511719 279.980469 L 5.488281 279.976562 L 5.410156 279.972656 L 5.386719 279.96875 L 5.3125 279.960938 L 5.289062 279.957031 L 5.210938 279.949219 L 5.1875 279.945312 L 5.113281 279.933594 L 5.089844 279.929688 L 5.015625 279.917969 L 4.988281 279.914062 L 4.914062 279.902344 L 4.890625 279.898438 L 4.816406 279.882812 L 4.792969 279.878906 L 4.71875 279.863281 L 4.695312 279.855469 L 4.621094 279.839844 L 4.597656 279.832031 L 4.523438 279.816406 L 4.5 279.808594 L 4.425781 279.789062 L 4.402344 279.785156 L 4.332031 279.761719 L 4.304688 279.757812 L 4.140625 279.703125 L 4.113281 279.695312 L 4.019531 279.664062 L 3.949219 279.636719 L 3.925781 279.628906 L 3.855469 279.601562 L 3.832031 279.59375 L 3.761719 279.566406 L 3.738281 279.558594 L 3.667969 279.527344 L 3.644531 279.519531 L 3.578125 279.488281 L 3.554688 279.480469 L 3.484375 279.449219 L 3.464844 279.4375 L 3.394531 279.40625 L 3.371094 279.394531 L 3.304688 279.359375 L 3.28125 279.347656 L 3.214844 279.316406 L 3.195312 279.304688 L 3.128906 279.269531 L 3.105469 279.253906 L 3.039062 279.21875 L 3.019531 279.207031 L 2.953125 279.167969 L 2.929688 279.15625 L 2.867188 279.117188 L 2.847656 279.105469 L 2.78125 279.0625 L 2.761719 279.050781 L 2.699219 279.007812 L 2.675781 278.996094 L 2.613281 278.953125 L 2.59375 278.941406 L 2.53125 278.894531 L 2.511719 278.882812 L 2.449219 278.835938 L 2.429688 278.824219 L 2.117188 278.574219 L 2.058594 278.523438 L 2.039062 278.507812 L 1.984375 278.457031 L 1.964844 278.441406 L 1.910156 278.390625 L 1.890625 278.375 L 1.839844 278.320312 L 1.820312 278.304688 L 1.695312 278.179688 L 1.679688 278.160156 L 1.625 278.109375 L 1.609375 278.089844 L 1.558594 278.035156 L 1.542969 278.015625 L 1.492188 277.960938 L 1.476562 277.941406 L 1.425781 277.882812 L 1.175781 277.570312 L 1.164062 277.550781 L 1.117188 277.488281 L 1.105469 277.46875 L 1.058594 277.40625 L 1.046875 277.386719 L 1.003906 277.324219 L 0.992188 277.300781 L 0.949219 277.238281 L 0.9375 277.21875 L 0.894531 277.152344 L 0.882812 277.132812 L 0.84375 277.070312 L 0.832031 277.046875 L 0.792969 276.980469 L 0.78125 276.960938 L 0.746094 276.894531 L 0.730469 276.871094 L 0.695312 276.804688 L 0.683594 276.785156 L 0.652344 276.71875 L 0.640625 276.695312 L 0.605469 276.628906 L 0.59375 276.605469 L 0.5625 276.535156 L 0.550781 276.515625 L 0.519531 276.445312 L 0.511719 276.421875 L 0.480469 276.355469 L 0.472656 276.332031 L 0.441406 276.261719 L 0.433594 276.238281 L 0.40625 276.167969 L 0.398438 276.144531 L 0.371094 276.074219 L 0.363281 276.050781 L 0.335938 275.980469 L 0.304688 275.886719 L 0.296875 275.859375 L 0.242188 275.695312 L 0.238281 275.667969 L 0.214844 275.597656 L 0.210938 275.574219 L 0.191406 275.5 L 0.183594 275.476562 L 0.167969 275.402344 L 0.160156 275.378906 L 0.144531 275.304688 L 0.136719 275.28125 L 0.121094 275.207031 L 0.117188 275.183594 L 0.101562 275.109375 L 0.0976562 275.085938 L 0.0859375 275.011719 L 0.0820312 274.984375 L 0.0703125 274.910156 L 0.0664062 274.886719 L 0.0546875 274.8125 L 0.0507812 274.789062 L 0.0429688 274.710938 L 0.0390625 274.6875 L 0.03125 274.613281 L 0.0273438 274.589844 L 0.0234375 274.511719 L 0.0195312 274.488281 L 0.015625 274.414062 L 0.0117188 274.386719 L 0.0078125 274.3125 L 0.0078125 274.289062 L 0.00390625 274.214844 L 0.00390625 274.1875 L 0 274.113281 L 0 270.074219 Z M 5.800781 0.00390625 L 5.898438 0 L 261.101562 0 L 261.199219 0.00390625 L 261.402344 0.0117188 L 261.5 0.0195312 L 261.601562 0.03125 L 261.699219 0.0390625 L 261.800781 0.0546875 L 261.898438 0.0664062 L 261.996094 0.0820312 L 262.097656 0.101562 L 262.292969 0.140625 L 262.488281 0.1875 L 262.683594 0.242188 L 262.777344 0.269531 L 262.875 0.300781 L 262.96875 0.332031 L 263.25 0.4375 L 263.34375 0.476562 L 263.433594 0.515625 L 263.527344 0.558594 L 263.707031 0.644531 L 263.796875 0.691406 L 263.882812 0.738281 L 263.972656 0.789062 L 264.058594 0.835938 L 264.144531 0.890625 L 264.226562 0.941406 L 264.3125 0.996094 L 264.394531 1.054688 L 264.476562 1.109375 L 264.558594 1.167969 L 264.640625 1.230469 L 264.875 1.417969 L 265.097656 1.617188 L 265.171875 1.6875 L 265.3125 1.828125 L 265.382812 1.902344 L 265.582031 2.125 L 265.769531 2.359375 L 265.832031 2.441406 L 265.890625 2.523438 L 265.945312 2.605469 L 266.003906 2.6875 L 266.058594 2.773438 L 266.109375 2.855469 L 266.164062 2.941406 L 266.210938 3.027344 L 266.261719 3.117188 L 266.308594 3.203125 L 266.355469 3.292969 L 266.441406 3.472656 L 266.484375 3.566406 L 266.523438 3.65625 L 266.5625 3.75 L 266.667969 4.03125 L 266.699219 4.125 L 266.730469 4.222656 L 266.757812 4.316406 L 266.8125 4.511719 L 266.859375 4.707031 L 266.898438 4.902344 L 266.917969 5.003906 L 266.933594 5.101562 L 266.945312 5.199219 L 266.960938 5.300781 L 266.96875 5.398438 L 266.980469 5.5 L 266.988281 5.597656 L 266.996094 5.800781 L 267 5.898438 L 267 270 L 266.925781 270 L 266.851562 269.996094 L 266.550781 269.964844 L 266.253906 269.90625 L 265.960938 269.816406 L 265.683594 269.695312 L 265.414062 269.546875 L 265.164062 269.375 L 264.933594 269.175781 L 264.726562 268.957031 L 264.539062 268.714844 L 264.378906 268.457031 L 264.242188 268.183594 L 264.136719 267.898438 L 264.0625 267.605469 L 264.015625 267.304688 L 264 267 L 264 7.882812 L 263.996094 7.8125 L 263.996094 7.785156 L 263.992188 7.714844 L 263.988281 7.683594 L 263.984375 7.613281 L 263.980469 7.582031 L 263.976562 7.511719 L 263.972656 7.480469 L 263.964844 7.414062 L 263.960938 7.382812 L 263.953125 7.3125 L 263.949219 7.28125 L 263.9375 7.210938 L 263.933594 7.183594 L 263.921875 7.113281 L 263.914062 7.082031 L 263.902344 7.015625 L 263.894531 6.984375 L 263.882812 6.917969 L 263.875 6.886719 L 263.859375 6.816406 L 263.851562 6.789062 L 263.832031 6.71875 L 263.824219 6.691406 L 263.808594 6.625 L 263.796875 6.59375 L 263.777344 6.527344 L 263.769531 6.5 L 263.746094 6.429688 L 263.738281 6.402344 L 263.714844 6.335938 L 263.703125 6.308594 L 263.679688 6.242188 L 263.667969 6.214844 L 263.644531 6.148438 L 263.632812 6.121094 L 263.605469 6.054688 L 263.59375 6.027344 L 263.566406 5.960938 L 263.554688 5.933594 L 263.523438 5.871094 L 263.511719 5.84375 L 263.480469 5.78125 L 263.464844 5.753906 L 263.433594 5.691406 L 263.421875 5.664062 L 263.386719 5.601562 L 263.371094 5.574219 L 263.335938 5.511719 L 263.324219 5.488281 L 263.285156 5.425781 L 263.269531 5.402344 L 263.234375 5.339844 L 263.21875 5.316406 L 263.179688 5.253906 L 263.125 5.171875 L 263.105469 5.148438 L 263.066406 5.089844 L 263.046875 5.066406 L 263.007812 5.007812 L 262.988281 4.984375 L 262.945312 4.929688 L 262.925781 4.90625 L 262.882812 4.847656 L 262.863281 4.824219 L 262.816406 4.773438 L 262.796875 4.75 L 262.753906 4.695312 L 262.734375 4.671875 L 262.683594 4.621094 L 262.664062 4.597656 L 262.617188 4.546875 L 262.59375 4.527344 L 262.546875 4.476562 L 262.523438 4.453125 L 262.472656 4.40625 L 262.453125 4.382812 L 262.402344 4.335938 L 262.378906 4.316406 L 262.328125 4.265625 L 262.304688 4.246094 L 262.25 4.203125 L 262.226562 4.183594 L 262.175781 4.136719 L 262.152344 4.117188 L 262.09375 4.074219 L 262.070312 4.054688 L 262.015625 4.011719 L 261.992188 3.992188 L 261.933594 3.953125 L 261.910156 3.933594 L 261.851562 3.894531 L 261.828125 3.875 L 261.746094 3.820312 L 261.683594 3.78125 L 261.660156 3.765625 L 261.597656 3.730469 L 261.574219 3.714844 L 261.511719 3.675781 L 261.488281 3.664062 L 261.425781 3.628906 L 261.398438 3.613281 L 261.335938 3.578125 L 261.308594 3.566406 L 261.246094 3.535156 L 261.21875 3.519531 L 261.15625 3.488281 L 261.128906 3.476562 L 261.066406 3.445312 L 261.039062 3.433594 L 260.972656 3.40625 L 260.945312 3.394531 L 260.878906 3.367188 L 260.851562 3.355469 L 260.785156 3.332031 L 260.757812 3.320312 L 260.691406 3.296875 L 260.664062 3.285156 L 260.597656 3.261719 L 260.570312 3.253906 L 260.5 3.230469 L 260.472656 3.222656 L 260.40625 3.203125 L 260.375 3.191406 L 260.308594 3.175781 L 260.28125 3.167969 L 260.210938 3.148438 L 260.183594 3.140625 L 260.113281 3.125 L 260.082031 3.117188 L 260.015625 3.105469 L 259.984375 3.097656 L 259.917969 3.085938 L 259.886719 3.078125 L 259.816406 3.066406 L 259.789062 3.0625 L 259.71875 3.050781 L 259.6875 3.046875 L 259.617188 3.039062 L 259.585938 3.035156 L 259.519531 3.027344 L 259.488281 3.023438 L 259.417969 3.019531 L 259.386719 3.015625 L 259.316406 3.011719 L 259.285156 3.007812 L 259.214844 3.003906 L 259.1875 3.003906 L 259.117188 3 L 7.882812 3 L 7.8125 3.003906 L 7.785156 3.003906 L 7.714844 3.007812 L 7.683594 3.011719 L 7.613281 3.015625 L 7.582031 3.019531 L 7.511719 3.023438 L 7.480469 3.027344 L 7.414062 3.035156 L 7.382812 3.039062 L 7.3125 3.046875 L 7.28125 3.050781 L 7.210938 3.0625 L 7.183594 3.066406 L 7.113281 3.078125 L 7.082031 3.085938 L 7.015625 3.097656 L 6.984375 3.105469 L 6.917969 3.117188 L 6.886719 3.125 L 6.816406 3.140625 L 6.789062 3.148438 L 6.71875 3.167969 L 6.691406 3.175781 L 6.625 3.191406 L 6.59375 3.203125 L 6.527344 3.222656 L 6.5 3.230469 L 6.429688 3.253906 L 6.402344 3.261719 L 6.335938 3.285156 L 6.308594 3.296875 L 6.242188 3.320312 L 6.214844 3.332031 L 6.148438 3.355469 L 6.121094 3.367188 L 6.054688 3.394531 L 6.027344 3.40625 L 5.960938 3.433594 L 5.933594 3.445312 L 5.871094 3.476562 L 5.84375 3.488281 L 5.78125 3.519531 L 5.753906 3.535156 L 5.691406 3.566406 L 5.664062 3.578125 L 5.601562 3.613281 L 5.574219 3.628906 L 5.511719 3.664062 L 5.488281 3.675781 L 5.425781 3.714844 L 5.402344 3.730469 L 5.339844 3.765625 L 5.316406 3.78125 L 5.253906 3.820312 L 5.171875 3.875 L 5.148438 3.894531 L 5.089844 3.933594 L 5.066406 3.953125 L 5.007812 3.992188 L 4.984375 4.011719 L 4.929688 4.054688 L 4.90625 4.074219 L 4.847656 4.117188 L 4.824219 4.136719 L 4.773438 4.183594 L 4.75 4.203125 L 4.695312 4.246094 L 4.671875 4.265625 L 4.621094 4.316406 L 4.597656 4.335938 L 4.546875 4.382812 L 4.527344 4.40625 L 4.476562 4.453125 L 4.453125 4.476562 L 4.40625 4.527344 L 4.382812 4.546875 L 4.335938 4.597656 L 4.316406 4.621094 L 4.265625 4.671875 L 4.246094 4.695312 L 4.203125 4.75 L 4.183594 4.773438 L 4.136719 4.824219 L 4.117188 4.847656 L 4.074219 4.90625 L 4.054688 4.929688 L 4.011719 4.984375 L 3.992188 5.007812 L 3.953125 5.066406 L 3.933594 5.089844 L 3.894531 5.148438 L 3.875 5.171875 L 3.820312 5.253906 L 3.78125 5.316406 L 3.765625 5.339844 L 3.730469 5.402344 L 3.714844 5.425781 L 3.675781 5.488281 L 3.664062 5.511719 L 3.628906 5.574219 L 3.613281 5.601562 L 3.578125 5.664062 L 3.566406 5.691406 L 3.535156 5.753906 L 3.519531 5.78125 L 3.488281 5.84375 L 3.476562 5.871094 L 3.445312 5.933594 L 3.433594 5.960938 L 3.40625 6.027344 L 3.394531 6.054688 L 3.367188 6.121094 L 3.355469 6.148438 L 3.332031 6.214844 L 3.320312 6.242188 L 3.296875 6.308594 L 3.285156 6.335938 L 3.261719 6.402344 L 3.253906 6.429688 L 3.230469 6.5 L 3.222656 6.527344 L 3.203125 6.59375 L 3.191406 6.625 L 3.175781 6.691406 L 3.167969 6.71875 L 3.148438 6.789062 L 3.140625 6.816406 L 3.125 6.886719 L 3.117188 6.917969 L 3.105469 6.984375 L 3.097656 7.015625 L 3.085938 7.082031 L 3.078125 7.113281 L 3.066406 7.183594 L 3.0625 7.210938 L 3.050781 7.28125 L 3.046875 7.3125 L 3.039062 7.382812 L 3.035156 7.414062 L 3.027344 7.480469 L 3.023438 7.511719 L 3.019531 7.582031 L 3.015625 7.613281 L 3.011719 7.683594 L 3.007812 7.714844 L 3.003906 7.785156 L 3.003906 7.8125 L 3 7.882812 L 3 267 L 2.988281 267.285156 L 2.945312 267.566406 L 2.878906 267.84375 L 2.785156 268.113281 L 2.667969 268.375 L 2.523438 268.621094 L 2.359375 268.851562 L 2.171875 269.070312 L 1.964844 269.265625 L 1.742188 269.441406 L 1.503906 269.597656 L 1.25 269.726562 L 0.984375 269.832031 L 0.710938 269.914062 L 0.429688 269.96875 L 0.148438 269.996094 L 0.0742188 270 L 0 270 L 0 5.898438 L 0.00390625 5.800781 L 0.0117188 5.597656 L 0.0195312 5.5 L 0.03125 5.398438 L 0.0390625 5.300781 L 0.0546875 5.199219 L 0.0664062 5.101562 L 0.0820312 5.003906 L 0.101562 4.902344 L 0.140625 4.707031 L 0.1875 4.511719 L 0.242188 4.316406 L 0.269531 4.222656 L 0.300781 4.125 L 0.332031 4.03125 L 0.4375 3.75 L 0.476562 3.65625 L 0.515625 3.566406 L 0.558594 3.472656 L 0.644531 3.292969 L 0.691406 3.203125 L 0.738281 3.117188 L 0.789062 3.027344 L 0.835938 2.941406 L 0.890625 2.855469 L 0.941406 2.773438 L 0.996094 2.6875 L 1.054688 2.605469 L 1.109375 2.523438 L 1.167969 2.441406 L 1.230469 2.359375 L 1.417969 2.125 L 1.617188 1.902344 L 1.6875 1.828125 L 1.828125 1.6875 L 1.902344 1.617188 L 2.125 1.417969 L 2.359375 1.230469 L 2.441406 1.167969 L 2.523438 1.109375 L 2.605469 1.054688 L 2.6875 0.996094 L 2.773438 0.941406 L 2.855469 0.890625 L 2.941406 0.835938 L 3.027344 0.789062 L 3.117188 0.738281 L 3.203125 0.691406 L 3.292969 0.644531 L 3.472656 0.558594 L 3.566406 0.515625 L 3.65625 0.476562 L 3.75 0.4375 L 4.03125 0.332031 L 4.125 0.300781 L 4.222656 0.269531 L 4.316406 0.242188 L 4.511719 0.1875 L 4.707031 0.140625 L 4.902344 0.101562 L 5.003906 0.0820312 L 5.101562 0.0664062 L 5.199219 0.0546875 L 5.300781 0.0390625 L 5.398438 0.03125 L 5.5 0.0195312 L 5.597656 0.0117188 Z M 10 280 L 10 279.925781 L 10.003906 279.851562 L 10.035156 279.550781 L 10.09375 279.253906 L 10.183594 278.960938 L 10.304688 278.683594 L 10.453125 278.414062 L 10.625 278.164062 L 10.824219 277.933594 L 11.042969 277.726562 L 11.285156 277.539062 L 11.542969 277.378906 L 11.816406 277.242188 L 12.101562 277.136719 L 12.394531 277.0625 L 12.695312 277.015625 L 13 277 L 254 277 L 254.285156 277.011719 L 254.566406 277.054688 L 254.84375 277.121094 L 255.113281 277.214844 L 255.375 277.332031 L 255.621094 277.476562 L 255.851562 277.640625 L 256.070312 277.828125 L 256.265625 278.035156 L 256.441406 278.257812 L 256.597656 278.496094 L 256.726562 278.75 L 256.832031 279.015625 L 256.914062 279.289062 L 256.96875 279.570312 L 256.996094 279.851562 L 257 279.925781 L 257 280 Z M 10 280 "/>
<path fill="none" stroke-width="0.2" stroke-linecap="butt" stroke-linejoin="miter" stroke="rgb(0%, 0%, 0%)" stroke-opacity="1" stroke-miterlimit="10" d="M 0.00390625 270.003906 L 0 270.074219 L 0 274.113281 L 0.00390625 274.1875 L 0.00390625 274.214844 L 0.0078125 274.289062 L 0.0078125 274.3125 L 0.0117188 274.386719 L 0.015625 274.414062 L 0.0195312 274.488281 L 0.0234375 274.511719 L 0.0273438 274.589844 L 0.03125 274.613281 L 0.0390625 274.6875 L 0.0429688 274.710938 L 0.0507812 274.789062 L 0.0546875 274.8125 L 0.0664062 274.886719 L 0.0703125 274.910156 L 0.0820312 274.984375 L 0.0859375 275.011719 L 0.0976562 275.085938 L 0.101562 275.109375 L 0.117188 275.183594 L 0.121094 275.207031 L 0.136719 275.28125 L 0.144531 275.304688 L 0.160156 275.378906 L 0.167969 275.402344 L 0.183594 275.476562 L 0.191406 275.5 L 0.210938 275.574219 L 0.214844 275.597656 L 0.238281 275.667969 L 0.242188 275.695312 L 0.296875 275.859375 L 0.304688 275.886719 L 0.335938 275.980469 L 0.363281 276.050781 L 0.371094 276.074219 L 0.398438 276.144531 L 0.40625 276.167969 L 0.433594 276.238281 L 0.441406 276.261719 L 0.472656 276.332031 L 0.480469 276.355469 L 0.511719 276.421875 L 0.519531 276.445312 L 0.550781 276.515625 L 0.5625 276.535156 L 0.59375 276.605469 L 0.605469 276.628906 L 0.640625 276.695312 L 0.652344 276.71875 L 0.683594 276.785156 L 0.695312 276.804688 L 0.730469 276.871094 L 0.746094 276.894531 L 0.78125 276.960938 L 0.792969 276.980469 L 0.832031 277.046875 L 0.84375 277.070312 L 0.882812 277.132812 L 0.894531 277.152344 L 0.9375 277.21875 L 0.949219 277.238281 L 0.992188 277.300781 L 1.003906 277.324219 L 1.046875 277.386719 L 1.058594 277.40625 L 1.105469 277.46875 L 1.117188 277.488281 L 1.164062 277.550781 L 1.175781 277.570312 L 1.425781 277.882812 L 1.476562 277.941406 L 1.492188 277.960938 L 1.542969 278.015625 L 1.558594 278.035156 L 1.609375 278.089844 L 1.625 278.109375 L 1.679688 278.160156 L 1.695312 278.179688 L 1.820312 278.304688 L 1.839844 278.320312 L 1.890625 278.375 L 1.910156 278.390625 L 1.964844 278.441406 L 1.984375 278.457031 L 2.039062 278.507812 L 2.058594 278.523438 L 2.117188 278.574219 L 2.429688 278.824219 L 2.449219 278.835938 L 2.511719 278.882812 L 2.53125 278.894531 L 2.59375 278.941406 L 2.613281 278.953125 L 2.675781 278.996094 L 2.699219 279.007812 L 2.761719 279.050781 L 2.78125 279.0625 L 2.847656 279.105469 L 2.867188 279.117188 L 2.929688 279.15625 L 2.953125 279.167969 L 3.019531 279.207031 L 3.039062 279.21875 L 3.105469 279.253906 L 3.128906 279.269531 L 3.195312 279.304688 L 3.214844 279.316406 L 3.28125 279.347656 L 3.304688 279.359375 L 3.371094 279.394531 L 3.394531 279.40625 L 3.464844 279.4375 L 3.484375 279.449219 L 3.554688 279.480469 L 3.578125 279.488281 L 3.644531 279.519531 L 3.667969 279.527344 L 3.738281 279.558594 L 3.761719 279.566406 L 3.832031 279.59375 L 3.855469 279.601562 L 3.925781 279.628906 L 3.949219 279.636719 L 4.019531 279.664062 L 4.113281 279.695312 L 4.140625 279.703125 L 4.304688 279.757812 L 4.332031 279.761719 L 4.402344 279.785156 L 4.425781 279.789062 L 4.5 279.808594 L 4.523438 279.816406 L 4.597656 279.832031 L 4.621094 279.839844 L 4.695312 279.855469 L 4.71875 279.863281 L 4.792969 279.878906 L 4.816406 279.882812 L 4.890625 279.898438 L 4.914062 279.902344 L 4.988281 279.914062 L 5.015625 279.917969 L 5.089844 279.929688 L 5.113281 279.933594 L 5.1875 279.945312 L 5.210938 279.949219 L 5.289062 279.957031 L 5.3125 279.960938 L 5.386719 279.96875 L 5.410156 279.972656 L 5.488281 279.976562 L 5.511719 279.980469 L 5.585938 279.984375 L 5.613281 279.988281 L 5.6875 279.992188 L 5.710938 279.992188 L 5.785156 279.996094 L 5.8125 279.996094 L 5.886719 280 L 9.925781 280 L 9.996094 279.996094 L 10.003906 279.851562 M 10.003906 279.851562 L 10.035156 279.550781 M 10.035156 279.550781 L 10.09375 279.253906 M 10.09375 279.253906 L 10.183594 278.960938 M 10.183594 278.960938 L 10.304688 278.683594 M 10.304688 278.683594 L 10.453125 278.414062 M 10.453125 278.414062 L 10.625 278.164062 M 10.625 278.164062 L 10.824219 277.933594 M 10.824219 277.933594 L 11.042969 277.726562 M 11.042969 277.726562 L 11.285156 277.539062 M 11.285156 277.539062 L 11.542969 277.378906 M 11.542969 277.378906 L 11.816406 277.242188 M 11.816406 277.242188 L 12.101562 277.136719 M 12.101562 277.136719 L 12.394531 277.0625 M 12.394531 277.0625 L 12.695312 277.015625 M 12.695312 277.015625 L 13 277 M 13 277 L 254 277 M 254 277 L 254.285156 277.011719 M 254.285156 277.011719 L 254.566406 277.054688 M 254.566406 277.054688 L 254.84375 277.121094 M 254.84375 277.121094 L 255.113281 277.214844 M 255.113281 277.214844 L 255.375 277.332031 M 255.375 277.332031 L 255.621094 277.476562 M 255.621094 277.476562 L 255.851562 277.640625 M 255.851562 277.640625 L 256.070312 277.828125 M 256.070312 277.828125 L 256.265625 278.035156 M 256.265625 278.035156 L 256.441406 278.257812 M 256.441406 278.257812 L 256.597656 278.496094 M 256.597656 278.496094 L 256.726562 278.75 M 256.726562 278.75 L 256.832031 279.015625 M 256.832031 279.015625 L 256.914062 279.289062 M 256.914062 279.289062 L 256.96875 279.570312 M 256.96875 279.570312 L 256.996094 279.851562 M 256.996094 279.851562 L 257.003906 279.996094 L 257.074219 280 L 261.113281 280 L 261.1875 279.996094 L 261.214844 279.996094 L 261.289062 279.992188 L 261.3125 279.992188 L 261.386719 279.988281 L 261.414062 279.984375 L 261.488281 279.980469 L 261.511719 279.976562 L 261.589844 279.972656 L 261.613281 279.96875 L 261.6875 279.960938 L 261.710938 279.957031 L 261.789062 279.949219 L 261.8125 279.945312 L 261.886719 279.933594 L 261.910156 279.929688 L 261.984375 279.917969 L 262.011719 279.914062 L 262.085938 279.902344 L 262.109375 279.898438 L 262.183594 279.882812 L 262.207031 279.878906 L 262.28125 279.863281 L 262.304688 279.855469 L 262.378906 279.839844 L 262.402344 279.832031 L 262.476562 279.816406 L 262.5 279.808594 L 262.574219 279.789062 L 262.597656 279.785156 L 262.667969 279.761719 L 262.695312 279.757812 L 262.859375 279.703125 L 262.886719 279.695312 L 262.980469 279.664062 L 263.050781 279.636719 L 263.074219 279.628906 L 263.144531 279.601562 L 263.167969 279.59375 L 263.238281 279.566406 L 263.261719 279.558594 L 263.332031 279.527344 L 263.355469 279.519531 L 263.421875 279.488281 L 263.445312 279.480469 L 263.515625 279.449219 L 263.535156 279.4375 L 263.605469 279.40625 L 263.628906 279.394531 L 263.695312 279.359375 L 263.71875 279.347656 L 263.785156 279.316406 L 263.804688 279.304688 L 263.871094 279.269531 L 263.894531 279.253906 L 263.960938 279.21875 L 263.980469 279.207031 L 264.046875 279.167969 L 264.070312 279.15625 L 264.132812 279.117188 L 264.152344 279.105469 L 264.21875 279.0625 L 264.238281 279.050781 L 264.300781 279.007812 L 264.324219 278.996094 L 264.386719 278.953125 L 264.40625 278.941406 L 264.46875 278.894531 L 264.488281 278.882812 L 264.550781 278.835938 L 264.570312 278.824219 L 264.882812 278.574219 L 264.941406 278.523438 L 264.960938 278.507812 L 265.015625 278.457031 L 265.035156 278.441406 L 265.089844 278.390625 L 265.109375 278.375 L 265.160156 278.320312 L 265.179688 278.304688 L 265.304688 278.179688 L 265.320312 278.160156 L 265.375 278.109375 L 265.390625 278.089844 L 265.441406 278.035156 L 265.457031 278.015625 L 265.507812 277.960938 L 265.523438 277.941406 L 265.574219 277.882812 L 265.824219 277.570312 L 265.835938 277.550781 L 265.882812 277.488281 L 265.894531 277.46875 L 265.941406 277.40625 L 265.953125 277.386719 L 265.996094 277.324219 L 266.007812 277.300781 L 266.050781 277.238281 L 266.0625 277.21875 L 266.105469 277.152344 L 266.117188 277.132812 L 266.15625 277.070312 L 266.167969 277.046875 L 266.207031 276.980469 L 266.21875 276.960938 L 266.253906 276.894531 L 266.269531 276.871094 L 266.304688 276.804688 L 266.316406 276.785156 L 266.347656 276.71875 L 266.359375 276.695312 L 266.394531 276.628906 L 266.40625 276.605469 L 266.4375 276.535156 L 266.449219 276.515625 L 266.480469 276.445312 L 266.488281 276.421875 L 266.519531 276.355469 L 266.527344 276.332031 L 266.558594 276.261719 L 266.566406 276.238281 L 266.59375 276.167969 L 266.601562 276.144531 L 266.628906 276.074219 L 266.636719 276.050781 L 266.664062 275.980469 L 266.695312 275.886719 L 266.703125 275.859375 L 266.757812 275.695312 L 266.761719 275.667969 L 266.785156 275.597656 L 266.789062 275.574219 L 266.808594 275.5 L 266.816406 275.476562 L 266.832031 275.402344 L 266.839844 275.378906 L 266.855469 275.304688 L 266.863281 275.28125 L 266.878906 275.207031 L 266.882812 275.183594 L 266.898438 275.109375 L 266.902344 275.085938 L 266.914062 275.011719 L 266.917969 274.984375 L 266.929688 274.910156 L 266.933594 274.886719 L 266.945312 274.8125 L 266.949219 274.789062 L 266.957031 274.710938 L 266.960938 274.6875 L 266.96875 274.613281 L 266.972656 274.589844 L 266.976562 274.511719 L 266.980469 274.488281 L 266.984375 274.414062 L 266.988281 274.386719 L 266.992188 274.3125 L 266.992188 274.289062 L 266.996094 274.214844 L 266.996094 274.1875 L 267 274.113281 L 267 270.074219 L 266.996094 270.003906 L 266.851562 269.996094 M 266.851562 269.996094 L 266.550781 269.964844 M 266.550781 269.964844 L 266.253906 269.90625 M 266.253906 269.90625 L 265.960938 269.816406 M 265.960938 269.816406 L 265.683594 269.695312 M 265.683594 269.695312 L 265.414062 269.546875 M 265.414062 269.546875 L 265.164062 269.375 M 265.164062 269.375 L 264.933594 269.175781 M 264.933594 269.175781 L 264.726562 268.957031 M 264.726562 268.957031 L 264.539062 268.714844 M 264.539062 268.714844 L 264.378906 268.457031 M 264.378906 268.457031 L 264.242188 268.183594 M 264.242188 268.183594 L 264.136719 267.898438 M 264.136719 267.898438 L 264.0625 267.605469 M 264.0625 267.605469 L 264.015625 267.304688 M 264.015625 267.304688 L 264 267 M 264 267 L 264 8.007812 M 264 8.007812 L 264 7.992188 M 264 7.992188 L 264 7.914062 M 264 7.914062 L 264 7.882812 M 264 7.882812 L 263.996094 7.8125 M 263.996094 7.8125 L 263.996094 7.785156 M 263.996094 7.785156 L 263.992188 7.714844 M 263.992188 7.714844 L 263.988281 7.683594 M 263.988281 7.683594 L 263.984375 7.613281 M 263.984375 7.613281 L 263.980469 7.582031 M 263.980469 7.582031 L 263.976562 7.511719 M 263.976562 7.511719 L 263.972656 7.480469 M 263.972656 7.480469 L 263.964844 7.414062 M 263.964844 7.414062 L 263.960938 7.382812 M 263.960938 7.382812 L 263.953125 7.3125 M 263.953125 7.3125 L 263.949219 7.28125 M 263.949219 7.28125 L 263.9375 7.210938 M 263.9375 7.210938 L 263.933594 7.183594 M 263.933594 7.183594 L 263.921875 7.113281 M 263.921875 7.113281 L 263.914062 7.082031 M 263.914062 7.082031 L 263.902344 7.015625 M 263.902344 7.015625 L 263.894531 6.984375 M 263.894531 6.984375 L 263.882812 6.917969 M 263.882812 6.917969 L 263.875 6.886719 M 263.875 6.886719 L 263.859375 6.816406 M 263.859375 6.816406 L 263.851562 6.789062 M 263.851562 6.789062 L 263.832031 6.71875 M 263.832031 6.71875 L 263.824219 6.691406 M 263.824219 6.691406 L 263.808594 6.625 M 263.808594 6.625 L 263.796875 6.59375 M 263.796875 6.59375 L 263.777344 6.527344 M 263.777344 6.527344 L 263.769531 6.5 M 263.769531 6.5 L 263.746094 6.429688 M 263.746094 6.429688 L 263.738281 6.402344 M 263.738281 6.402344 L 263.714844 6.335938 M 263.714844 6.335938 L 263.703125 6.308594 M 263.703125 6.308594 L 263.679688 6.242188 M 263.679688 6.242188 L 263.667969 6.214844 M 263.667969 6.214844 L 263.644531 6.148438 M 263.644531 6.148438 L 263.632812 6.121094 M 263.632812 6.121094 L 263.605469 6.054688 M 263.605469 6.054688 L 263.59375 6.027344 M 263.59375 6.027344 L 263.566406 5.960938 M 263.566406 5.960938 L 263.554688 5.933594 M 263.554688 5.933594 L 263.523438 5.871094 M 263.523438 5.871094 L 263.511719 5.84375 M 263.511719 5.84375 L 263.480469 5.78125 M 263.480469 5.78125 L 263.464844 5.753906 M 263.464844 5.753906 L 263.433594 5.691406 M 263.433594 5.691406 L 263.421875 5.664062 M 263.421875 5.664062 L 263.386719 5.601562 M 263.386719 5.601562 L 263.371094 5.574219 M 263.371094 5.574219 L 263.335938 5.511719 M 263.335938 5.511719 L 263.324219 5.488281 M 263.324219 5.488281 L 263.285156 5.425781 M 263.285156 5.425781 L 263.269531 5.402344 M 263.269531 5.402344 L 263.234375 5.339844 M 263.234375 5.339844 L 263.21875 5.316406 M 263.21875 5.316406 L 263.179688 5.253906 M 263.179688 5.253906 L 263.164062 5.230469 M 263.164062 5.230469 L 263.125 5.171875 M 263.125 5.171875 L 263.105469 5.148438 M 263.105469 5.148438 L 263.066406 5.089844 M 263.066406 5.089844 L 263.046875 5.066406 M 263.046875 5.066406 L 263.007812 5.007812 M 263.007812 5.007812 L 262.988281 4.984375 M 262.988281 4.984375 L 262.945312 4.929688 M 262.945312 4.929688 L 262.925781 4.90625 M 262.925781 4.90625 L 262.882812 4.847656 M 262.882812 4.847656 L 262.863281 4.824219 M 262.863281 4.824219 L 262.816406 4.773438 M 262.816406 4.773438 L 262.796875 4.75 M 262.796875 4.75 L 262.753906 4.695312 M 262.753906 4.695312 L 262.734375 4.671875 M 262.734375 4.671875 L 262.683594 4.621094 M 262.683594 4.621094 L 262.664062 4.597656 M 262.664062 4.597656 L 262.617188 4.546875 M 262.617188 4.546875 L 262.59375 4.527344 M 262.59375 4.527344 L 262.546875 4.476562 M 262.546875 4.476562 L 262.523438 4.453125 M 262.523438 4.453125 L 262.472656 4.40625 M 262.472656 4.40625 L 262.453125 4.382812 M 262.453125 4.382812 L 262.402344 4.335938 M 262.402344 4.335938 L 262.378906 4.316406 M 262.378906 4.316406 L 262.328125 4.265625 M 262.328125 4.265625 L 262.304688 4.246094 M 262.304688 4.246094 L 262.25 4.203125 M 262.25 4.203125 L 262.226562 4.183594 M 262.226562 4.183594 L 262.175781 4.136719 M 262.175781 4.136719 L 262.152344 4.117188 M 262.152344 4.117188 L 262.09375 4.074219 M 262.09375 4.074219 L 262.070312 4.054688 M 262.070312 4.054688 L 262.015625 4.011719 M 262.015625 4.011719 L 261.992188 3.992188 M 261.992188 3.992188 L 261.933594 3.953125 M 261.933594 3.953125 L 261.910156 3.933594 M 261.910156 3.933594 L 261.851562 3.894531 M 261.851562 3.894531 L 261.828125 3.875 M 261.828125 3.875 L 261.769531 3.835938 M 261.769531 3.835938 L 261.746094 3.820312 M 261.746094 3.820312 L 261.683594 3.78125 M 261.683594 3.78125 L 261.660156 3.765625 M 261.660156 3.765625 L 261.597656 3.730469 M 261.597656 3.730469 L 261.574219 3.714844 M 261.574219 3.714844 L 261.511719 3.675781 M 261.511719 3.675781 L 261.488281 3.664062 M 261.488281 3.664062 L 261.425781 3.628906 M 261.425781 3.628906 L 261.398438 3.613281 M 261.398438 3.613281 L 261.335938 3.578125 M 261.335938 3.578125 L 261.308594 3.566406 M 261.308594 3.566406 L 261.246094 3.535156 M 261.246094 3.535156 L 261.21875 3.519531 M 261.21875 3.519531 L 261.15625 3.488281 M 261.15625 3.488281 L 261.128906 3.476562 M 261.128906 3.476562 L 261.066406 3.445312 M 261.066406 3.445312 L 261.039062 3.433594 M 261.039062 3.433594 L 260.972656 3.40625 M 260.972656 3.40625 L 260.945312 3.394531 M 260.945312 3.394531 L 260.878906 3.367188 M 260.878906 3.367188 L 260.851562 3.355469 M 260.851562 3.355469 L 260.785156 3.332031 M 260.785156 3.332031 L 260.757812 3.320312 M 260.757812 3.320312 L 260.691406 3.296875 M 260.691406 3.296875 L 260.664062 3.285156 M 260.664062 3.285156 L 260.597656 3.261719 M 260.597656 3.261719 L 260.570312 3.253906 M 260.570312 3.253906 L 260.5 3.230469 M 260.5 3.230469 L 260.472656 3.222656 M 260.472656 3.222656 L 260.40625 3.203125 M 260.40625 3.203125 L 260.375 3.191406 M 260.375 3.191406 L 260.308594 3.175781 M 260.308594 3.175781 L 260.28125 3.167969 M 260.28125 3.167969 L 260.210938 3.148438 M 260.210938 3.148438 L 260.183594 3.140625 M 260.183594 3.140625 L 260.113281 3.125 M 260.113281 3.125 L 260.082031 3.117188 M 260.082031 3.117188 L 260.015625 3.105469 M 260.015625 3.105469 L 259.984375 3.097656 M 259.984375 3.097656 L 259.917969 3.085938 M 259.917969 3.085938 L 259.886719 3.078125 M 259.886719 3.078125 L 259.816406 3.066406 M 259.816406 3.066406 L 259.789062 3.0625 M 259.789062 3.0625 L 259.71875 3.050781 M 259.71875 3.050781 L 259.6875 3.046875 M 259.6875 3.046875 L 259.617188 3.039062 M 259.617188 3.039062 L 259.585938 3.035156 M 259.585938 3.035156 L 259.519531 3.027344 M 259.519531 3.027344 L 259.488281 3.023438 M 259.488281 3.023438 L 259.417969 3.019531 M 259.417969 3.019531 L 259.386719 3.015625 M 259.386719 3.015625 L 259.316406 3.011719 M 259.316406 3.011719 L 259.285156 3.007812 M 259.285156 3.007812 L 259.214844 3.003906 M 259.214844 3.003906 L 259.1875 3.003906 M 259.1875 3.003906 L 259.117188 3 M 259.117188 3 L 259.085938 3 M 259.085938 3 L 259.007812 3 M 259.007812 3 L 258.992188 3 M 258.992188 3 L 8.007812 3 M 8.007812 3 L 7.992188 3 M 7.992188 3 L 7.914062 3 M 7.914062 3 L 7.882812 3 M 7.882812 3 L 7.8125 3.003906 M 7.8125 3.003906 L 7.785156 3.003906 M 7.785156 3.003906 L 7.714844 3.007812 M 7.714844 3.007812 L 7.683594 3.011719 M 7.683594 3.011719 L 7.613281 3.015625 M 7.613281 3.015625 L 7.582031 3.019531 M 7.582031 3.019531 L 7.511719 3.023438 M 7.511719 3.023438 L 7.480469 3.027344 M 7.480469 3.027344 L 7.414062 3.035156 M 7.414062 3.035156 L 7.382812 3.039062 M 7.382812 3.039062 L 7.3125 3.046875 M 7.3125 3.046875 L 7.28125 3.050781 M 7.28125 3.050781 L 7.210938 3.0625 M 7.210938 3.0625 L 7.183594 3.066406 M 7.183594 3.066406 L 7.113281 3.078125 M 7.113281 3.078125 L 7.082031 3.085938 M 7.082031 3.085938 L 7.015625 3.097656 M 7.015625 3.097656 L 6.984375 3.105469 M 6.984375 3.105469 L 6.917969 3.117188 M 6.917969 3.117188 L 6.886719 3.125 M 6.886719 3.125 L 6.816406 3.140625 M 6.816406 3.140625 L 6.789062 3.148438 M 6.789062 3.148438 L 6.71875 3.167969 M 6.71875 3.167969 L 6.691406 3.175781 M 6.691406 3.175781 L 6.625 3.191406 M 6.625 3.191406 L 6.59375 3.203125 M 6.59375 3.203125 L 6.527344 3.222656 M 6.527344 3.222656 L 6.5 3.230469 M 6.5 3.230469 L 6.429688 3.253906 M 6.429688 3.253906 L 6.402344 3.261719 M 6.402344 3.261719 L 6.335938 3.285156 M 6.335938 3.285156 L 6.308594 3.296875 M 6.308594 3.296875 L 6.242188 3.320312 M 6.242188 3.320312 L 6.214844 3.332031 M 6.214844 3.332031 L 6.148438 3.355469 M 6.148438 3.355469 L 6.121094 3.367188 M 6.121094 3.367188 L 6.054688 3.394531 M 6.054688 3.394531 L 6.027344 3.40625 M 6.027344 3.40625 L 5.960938 3.433594 M 5.960938 3.433594 L 5.933594 3.445312 M 5.933594 3.445312 L 5.871094 3.476562 M 5.871094 3.476562 L 5.84375 3.488281 M 5.84375 3.488281 L 5.78125 3.519531 M 5.78125 3.519531 L 5.753906 3.535156 M 5.753906 3.535156 L 5.691406 3.566406 M 5.691406 3.566406 L 5.664062 3.578125 M 5.664062 3.578125 L 5.601562 3.613281 M 5.601562 3.613281 L 5.574219 3.628906 M 5.574219 3.628906 L 5.511719 3.664062 M 5.511719 3.664062 L 5.488281 3.675781 M 5.488281 3.675781 L 5.425781 3.714844 M 5.425781 3.714844 L 5.402344 3.730469 M 5.402344 3.730469 L 5.339844 3.765625 M 5.339844 3.765625 L 5.316406 3.78125 M 5.316406 3.78125 L 5.253906 3.820312 M 5.253906 3.820312 L 5.230469 3.835938 M 5.230469 3.835938 L 5.171875 3.875 M 5.171875 3.875 L 5.148438 3.894531 M 5.148438 3.894531 L 5.089844 3.933594 M 5.089844 3.933594 L 5.066406 3.953125 M 5.066406 3.953125 L 5.007812 3.992188 M 5.007812 3.992188 L 4.984375 4.011719 M 4.984375 4.011719 L 4.929688 4.054688 M 4.929688 4.054688 L 4.90625 4.074219 M 4.90625 4.074219 L 4.847656 4.117188 M 4.847656 4.117188 L 4.824219 4.136719 M 4.824219 4.136719 L 4.773438 4.183594 M 4.773438 4.183594 L 4.75 4.203125 M 4.75 4.203125 L 4.695312 4.246094 M 4.695312 4.246094 L 4.671875 4.265625 M 4.671875 4.265625 L 4.621094 4.316406 M 4.621094 4.316406 L 4.597656 4.335938 M 4.597656 4.335938 L 4.546875 4.382812 M 4.546875 4.382812 L 4.527344 4.40625 M 4.527344 4.40625 L 4.476562 4.453125 M 4.476562 4.453125 L 4.453125 4.476562 M 4.453125 4.476562 L 4.40625 4.527344 M 4.40625 4.527344 L 4.382812 4.546875 M 4.382812 4.546875 L 4.335938 4.597656 M 4.335938 4.597656 L 4.316406 4.621094 M 4.316406 4.621094 L 4.265625 4.671875 M 4.265625 4.671875 L 4.246094 4.695312 M 4.246094 4.695312 L 4.203125 4.75 M 4.203125 4.75 L 4.183594 4.773438 M 4.183594 4.773438 L 4.136719 4.824219 M 4.136719 4.824219 L 4.117188 4.847656 M 4.117188 4.847656 L 4.074219 4.90625 M 4.074219 4.90625 L 4.054688 4.929688 M 4.054688 4.929688 L 4.011719 4.984375 M 4.011719 4.984375 L 3.992188 5.007812 M 3.992188 5.007812 L 3.953125 5.066406 M 3.953125 5.066406 L 3.933594 5.089844 M 3.933594 5.089844 L 3.894531 5.148438 M 3.894531 5.148438 L 3.875 5.171875 M 3.875 5.171875 L 3.835938 5.230469 M 3.835938 5.230469 L 3.820312 5.253906 M 3.820312 5.253906 L 3.78125 5.316406 M 3.78125 5.316406 L 3.765625 5.339844 M 3.765625 5.339844 L 3.730469 5.402344 M 3.730469 5.402344 L 3.714844 5.425781 M 3.714844 5.425781 L 3.675781 5.488281 M 3.675781 5.488281 L 3.664062 5.511719 M 3.664062 5.511719 L 3.628906 5.574219 M 3.628906 5.574219 L 3.613281 5.601562 M 3.613281 5.601562 L 3.578125 5.664062 M 3.578125 5.664062 L 3.566406 5.691406 M 3.566406 5.691406 L 3.535156 5.753906 M 3.535156 5.753906 L 3.519531 5.78125 M 3.519531 5.78125 L 3.488281 5.84375 M 3.488281 5.84375 L 3.476562 5.871094 M 3.476562 5.871094 L 3.445312 5.933594 M 3.445312 5.933594 L 3.433594 5.960938 M 3.433594 5.960938 L 3.40625 6.027344 M 3.40625 6.027344 L 3.394531 6.054688 M 3.394531 6.054688 L 3.367188 6.121094 M 3.367188 6.121094 L 3.355469 6.148438 M 3.355469 6.148438 L 3.332031 6.214844 M 3.332031 6.214844 L 3.320312 6.242188 M 3.320312 6.242188 L 3.296875 6.308594 M 3.296875 6.308594 L 3.285156 6.335938 M 3.285156 6.335938 L 3.261719 6.402344 M 3.261719 6.402344 L 3.253906 6.429688 M 3.253906 6.429688 L 3.230469 6.5 M 3.230469 6.5 L 3.222656 6.527344 M 3.222656 6.527344 L 3.203125 6.59375 M 3.203125 6.59375 L 3.191406 6.625 M 3.191406 6.625 L 3.175781 6.691406 M 3.175781 6.691406 L 3.167969 6.71875 M 3.167969 6.71875 L 3.148438 6.789062 M 3.148438 6.789062 L 3.140625 6.816406 M 3.140625 6.816406 L 3.125 6.886719 M 3.125 6.886719 L 3.117188 6.917969 M 3.117188 6.917969 L 3.105469 6.984375 M 3.105469 6.984375 L 3.097656 7.015625 M 3.097656 7.015625 L 3.085938 7.082031 M 3.085938 7.082031 L 3.078125 7.113281 M 3.078125 7.113281 L 3.066406 7.183594 M 3.066406 7.183594 L 3.0625 7.210938 M 3.0625 7.210938 L 3.050781 7.28125 M 3.050781 7.28125 L 3.046875 7.3125 M 3.046875 7.3125 L 3.039062 7.382812 M 3.039062 7.382812 L 3.035156 7.414062 M 3.035156 7.414062 L 3.027344 7.480469 M 3.027344 7.480469 L 3.023438 7.511719 M 3.023438 7.511719 L 3.019531 7.582031 M 3.019531 7.582031 L 3.015625 7.613281 M 3.015625 7.613281 L 3.011719 7.683594 M 3.011719 7.683594 L 3.007812 7.714844 M 3.007812 7.714844 L 3.003906 7.785156 M 3.003906 7.785156 L 3.003906 7.8125 M 3.003906 7.8125 L 3 7.882812 M 3 7.882812 L 3 7.914062 M 3 7.914062 L 3 7.992188 M 3 7.992188 L 3 8.007812 M 3 8.007812 L 3 267 M 3 267 L 2.988281 267.285156 M 2.988281 267.285156 L 2.945312 267.566406 M 2.945312 267.566406 L 2.878906 267.84375 M 2.878906 267.84375 L 2.785156 268.113281 M 2.785156 268.113281 L 2.667969 268.375 M 2.667969 268.375 L 2.523438 268.621094 M 2.523438 268.621094 L 2.359375 268.851562 M 2.359375 268.851562 L 2.171875 269.070312 M 2.171875 269.070312 L 1.964844 269.265625 M 1.964844 269.265625 L 1.742188 269.441406 M 1.742188 269.441406 L 1.503906 269.597656 M 1.503906 269.597656 L 1.25 269.726562 M 1.25 269.726562 L 0.984375 269.832031 M 0.984375 269.832031 L 0.710938 269.914062 M 0.710938 269.914062 L 0.429688 269.96875 M 0.429688 269.96875 L 0.148438 269.996094 M 0.148438 269.996094 L 0.0742188 270 M 0.0742188 270 L 0.00390625 270.003906 M 5.800781 0.00390625 L 5.597656 0.0117188 L 5.5 0.0195312 L 5.398438 0.03125 L 5.300781 0.0390625 L 5.199219 0.0546875 L 5.101562 0.0664062 L 5.003906 0.0820312 L 4.902344 0.101562 L 4.707031 0.140625 L 4.511719 0.1875 L 4.316406 0.242188 L 4.222656 0.269531 L 4.125 0.300781 L 4.03125 0.332031 L 3.75 0.4375 L 3.65625 0.476562 L 3.566406 0.515625 L 3.472656 0.558594 L 3.292969 0.644531 L 3.203125 0.691406 L 3.117188 0.738281 L 3.027344 0.789062 L 2.941406 0.835938 L 2.855469 0.890625 L 2.773438 0.941406 L 2.6875 0.996094 L 2.605469 1.054688 L 2.523438 1.109375 L 2.441406 1.167969 L 2.359375 1.230469 L 2.125 1.417969 L 1.902344 1.617188 L 1.828125 1.6875 L 1.6875 1.828125 L 1.617188 1.902344 L 1.417969 2.125 L 1.230469 2.359375 L 1.167969 2.441406 L 1.109375 2.523438 L 1.054688 2.605469 L 0.996094 2.6875 L 0.941406 2.773438 L 0.890625 2.855469 L 0.835938 2.941406 L 0.789062 3.027344 L 0.738281 3.117188 L 0.691406 3.203125 L 0.644531 3.292969 L 0.558594 3.472656 L 0.515625 3.566406 L 0.476562 3.65625 L 0.4375 3.75 L 0.332031 4.03125 L 0.300781 4.125 L 0.269531 4.222656 L 0.242188 4.316406 L 0.1875 4.511719 L 0.140625 4.707031 L 0.101562 4.902344 L 0.0820312 5.003906 L 0.0664062 5.101562 L 0.0546875 5.199219 L 0.0390625 5.300781 L 0.03125 5.398438 L 0.0195312 5.5 L 0.0117188 5.597656 L 0.00390625 5.800781 L 0 5.898438 L 0 270 L 0.0742188 270 M 266.851562 269.996094 L 266.925781 270 L 267 270 L 267 5.898438 L 266.996094 5.800781 L 266.988281 5.597656 L 266.980469 5.5 L 266.96875 5.398438 L 266.960938 5.300781 L 266.945312 5.199219 L 266.933594 5.101562 L 266.917969 5.003906 L 266.898438 4.902344 L 266.859375 4.707031 L 266.8125 4.511719 L 266.757812 4.316406 L 266.730469 4.222656 L 266.699219 4.125 L 266.667969 4.03125 L 266.5625 3.75 L 266.523438 3.65625 L 266.484375 3.566406 L 266.441406 3.472656 L 266.355469 3.292969 L 266.308594 3.203125 L 266.261719 3.117188 L 266.210938 3.027344 L 266.164062 2.941406 L 266.109375 2.855469 L 266.058594 2.773438 L 266.003906 2.6875 L 265.945312 2.605469 L 265.890625 2.523438 L 265.832031 2.441406 L 265.769531 2.359375 L 265.582031 2.125 L 265.382812 1.902344 L 265.3125 1.828125 L 265.171875 1.6875 L 265.097656 1.617188 L 264.875 1.417969 L 264.640625 1.230469 L 264.558594 1.167969 L 264.476562 1.109375 L 264.394531 1.054688 L 264.3125 0.996094 L 264.226562 0.941406 L 264.144531 0.890625 L 264.058594 0.835938 L 263.972656 0.789062 L 263.882812 0.738281 L 263.796875 0.691406 L 263.707031 0.644531 L 263.527344 0.558594 L 263.433594 0.515625 L 263.34375 0.476562 L 263.25 0.4375 L 262.96875 0.332031 L 262.875 0.300781 L 262.777344 0.269531 L 262.683594 0.242188 L 262.488281 0.1875 L 262.292969 0.140625 L 262.097656 0.101562 L 261.996094 0.0820312 L 261.898438 0.0664062 L 261.800781 0.0546875 L 261.699219 0.0390625 L 261.601562 0.03125 L 261.5 0.0195312 L 261.402344 0.0117188 L 261.199219 0.00390625 L 261.101562 0 L 5.898438 0 L 5.800781 0.00390625 M 10 280 L 257 280 L 257 279.925781 L 256.996094 279.851562 M 10.003906 279.851562 L 10 279.925781 L 10 280 "/>
</svg>
