<?xml version="1.0" encoding="UTF-8"?>
<svg xmlns="http://www.w3.org/2000/svg" xmlns:xlink="http://www.w3.org/1999/xlink" width="267mm" height="280mm" viewBox="0 0 267 280">
<path fill="none" stroke-width="0.2" stroke-linecap="butt" stroke-linejoin="miter" stroke="rgb(0%, 0%, 100%)" stroke-opacity="1" stroke-miterlimit="10" d="M 51.5 106.5 L 50.5 104.5 L 48.5 102.5 L 46.5 101.5 L 42.5 101.5 L 40.5 102.5 L 38.5 104.5 L 37.5 106.5 L 36.5 109.5 L 36.5 114.5 L 37.5 117.5 L 38.5 119.5 L 40.5 121.5 L 42.5 122.5 L 46.5 122.5 L 48.5 121.5 L 50.5 119.5 L 51.5 117.5 M 51.5 106.5 L 50.5 104.5 L 48.5 102.5 L 46.5 101.5 L 42.5 101.5 L 40.5 102.5 L 38.5 104.5 L 37.5 106.5 L 36.5 109.5 L 36.5 114.5 L 37.5 117.5 L 38.5 119.5 L 40.5 121.5 L 42.5 122.5 L 46.5 122.5 L 48.5 121.5 L 50.5 119.5 L 51.5 117.5 M 69.5 108.5 L 69.5 122.5 M 69.5 111.5 L 67.5 109.5 L 65.5 108.5 L 62.5 108.5 L 60.5 109.5 L 58.5 111.5 L 57.5 114.5 L 57.5 116.5 L 58.5 119.5 L 60.5 121.5 L 62.5 122.5 L 65.5 122.5 L 67.5 121.5 L 69.5 119.5 M 69.5 111.5 L 67.5 109.5 L 65.5 108.5 L 62.5 108.5 L 60.5 109.5 L 58.5 111.5 L 57.5 114.5 L 57.5 116.5 L 58.5 119.5 L 60.5 121.5 L 62.5 122.5 L 65.5 122.5 L 67.5 121.5 L 69.5 119.5 M 77.5 108.5 L 77.5 122.5 M 77.5 112.5 L 80.5 109.5 L 82.5 108.5 L 85.5 108.5 L 87.5 109.5 L 88.5 112.5 L 88.5 122.5 M 88.5 112.5 L 91.5 109.5 L 93.5 108.5 L 96.5 108.5 L 98.5 109.5 L 99.5 112.5 L 99.5 122.5 M 88.5 112.5 L 91.5 109.5 L 93.5 108.5 L 96.5 108.5 L 98.5 109.5 L 99.5 112.5 L 99.5 122.5 M 106.5 101.5 L 107.5 102.5 L 108.5 101.5 L 107.5 100.5 L 106.5 101.5 M 107.5 108.5 L 107.5 122.5 M 107.5 108.5 L 107.5 122.5 M 115.5 108.5 L 115.5 122.5 M 115.5 112.5 L 118.5 109.5 L 120.5 108.5 L 123.5 108.5 L 125.5 109.5 L 126.5 112.5 L 126.5 122.5 M 115.5 112.5 L 118.5 109.5 L 120.5 108.5 L 123.5 108.5 L 125.5 109.5 L 126.5 112.5 L 126.5 122.5 M 134.5 101.5 L 134.5 122.5 M 134.5 112.5 L 137.5 109.5 L 139.5 108.5 L 142.5 108.5 L 144.5 109.5 L 145.5 112.5 L 145.5 122.5 M 134.5 112.5 L 137.5 109.5 L 139.5 108.5 L 142.5 108.5 L 144.5 109.5 L 145.5 112.5 L 145.5 122.5 M 157.5 108.5 L 155.5 109.5 L 153.5 111.5 L 152.5 114.5 L 152.5 116.5 L 153.5 119.5 L 155.5 121.5 L 157.5 122.5 L 160.5 122.5 L 162.5 121.5 L 164.5 119.5 L 165.5 116.5 L 165.5 114.5 L 164.5 111.5 L 162.5 109.5 L 160.5 108.5 L 157.5 108.5 M 157.5 108.5 L 155.5 109.5 L 153.5 111.5 L 152.5 114.5 L 152.5 116.5 L 153.5 119.5 L 155.5 121.5 L 157.5 122.5 L 160.5 122.5 L 162.5 121.5 L 164.5 119.5 L 165.5 116.5 L 165.5 114.5 L 164.5 111.5 L 162.5 109.5 L 160.5 108.5 L 157.5 108.5 M 182.5 111.5 L 181.5 109.5 L 178.5 108.5 L 175.5 108.5 L 172.5 109.5 L 171.5 111.5 L 172.5 113.5 L 174.5 114.5 L 179.5 115.5 L 181.5 116.5 L 182.5 118.5 L 182.5 119.5 L 181.5 121.5 L 178.5 122.5 L 175.5 122.5 L 172.5 121.5 L 171.5 119.5 M 182.5 111.5 L 181.5 109.5 L 178.5 108.5 L 175.5 108.5 L 172.5 109.5 L 171.5 111.5 L 172.5 113.5 L 174.5 114.5 L 179.5 115.5 L 181.5 116.5 L 182.5 118.5 L 182.5 119.5 L 181.5 121.5 L 178.5 122.5 L 175.5 122.5 L 172.5 121.5 L 171.5 119.5 M 182.5 111.5 L 181.5 109.5 L 178.5 108.5 L 175.5 108.5 L 172.5 109.5 L 171.5 111.5 L 172.5 113.5 L 174.5 114.5 L 179.5 115.5 L 181.5 116.5 L 182.5 118.5 L 182.5 119.5 L 181.5 121.5 L 178.5 122.5 L 175.5 122.5 L 172.5 121.5 L 171.5 119.5 M 182.5 111.5 L 181.5 109.5 L 178.5 108.5 L 175.5 108.5 L 172.5 109.5 L 171.5 111.5 L 172.5 113.5 L 174.5 114.5 L 179.5 115.5 L 181.5 116.5 L 182.5 118.5 L 182.5 119.5 L 181.5 121.5 L 178.5 122.5 L 175.5 122.5 L 172.5 121.5 L 171.5 119.5 M 99.5 157.5 L 99.5 178.5 M 99.5 157.5 L 107.5 178.5 M 115.5 157.5 L 107.5 178.5 M 115.5 157.5 L 115.5 178.5 M 115.5 157.5 L 115.5 178.5 M 134.5 164.5 L 134.5 178.5 M 134.5 167.5 L 132.5 165.5 L 130.5 164.5 L 127.5 164.5 L 125.5 165.5 L 123.5 167.5 L 122.5 170.5 L 122.5 172.5 L 123.5 175.5 L 125.5 177.5 L 127.5 178.5 L 130.5 178.5 L 132.5 177.5 L 134.5 175.5 M 134.5 167.5 L 132.5 165.5 L 130.5 164.5 L 127.5 164.5 L 125.5 165.5 L 123.5 167.5 L 122.5 170.5 L 122.5 172.5 L 123.5 175.5 L 125.5 177.5 L 127.5 178.5 L 130.5 178.5 L 132.5 177.5 L 134.5 175.5 M 142.5 157.5 L 142.5 178.5 M 142.5 157.5 L 142.5 178.5 M 150.5 164.5 L 150.5 174.5 L 151.5 177.5 L 153.5 178.5 L 156.5 178.5 L 158.5 177.5 L 161.5 174.5 M 161.5 164.5 L 161.5 178.5 M 161.5 164.5 L 161.5 178.5 M 180.5 167.5 L 178.5 165.5 L 176.5 164.5 L 173.5 164.5 L 171.5 165.5 L 169.5 167.5 L 168.5 170.5 L 168.5 172.5 L 169.5 175.5 L 171.5 177.5 L 173.5 178.5 L 176.5 178.5 L 178.5 177.5 L 180.5 175.5 M 180.5 167.5 L 178.5 165.5 L 176.5 164.5 L 173.5 164.5 L 171.5 165.5 L 169.5 167.5 L 168.5 170.5 L 168.5 172.5 L 169.5 175.5 L 171.5 177.5 L 173.5 178.5 L 176.5 178.5 L 178.5 177.5 L 180.5 175.5 M 191.5 164.5 L 189.5 165.5 L 187.5 167.5 L 186.5 170.5 L 186.5 172.5 L 187.5 175.5 L 189.5 177.5 L 191.5 178.5 L 194.5 178.5 L 196.5 177.5 L 198.5 175.5 L 199.5 172.5 L 199.5 170.5 L 198.5 167.5 L 196.5 165.5 L 194.5 164.5 L 191.5 164.5 M 191.5 164.5 L 189.5 165.5 L 187.5 167.5 L 186.5 170.5 L 186.5 172.5 L 187.5 175.5 L 189.5 177.5 L 191.5 178.5 L 194.5 178.5 L 196.5 177.5 L 198.5 175.5 L 199.5 172.5 L 199.5 170.5 L 198.5 167.5 L 196.5 165.5 L 194.5 164.5 L 191.5 164.5 M 216.5 167.5 L 215.5 165.5 L 212.5 164.5 L 209.5 164.5 L 206.5 165.5 L 205.5 167.5 L 206.5 169.5 L 208.5 170.5 L 213.5 171.5 L 215.5 172.5 L 216.5 174.5 L 216.5 175.5 L 215.5 177.5 L 212.5 178.5 L 209.5 178.5 L 206.5 177.5 L 205.5 175.5 M 173.199219 269.800781 L 173.199219 274 M 171.800781 269.800781 L 174.601562 269.800781 M 171.800781 269.800781 L 174.601562 269.800781 M 175.398438 269.800781 L 175.601562 270 L 175.800781 269.800781 L 175.601562 269.601562 L 175.398438 269.800781 M 175.601562 271.199219 L 175.601562 274 M 175.601562 271.199219 L 175.601562 274 M 178 271.199219 L 177.601562 271.398438 L 177.199219 271.800781 L 177 272.398438 L 177 272.800781 L 177.199219 273.398438 L 177.601562 273.800781 L 178 274 L 178.601562 274 L 179 273.800781 L 179.398438 273.398438 L 179.601562 272.800781 L 179.601562 272.398438 L 179.398438 271.800781 L 179 271.398438 L 178.601562 271.199219 L 178 271.199219 M 178 271.199219 L 177.601562 271.398438 L 177.199219 271.800781 L 177 272.398438 L 177 272.800781 L 177.199219 273.398438 L 177.601562 273.800781 L 178 274 L 178.601562 274 L 179 273.800781 L 179.398438 273.398438 L 179.601562 272.800781 L 179.601562 272.398438 L 179.398438 271.800781 L 179 271.398438 L 178.601562 271.199219 L 178 271.199219 M 178 271.199219 L 177.601562 271.398438 L 177.199219 271.800781 L 177 272.398438 L 177 272.800781 L 177.199219 273.398438 L 177.601562 273.800781 L 178 274 L 178.601562 274 L 179 273.800781 L 179.398438 273.398438 L 179.601562 272.800781 L 179.601562 272.398438 L 179.398438 271.800781 L 179 271.398438 L 178.601562 271.199219 L 178 271.199219 M 184.199219 269.800781 L 184.199219 274 M 184.199219 269.800781 L 186 269.800781 L 186.601562 270 L 186.800781 270.199219 L 187 270.601562 L 187 271.199219 L 186.800781 271.601562 L 186.601562 271.800781 L 186 272 L 184.199219 272 M 184.199219 269.800781 L 186 269.800781 L 186.601562 270 L 186.800781 270.199219 L 187 270.601562 L 187 271.199219 L 186.800781 271.601562 L 186.601562 271.800781 L 186 272 L 184.199219 272 M 190.601562 271.199219 L 190.601562 274 M 190.601562 271.800781 L 190.199219 271.398438 L 189.800781 271.199219 L 189.199219 271.199219 L 188.800781 271.398438 L 188.398438 271.800781 L 188.199219 272.398438 L 188.199219 272.800781 L 188.398438 273.398438 L 188.800781 273.800781 L 189.199219 274 L 189.800781 274 L 190.199219 273.800781 L 190.601562 273.398438 M 190.601562 271.800781 L 190.199219 271.398438 L 189.800781 271.199219 L 189.199219 271.199219 L 188.800781 271.398438 L 188.398438 271.800781 L 188.199219 272.398438 L 188.199219 272.800781 L 188.398438 273.398438 L 188.800781 273.800781 L 189.199219 274 L 189.800781 274 L 190.199219 273.800781 L 190.601562 273.398438 M 192.199219 271.199219 L 192.199219 273.199219 L 192.398438 273.800781 L 192.800781 274 L 193.398438 274 L 193.800781 273.800781 L 194.398438 273.199219 M 194.398438 271.199219 L 194.398438 274 M 194.398438 271.199219 L 194.398438 274 M 196 269.800781 L 196 274 M 196 269.800781 L 196 274 M 198.398438 271.199219 L 198 271.398438 L 197.601562 271.800781 L 197.398438 272.398438 L 197.398438 272.800781 L 197.601562 273.398438 L 198 273.800781 L 198.398438 274 L 199 274 L 199.398438 273.800781 L 199.800781 273.398438 L 200 272.800781 L 200 272.398438 L 199.800781 271.800781 L 199.398438 271.398438 L 199 271.199219 L 198.398438 271.199219 M 198.398438 271.199219 L 198 271.398438 L 197.601562 271.800781 L 197.398438 272.398438 L 197.398438 272.800781 L 197.601562 273.398438 L 198 273.800781 L 198.398438 274 L 199 274 L 199.398438 273.800781 L 199.800781 273.398438 L 200 272.800781 L 200 272.398438 L 199.800781 271.800781 L 199.398438 271.398438 L 199 271.199219 L 198.398438 271.199219 M 198.398438 271.199219 L 198 271.398438 L 197.601562 271.800781 L 197.398438 272.398438 L 197.398438 272.800781 L 197.601562 273.398438 L 198 273.800781 L 198.398438 274 L 199 274 L 199.398438 273.800781 L 199.800781 273.398438 L 200 272.800781 L 200 272.398438 L 199.800781 271.800781 L 199.398438 271.398438 L 199 271.199219 L 198.398438 271.199219 M 204.601562 272.199219 L 208.199219 272.199219 M 204.601562 272.199219 L 208.199219 272.199219 M 204.601562 272.199219 L 208.199219 272.199219 M 214.601562 269.800781 L 214.601562 273 L 214.398438 273.601562 L 214.199219 273.800781 L 213.800781 274 L 213.398438 274 L 213 273.800781 L 212.800781 273.601562 L 212.601562 273 L 212.601562 272.601562 M 214.601562 269.800781 L 214.601562 273 L 214.398438 273.601562 L 214.199219 273.800781 L 213.800781 274 L 213.398438 274 L 213 273.800781 L 212.800781 273.601562 L 212.601562 273 L 212.601562 272.601562 M 216.199219 271.199219 L 216.199219 273.199219 L 216.398438 273.800781 L 216.800781 274 L 217.398438 274 L 217.800781 273.800781 L 218.398438 273.199219 M 218.398438 271.199219 L 218.398438 274 M 218.398438 271.199219 L 218.398438 274 M 220 271.199219 L 220 274 M 220 272 L 220.601562 271.398438 L 221 271.199219 L 221.601562 271.199219 L 222 271.398438 L 222.199219 272 L 222.199219 274 M 220 272 L 220.601562 271.398438 L 221 271.199219 L 221.601562 271.199219 L 222 271.398438 L 222.199219 272 L 222.199219 274 M 223.800781 269.800781 L 223.800781 274 M 223.800781 272 L 224.398438 271.398438 L 224.800781 271.199219 L 225.398438 271.199219 L 225.800781 271.398438 L 226 272 L 226 274 M 223.800781 272 L 224.398438 271.398438 L 224.800781 271.199219 L 225.398438 271.199219 L 225.800781 271.398438 L 226 272 L 226 274 M 228.398438 271.199219 L 228 271.398438 L 227.601562 271.800781 L 227.398438 272.398438 L 227.398438 272.800781 L 227.601562 273.398438 L 228 273.800781 L 228.398438 274 L 229 274 L 229.398438 273.800781 L 229.800781 273.398438 L 230 272.800781 L 230 272.398438 L 229.800781 271.800781 L 229.398438 271.398438 L 229 271.199219 L 228.398438 271.199219 M 228.398438 271.199219 L 228 271.398438 L 227.601562 271.800781 L 227.398438 272.398438 L 227.398438 272.800781 L 227.601562 273.398438 L 228 273.800781 L 228.398438 274 L 229 274 L 229.398438 273.800781 L 229.800781 273.398438 L 230 272.800781 L 230 272.398438 L 229.800781 271.800781 L 229.398438 271.398438 L 229 271.199219 L 228.398438 271.199219 M 234.601562 269 L 231 275.398438 M 234.601562 269 L 231 275.398438 M 235.800781 270.800781 L 235.800781 270.601562 L 236 270.199219 L 236.199219 270 L 236.601562 269.800781 L 237.398438 269.800781 L 237.800781 270 L 238 270.199219 L 238.199219 270.601562 L 238.199219 271 L 238 271.398438 L 237.601562 272 L 235.601562 274 L 238.398438 274 M 235.800781 270.800781 L 235.800781 270.601562 L 236 270.199219 L 236.199219 270 L 236.601562 269.800781 L 237.398438 269.800781 L 237.800781 270 L 238 270.199219 L 238.199219 270.601562 L 238.199219 271 L 238 271.398438 L 237.601562 272 L 235.601562 274 L 238.398438 274 M 240.800781 269.800781 L 240.199219 270 L 239.800781 270.601562 L 239.601562 271.601562 L 239.601562 272.199219 L 239.800781 273.199219 L 240.199219 273.800781 L 240.800781 274 L 241.199219 274 L 241.800781 273.800781 L 242.199219 273.199219 L 242.398438 272.199219 L 242.398438 271.601562 L 242.199219 270.601562 L 241.800781 270 L 241.199219 269.800781 L 240.800781 269.800781 M 240.800781 269.800781 L 240.199219 270 L 239.800781 270.601562 L 239.601562 271.601562 L 239.601562 272.199219 L 239.800781 273.199219 L 240.199219 273.800781 L 240.800781 274 L 241.199219 274 L 241.800781 273.800781 L 242.199219 273.199219 L 242.398438 272.199219 L 242.398438 271.601562 L 242.199219 270.601562 L 241.800781 270 L 241.199219 269.800781 L 240.800781 269.800781 M 244.199219 270.601562 L 244.601562 270.398438 L 245.199219 269.800781 L 245.199219 274 M 244.199219 270.601562 L 244.601562 270.398438 L 245.199219 269.800781 L 245.199219 274 M 250.199219 271.199219 L 250 271.800781 L 249.601562 272.199219 L 249 272.398438 L 248.800781 272.398438 L 248.199219 272.199219 L 247.800781 271.800781 L 247.601562 271.199219 L 247.601562 271 L 247.800781 270.398438 L 248.199219 270 L 248.800781 269.800781 L 249 269.800781 L 249.601562 270 L 250 270.398438 L 250.199219 271.199219 L 250.199219 272.199219 L 250 273.199219 L 249.601562 273.800781 L 249 274 L 248.601562 274 L 248 273.800781 L 247.800781 273.398438 "/>
</svg>
