<?xml version="1.0" encoding="UTF-8"?>
<svg xmlns="http://www.w3.org/2000/svg" xmlns:xlink="http://www.w3.org/1999/xlink" width="267mm" height="280mm" viewBox="0 0 267 280">
<path fill-rule="nonzero" fill="rgb(82%, 71%, 55%)" fill-opacity="1" d="M 5.898438 0 L 261.101562 0 L 261.199219 0.00390625 L 261.402344 0.0117188 L 261.5 0.0195312 L 261.601562 0.03125 L 261.699219 0.0390625 L 261.800781 0.0546875 L 261.898438 0.0664062 L 261.996094 0.0820312 L 262.097656 0.101562 L 262.292969 0.140625 L 262.488281 0.1875 L 262.683594 0.242188 L 262.777344 0.269531 L 262.875 0.300781 L 262.96875 0.332031 L 263.25 0.4375 L 263.34375 0.476562 L 263.433594 0.515625 L 263.527344 0.558594 L 263.707031 0.644531 L 263.796875 0.691406 L 263.882812 0.738281 L 263.972656 0.789062 L 264.058594 0.835938 L 264.144531 0.890625 L 264.226562 0.941406 L 264.3125 0.996094 L 264.394531 1.054688 L 264.476562 1.109375 L 264.558594 1.167969 L 264.640625 1.230469 L 264.875 1.417969 L 265.097656 1.617188 L 265.171875 1.6875 L 265.3125 1.828125 L 265.382812 1.902344 L 265.582031 2.125 L 265.769531 2.359375 L 265.832031 2.441406 L 265.890625 2.523438 L 265.945312 2.605469 L 266.003906 2.6875 L 266.058594 2.773438 L 266.109375 2.855469 L 266.164062 2.941406 L 266.210938 3.027344 L 266.261719 3.117188 L 266.308594 3.203125 L 266.355469 3.292969 L 266.441406 3.472656 L 266.484375 3.566406 L 266.523438 3.65625 L 266.5625 3.75 L 266.667969 4.03125 L 266.699219 4.125 L 266.730469 4.222656 L 266.757812 4.316406 L 266.8125 4.511719 L 266.859375 4.707031 L 266.898438 4.902344 L 266.917969 5.003906 L 266.933594 5.101562 L 266.945312 5.199219 L 266.960938 5.300781 L 266.96875 5.398438 L 266.980469 5.5 L 266.988281 5.597656 L 266.996094 5.800781 L 267 5.898438 L 267 270 L 264 270 L 263.3125 270.035156 L 262.632812 270.132812 L 261.96875 270.300781 L 261.320312 270.53125 L 260.699219 270.828125 L 260.109375 271.179688 L 259.558594 271.589844 L 259.050781 272.050781 L 258.589844 272.558594 L 258.179688 273.109375 L 257.828125 273.699219 L 257.53125 274.320312 L 257.300781 274.96875 L 257.132812 275.632812 L 257.035156 276.3125 L 257 277 L 257 280 L 10 280 L 10 277 L 9.964844 276.3125 L 9.867188 275.632812 L 9.699219 274.96875 L 9.46875 274.320312 L 9.171875 273.699219 L 8.820312 273.109375 L 8.410156 272.558594 L 7.949219 272.050781 L 7.441406 271.589844 L 6.890625 271.179688 L 6.300781 270.828125 L 5.679688 270.53125 L 5.03125 270.300781 L 4.367188 270.132812 L 3.6875 270.035156 L 3 270 L 0 270 L 0 5.898438 L 0.00390625 5.800781 L 0.0117188 5.597656 L 0.0195312 5.5 L 0.03125 5.398438 L 0.0390625 5.300781 L 0.0546875 5.199219 L 0.0664062 5.101562 L 0.0820312 5.003906 L 0.101562 4.902344 L 0.140625 4.707031 L 0.1875 4.511719 L 0.242188 4.316406 L 0.269531 4.222656 L 0.300781 4.125 L 0.332031 4.03125 L 0.4375 3.75 L 0.476562 3.65625 L 0.515625 3.566406 L 0.558594 3.472656 L 0.644531 3.292969 L 0.691406 3.203125 L 0.738281 3.117188 L 0.789062 3.027344 L 0.835938 2.941406 L 0.890625 2.855469 L 0.941406 2.773438 L 0.996094 2.6875 L 1.054688 2.605469 L 1.109375 2.523438 L 1.167969 2.441406 L 1.230469 2.359375 L 1.417969 2.125 L 1.617188 1.902344 L 1.6875 1.828125 L 1.828125 1.6875 L 1.902344 1.617188 L 2.125 1.417969 L 2.359375 1.230469 L 2.441406 1.167969 L 2.523438 1.109375 L 2.605469 1.054688 L 2.6875 0.996094 L 2.773438 0.941406 L 2.855469 0.890625 L 2.941406 0.835938 L 3.027344 0.789062 L 3.117188 0.738281 L 3.203125 0.691406 L 3.292969 0.644531 L 3.472656 0.558594 L 3.566406 0.515625 L 3.65625 0.476562 L 3.75 0.4375 L 4.03125 0.332031 L 4.125 0.300781 L 4.222656 0.269531 L 4.316406 0.242188 L 4.511719 0.1875 L 4.707031 0.140625 L 4.902344 0.101562 L 5.003906 0.0820312 L 5.101562 0.0664062 L 5.199219 0.0546875 L 5.300781 0.0390625 L 5.398438 0.03125 L 5.5 0.0195312 L 5.597656 0.0117188 L 5.800781 0.00390625 Z M 5.898438 0 L 261.101562 0 L 261.199219 0.00390625 L 261.402344 0.0117188 L 261.5 0.0195312 L 261.601562 0.03125 L 261.699219 0.0390625 L 261.800781 0.0546875 L 261.898438 0.0664062 L 261.996094 0.0820312 L 262.097656 0.101562 L 262.292969 0.140625 L 262.488281 0.1875 L 262.683594 0.242188 L 262.777344 0.269531 L 262.875 0.300781 L 262.96875 0.332031 L 263.25 0.4375 L 263.34375 0.476562 L 263.433594 0.515625 L 263.527344 0.558594 L 263.707031 0.644531 L 263.796875 0.691406 L 263.882812 0.738281 L 263.972656 0.789062 L 264.058594 0.835938 L 264.144531 0.890625 L 264.226562 0.941406 L 264.3125 0.996094 L 264.394531 1.054688 L 264.476562 1.109375 L 264.558594 1.167969 L 264.640625 1.230469 L 264.875 1.417969 L 265.097656 1.617188 L 265.171875 1.6875 L 265.3125 1.828125 L 265.382812 1.902344 L 265.582031 2.125 L 265.769531 2.359375 L 265.832031 2.441406 L 265.890625 2.523438 L 265.945312 2.605469 L 266.003906 2.6875 L 266.058594 2.773438 L 266.109375 2.855469 L 266.164062 2.941406 L 266.210938 3.027344 L 266.261719 3.117188 L 266.308594 3.203125 L 266.355469 3.292969 L 266.441406 3.472656 L 266.484375 3.566406 L 266.523438 3.65625 L 266.5625 3.75 L 266.667969 4.03125 L 266.699219 4.125 L 266.730469 4.222656 L 266.757812 4.316406 L 266.8125 4.511719 L 266.859375 4.707031 L 266.898438 4.902344 L 266.917969 5.003906 L 266.933594 5.101562 L 266.945312 5.199219 L 266.960938 5.300781 L 266.96875 5.398438 L 266.980469 5.5 L 266.988281 5.597656 L 266.996094 5.800781 L 267 5.898438 L 267 270 L 264 270 L 263.3125 270.035156 L 262.632812 270.132812 L 261.96875 270.300781 L 261.320312 270.53125 L 260.699219 270.828125 L 260.109375 271.179688 L 259.558594 271.589844 L 259.050781 272.050781 L 258.589844 272.558594 L 258.179688 273.109375 L 257.828125 273.699219 L 257.53125 274.320312 L 257.300781 274.96875 L 257.132812 275.632812 L 257.035156 276.3125 L 257 277 L 257 280 L 10 280 L 10 277 L 9.964844 276.3125 L 9.867188 275.632812 L 9.699219 274.96875 L 9.46875 274.320312 L 9.171875 273.699219 L 8.820312 273.109375 L 8.410156 272.558594 L 7.949219 272.050781 L 7.441406 271.589844 L 6.890625 271.179688 L 6.300781 270.828125 L 5.679688 270.53125 L 5.03125 270.300781 L 4.367188 270.132812 L 3.6875 270.035156 L 3 270 L 0 270 L 0 5.898438 L 0.00390625 5.800781 L 0.0117188 5.597656 L 0.0195312 5.5 L 0.03125 5.398438 L 0.0390625 5.300781 L 0.0546875 5.199219 L 0.0664062 5.101562 L 0.0820312 5.003906 L 0.101562 4.902344 L 0.140625 4.707031 L 0.1875 4.511719 L 0.242188 4.316406 L 0.269531 4.222656 L 0.300781 4.125 L 0.332031 4.03125 L 0.4375 3.75 L 0.476562 3.65625 L 0.515625 3.566406 L 0.558594 3.472656 L 0.644531 3.292969 L 0.691406 3.203125 L 0.738281 3.117188 L 0.789062 3.027344 L 0.835938 2.941406 L 0.890625 2.855469 L 0.941406 2.773438 L 0.996094 2.6875 L 1.054688 2.605469 L 1.109375 2.523438 L 1.167969 2.441406 L 1.230469 2.359375 L 1.417969 2.125 L 1.617188 1.902344 L 1.6875 1.828125 L 1.828125 1.6875 L 1.902344 1.617188 L 2.125 1.417969 L 2.359375 1.230469 L 2.441406 1.167969 L 2.523438 1.109375 L 2.605469 1.054688 L 2.6875 0.996094 L 2.773438 0.941406 L 2.855469 0.890625 L 2.941406 0.835938 L 3.027344 0.789062 L 3.117188 0.738281 L 3.203125 0.691406 L 3.292969 0.644531 L 3.472656 0.558594 L 3.566406 0.515625 L 3.65625 0.476562 L 3.75 0.4375 L 4.03125 0.332031 L 4.125 0.300781 L 4.222656 0.269531 L 4.316406 0.242188 L 4.511719 0.1875 L 4.707031 0.140625 L 4.902344 0.101562 L 5.003906 0.0820312 L 5.101562 0.0664062 L 5.199219 0.0546875 L 5.300781 0.0390625 L 5.398438 0.03125 L 5.5 0.0195312 L 5.597656 0.0117188 L 5.800781 0.00390625 Z M 5.898438 0 "/>
<path fill="none" stroke-width="0.2" stroke-linecap="butt" stroke-linejoin="miter" stroke="rgb(0%, 0%, 0%)" stroke-opacity="1" stroke-miterlimit="10" d="M 5.898438 0 L 5.800781 0.00390625 M 5.800781 0.00390625 L 5.699219 0.0078125 M 5.699219 0.0078125 L 5.597656 0.0117188 M 5.597656 0.0117188 L 5.5 0.0195312 M 5.5 0.0195312 L 5.398438 0.03125 M 5.398438 0.03125 L 5.300781 0.0390625 M 5.300781 0.0390625 L 5.199219 0.0546875 M 5.199219 0.0546875 L 5.101562 0.0664062 M 5.101562 0.0664062 L 5.003906 0.0820312 M 5.003906 0.0820312 L 4.902344 0.101562 M 4.902344 0.101562 L 4.804688 0.121094 M 4.804688 0.121094 L 4.707031 0.140625 M 4.707031 0.140625 L 4.609375 0.164062 M 4.609375 0.164062 L 4.511719 0.1875 M 4.511719 0.1875 L 4.414062 0.214844 M 4.414062 0.214844 L 4.316406 0.242188 M 4.316406 0.242188 L 4.222656 0.269531 M 4.222656 0.269531 L 4.125 0.300781 M 4.125 0.300781 L 4.03125 0.332031 M 4.03125 0.332031 L 3.9375 0.367188 M 3.9375 0.367188 L 3.84375 0.402344 M 3.84375 0.402344 L 3.75 0.4375 M 3.75 0.4375 L 3.65625 0.476562 M 3.65625 0.476562 L 3.566406 0.515625 M 3.566406 0.515625 L 3.472656 0.558594 M 3.472656 0.558594 L 3.382812 0.601562 M 3.382812 0.601562 L 3.292969 0.644531 M 3.292969 0.644531 L 3.203125 0.691406 M 3.203125 0.691406 L 3.117188 0.738281 M 3.117188 0.738281 L 3.027344 0.789062 M 3.027344 0.789062 L 2.941406 0.835938 M 2.941406 0.835938 L 2.855469 0.890625 M 2.855469 0.890625 L 2.773438 0.941406 M 2.773438 0.941406 L 2.6875 0.996094 M 2.6875 0.996094 L 2.605469 1.054688 M 2.605469 1.054688 L 2.523438 1.109375 M 2.523438 1.109375 L 2.441406 1.167969 M 2.441406 1.167969 L 2.359375 1.230469 M 2.359375 1.230469 L 2.28125 1.292969 M 2.28125 1.292969 L 2.203125 1.355469 M 2.203125 1.355469 L 2.125 1.417969 M 2.125 1.417969 L 2.050781 1.484375 M 2.050781 1.484375 L 1.976562 1.550781 M 1.976562 1.550781 L 1.902344 1.617188 M 1.902344 1.617188 L 1.828125 1.6875 M 1.828125 1.6875 L 1.757812 1.757812 M 1.757812 1.757812 L 1.6875 1.828125 M 1.6875 1.828125 L 1.617188 1.902344 M 1.617188 1.902344 L 1.550781 1.976562 M 1.550781 1.976562 L 1.484375 2.050781 M 1.484375 2.050781 L 1.417969 2.125 M 1.417969 2.125 L 1.355469 2.203125 M 1.355469 2.203125 L 1.292969 2.28125 M 1.292969 2.28125 L 1.230469 2.359375 M 1.230469 2.359375 L 1.167969 2.441406 M 1.167969 2.441406 L 1.109375 2.523438 M 1.109375 2.523438 L 1.054688 2.605469 M 1.054688 2.605469 L 0.996094 2.6875 M 0.996094 2.6875 L 0.941406 2.773438 M 0.941406 2.773438 L 0.890625 2.855469 M 0.890625 2.855469 L 0.835938 2.941406 M 0.835938 2.941406 L 0.789062 3.027344 M 0.789062 3.027344 L 0.738281 3.117188 M 0.738281 3.117188 L 0.691406 3.203125 M 0.691406 3.203125 L 0.644531 3.292969 M 0.644531 3.292969 L 0.601562 3.382812 M 0.601562 3.382812 L 0.558594 3.472656 M 0.558594 3.472656 L 0.515625 3.566406 M 0.515625 3.566406 L 0.476562 3.65625 M 0.476562 3.65625 L 0.4375 3.75 M 0.4375 3.75 L 0.402344 3.84375 M 0.402344 3.84375 L 0.367188 3.9375 M 0.367188 3.9375 L 0.332031 4.03125 M 0.332031 4.03125 L 0.300781 4.125 M 0.300781 4.125 L 0.269531 4.222656 M 0.269531 4.222656 L 0.242188 4.316406 M 0.242188 4.316406 L 0.214844 4.414062 M 0.214844 4.414062 L 0.1875 4.511719 M 0.1875 4.511719 L 0.164062 4.609375 M 0.164062 4.609375 L 0.140625 4.707031 M 0.140625 4.707031 L 0.121094 4.804688 M 0.121094 4.804688 L 0.101562 4.902344 M 0.101562 4.902344 L 0.0820312 5.003906 M 0.0820312 5.003906 L 0.0664062 5.101562 M 0.0664062 5.101562 L 0.0546875 5.199219 M 0.0546875 5.199219 L 0.0390625 5.300781 M 0.0390625 5.300781 L 0.03125 5.398438 M 0.03125 5.398438 L 0.0195312 5.5 M 0.0195312 5.5 L 0.0117188 5.597656 M 0.0117188 5.597656 L 0.0078125 5.699219 M 0.0078125 5.699219 L 0.00390625 5.800781 M 0.00390625 5.800781 L 0 5.898438 M 0 5.898438 L 0 6 M 0 6 L 0 270 M 0 270 L 3 270 M 3 270 L 3.6875 270.035156 M 3.6875 270.035156 L 4.367188 270.132812 M 4.367188 270.132812 L 5.03125 270.300781 M 5.03125 270.300781 L 5.679688 270.53125 M 5.679688 270.53125 L 6.300781 270.828125 M 6.300781 270.828125 L 6.890625 271.179688 M 6.890625 271.179688 L 7.441406 271.589844 M 7.441406 271.589844 L 7.949219 272.050781 M 7.949219 272.050781 L 8.410156 272.558594 M 8.410156 272.558594 L 8.820312 273.109375 M 8.820312 273.109375 L 9.171875 273.699219 M 9.171875 273.699219 L 9.46875 274.320312 M 9.46875 274.320312 L 9.699219 274.96875 M 9.699219 274.96875 L 9.867188 275.632812 M 9.867188 275.632812 L 9.964844 276.3125 M 9.964844 276.3125 L 10 277 M 10 277 L 10 280 M 10 280 L 257 280 M 257 280 L 257 277 M 257 277 L 257.035156 276.3125 M 257.035156 276.3125 L 257.132812 275.632812 M 257.132812 275.632812 L 257.300781 274.96875 M 257.300781 274.96875 L 257.53125 274.320312 M 257.53125 274.320312 L 257.828125 273.699219 M 257.828125 273.699219 L 258.179688 273.109375 M 258.179688 273.109375 L 258.589844 272.558594 M 258.589844 272.558594 L 259.050781 272.050781 M 259.050781 272.050781 L 259.558594 271.589844 M 259.558594 271.589844 L 260.109375 271.179688 M 260.109375 271.179688 L 260.699219 270.828125 M 260.699219 270.828125 L 261.320312 270.53125 M 261.320312 270.53125 L 261.96875 270.300781 M 261.96875 270.300781 L 262.632812 270.132812 M 262.632812 270.132812 L 263.3125 270.035156 M 263.3125 270.035156 L 264 270 M 264 270 L 267 270 M 267 270 L 267 6 M 267 6 L 267 5.898438 M 267 5.898438 L 266.996094 5.800781 M 266.996094 5.800781 L 266.992188 5.699219 M 266.992188 5.699219 L 266.988281 5.597656 M 266.988281 5.597656 L 266.980469 5.5 M 266.980469 5.5 L 266.96875 5.398438 M 266.96875 5.398438 L 266.960938 5.300781 M 266.960938 5.300781 L 266.945312 5.199219 M 266.945312 5.199219 L 266.933594 5.101562 M 266.933594 5.101562 L 266.917969 5.003906 M 266.917969 5.003906 L 266.898438 4.902344 M 266.898438 4.902344 L 266.878906 4.804688 M 266.878906 4.804688 L 266.859375 4.707031 M 266.859375 4.707031 L 266.835938 4.609375 M 266.835938 4.609375 L 266.8125 4.511719 M 266.8125 4.511719 L 266.785156 4.414062 M 266.785156 4.414062 L 266.757812 4.316406 M 266.757812 4.316406 L 266.730469 4.222656 M 266.730469 4.222656 L 266.699219 4.125 M 266.699219 4.125 L 266.667969 4.03125 M 266.667969 4.03125 L 266.632812 3.9375 M 266.632812 3.9375 L 266.597656 3.84375 M 266.597656 3.84375 L 266.5625 3.75 M 266.5625 3.75 L 266.523438 3.65625 M 266.523438 3.65625 L 266.484375 3.566406 M 266.484375 3.566406 L 266.441406 3.472656 M 266.441406 3.472656 L 266.398438 3.382812 M 266.398438 3.382812 L 266.355469 3.292969 M 266.355469 3.292969 L 266.308594 3.203125 M 266.308594 3.203125 L 266.261719 3.117188 M 266.261719 3.117188 L 266.210938 3.027344 M 266.210938 3.027344 L 266.164062 2.941406 M 266.164062 2.941406 L 266.109375 2.855469 M 266.109375 2.855469 L 266.058594 2.773438 M 266.058594 2.773438 L 266.003906 2.6875 M 266.003906 2.6875 L 265.945312 2.605469 M 265.945312 2.605469 L 265.890625 2.523438 M 265.890625 2.523438 L 265.832031 2.441406 M 265.832031 2.441406 L 265.769531 2.359375 M 265.769531 2.359375 L 265.707031 2.28125 M 265.707031 2.28125 L 265.644531 2.203125 M 265.644531 2.203125 L 265.582031 2.125 M 265.582031 2.125 L 265.515625 2.050781 M 265.515625 2.050781 L 265.449219 1.976562 M 265.449219 1.976562 L 265.382812 1.902344 M 265.382812 1.902344 L 265.3125 1.828125 M 265.3125 1.828125 L 265.242188 1.757812 M 265.242188 1.757812 L 265.171875 1.6875 M 265.171875 1.6875 L 265.097656 1.617188 M 265.097656 1.617188 L 265.023438 1.550781 M 265.023438 1.550781 L 264.949219 1.484375 M 264.949219 1.484375 L 264.875 1.417969 M 264.875 1.417969 L 264.796875 1.355469 M 264.796875 1.355469 L 264.71875 1.292969 M 264.71875 1.292969 L 264.640625 1.230469 M 264.640625 1.230469 L 264.558594 1.167969 M 264.558594 1.167969 L 264.476562 1.109375 M 264.476562 1.109375 L 264.394531 1.054688 M 264.394531 1.054688 L 264.3125 0.996094 M 264.3125 0.996094 L 264.226562 0.941406 M 264.226562 0.941406 L 264.144531 0.890625 M 264.144531 0.890625 L 264.058594 0.835938 M 264.058594 0.835938 L 263.972656 0.789062 M 263.972656 0.789062 L 263.882812 0.738281 M 263.882812 0.738281 L 263.796875 0.691406 M 263.796875 0.691406 L 263.707031 0.644531 M 263.707031 0.644531 L 263.617188 0.601562 M 263.617188 0.601562 L 263.527344 0.558594 M 263.527344 0.558594 L 263.433594 0.515625 M 263.433594 0.515625 L 263.34375 0.476562 M 263.34375 0.476562 L 263.25 0.4375 M 263.25 0.4375 L 263.15625 0.402344 M 263.15625 0.402344 L 263.0625 0.367188 M 263.0625 0.367188 L 262.96875 0.332031 M 262.96875 0.332031 L 262.875 0.300781 M 262.875 0.300781 L 262.777344 0.269531 M 262.777344 0.269531 L 262.683594 0.242188 M 262.683594 0.242188 L 262.585938 0.214844 M 262.585938 0.214844 L 262.488281 0.1875 M 262.488281 0.1875 L 262.390625 0.164062 M 262.390625 0.164062 L 262.292969 0.140625 M 262.292969 0.140625 L 262.195312 0.121094 M 262.195312 0.121094 L 262.097656 0.101562 M 262.097656 0.101562 L 261.996094 0.0820312 M 261.996094 0.0820312 L 261.898438 0.0664062 M 261.898438 0.0664062 L 261.800781 0.0546875 M 261.800781 0.0546875 L 261.699219 0.0390625 M 261.699219 0.0390625 L 261.601562 0.03125 M 261.601562 0.03125 L 261.5 0.0195312 M 261.5 0.0195312 L 261.402344 0.0117188 M 261.402344 0.0117188 L 261.300781 0.0078125 M 261.300781 0.0078125 L 261.199219 0.00390625 M 261.199219 0.00390625 L 261.101562 0 M 261.101562 0 L 261 0 M 261 0 L 6 0 M 6 0 L 5.898438 0 "/>
<path fill="none" stroke-width="0.2" stroke-linecap="butt" stroke-linejoin="miter" stroke="rgb(23%, 13%, 6%)" stroke-opacity="1" stroke-miterlimit="10" d="M 51.5 106.5 L 50.5 104.5 L 48.5 102.5 L 46.5 101.5 L 42.5 101.5 L 40.5 102.5 L 38.5 104.5 L 37.5 106.5 L 36.5 109.5 L 36.5 114.5 L 37.5 117.5 L 38.5 119.5 L 40.5 121.5 L 42.5 122.5 L 46.5 122.5 L 48.5 121.5 L 50.5 119.5 L 51.5 117.5 M 51.5 106.5 L 50.5 104.5 L 48.5 102.5 L 46.5 101.5 L 42.5 101.5 L 40.5 102.5 L 38.5 104.5 L 37.5 106.5 L 36.5 109.5 L 36.5 114.5 L 37.5 117.5 L 38.5 119.5 L 40.5 121.5 L 42.5 122.5 L 46.5 122.5 L 48.5 121.5 L 50.5 119.5 L 51.5 117.5 M 69.5 108.5 L 69.5 122.5 M 69.5 111.5 L 67.5 109.5 L 65.5 108.5 L 62.5 108.5 L 60.5 109.5 L 58.5 111.5 L 57.5 114.5 L 57.5 116.5 L 58.5 119.5 L 60.5 121.5 L 62.5 122.5 L 65.5 122.5 L 67.5 121.5 L 69.5 119.5 M 69.5 111.5 L 67.5 109.5 L 65.5 108.5 L 62.5 108.5 L 60.5 109.5 L 58.5 111.5 L 57.5 114.5 L 57.5 116.5 L 58.5 119.5 L 60.5 121.5 L 62.5 122.5 L 65.5 122.5 L 67.5 121.5 L 69.5 119.5 M 77.5 108.5 L 77.5 122.5 M 77.5 112.5 L 80.5 109.5 L 82.5 108.5 L 85.5 108.5 L 87.5 109.5 L 88.5 112.5 L 88.5 122.5 M 88.5 112.5 L 91.5 109.5 L 93.5 108.5 L 96.5 108.5 L 98.5 109.5 L 99.5 112.5 L 99.5 122.5 M 88.5 112.5 L 91.5 109.5 L 93.5 108.5 L 96.5 108.5 L 98.5 109.5 L 99.5 112.5 L 99.5 122.5 M 106.5 101.5 L 107.5 102.5 L 108.5 101.5 L 107.5 100.5 L 106.5 101.5 M 107.5 108.5 L 107.5 122.5 M 107.5 108.5 L 107.5 122.5 M 115.5 108.5 L 115.5 122.5 M 115.5 112.5 L 118.5 109.5 L 120.5 108.5 L 123.5 108.5 L 125.5 109.5 L 126.5 112.5 L 126.5 122.5 M 115.5 112.5 L 118.5 109.5 L 120.5 108.5 L 123.5 108.5 L 125.5 109.5 L 126.5 112.5 L 126.5 122.5 M 134.5 101.5 L 134.5 122.5 M 134.5 112.5 L 137.5 109.5 L 139.5 108.5 L 142.5 108.5 L 144.5 109.5 L 145.5 112.5 L 145.5 122.5 M 134.5 112.5 L 137.5 109.5 L 139.5 108.5 L 142.5 108.5 L 144.5 109.5 L 145.5 112.5 L 145.5 122.5 M 157.5 108.5 L 155.5 109.5 L 153.5 111.5 L 152.5 114.5 L 152.5 116.5 L 153.5 119.5 L 155.5 121.5 L 157.5 122.5 L 160.5 122.5 L 162.5 121.5 L 164.5 119.5 L 165.5 116.5 L 165.5 114.5 L 164.5 111.5 L 162.5 109.5 L 160.5 108.5 L 157.5 108.5 M 157.5 108.5 L 155.5 109.5 L 153.5 111.5 L 152.5 114.5 L 152.5 116.5 L 153.5 119.5 L 155.5 121.5 L 157.5 122.5 L 160.5 122.5 L 162.5 121.5 L 164.5 119.5 L 165.5 116.5 L 165.5 114.5 L 164.5 111.5 L 162.5 109.5 L 160.5 108.5 L 157.5 108.5 M 182.5 111.5 L 181.5 109.5 L 178.5 108.5 L 175.5 108.5 L 172.5 109.5 L 171.5 111.5 L 172.5 113.5 L 174.5 114.5 L 179.5 115.5 L 181.5 116.5 L 182.5 118.5 L 182.5 119.5 L 181.5 121.5 L 178.5 122.5 L 175.5 122.5 L 172.5 121.5 L 171.5 119.5 M 182.5 111.5 L 181.5 109.5 L 178.5 108.5 L 175.5 108.5 L 172.5 109.5 L 171.5 111.5 L 172.5 113.5 L 174.5 114.5 L 179.5 115.5 L 181.5 116.5 L 182.5 118.5 L 182.5 119.5 L 181.5 121.5 L 178.5 122.5 L 175.5 122.5 L 172.5 121.5 L 171.5 119.5 M 182.5 111.5 L 181.5 109.5 L 178.5 108.5 L 175.5 108.5 L 172.5 109.5 L 171.5 111.5 L 172.5 113.5 L 174.5 114.5 L 179.5 115.5 L 181.5 116.5 L 182.5 118.5 L 182.5 119.5 L 181.5 121.5 L 178.5 122.5 L 175.5 122.5 L 172.5 121.5 L 171.5 119.5 M 182.5 111.5 L 181.5 109.5 L 178.5 108.5 L 175.5 108.5 L 172.5 109.5 L 171.5 111.5 L 172.5 113.5 L 174.5 114.5 L 179.5 115.5 L 181.5 116.5 L 182.5 118.5 L 182.5 119.5 L 181.5 121.5 L 178.5 122.5 L 175.5 122.5 L 172.5 121.5 L 171.5 119.5 M 99.5 157.5 L 99.5 178.5 M 99.5 157.5 L 107.5 178.5 M 115.5 157.5 L 107.5 178.5 M 115.5 157.5 L 115.5 178.5 M 115.5 157.5 L 115.5 178.5 M 134.5 164.5 L 134.5 178.5 M 134.5 167.5 L 132.5 165.5 L 130.5 164.5 L 127.5 164.5 L 125.5 165.5 L 123.5 167.5 L 122.5 170.5 L 122.5 172.5 L 123.5 175.5 L 125.5 177.5 L 127.5 178.5 L 130.5 178.5 L 132.5 177.5 L 134.5 175.5 M 134.5 167.5 L 132.5 165.5 L 130.5 164.5 L 127.5 164.5 L 125.5 165.5 L 123.5 167.5 L 122.5 170.5 L 122.5 172.5 L 123.5 175.5 L 125.5 177.5 L 127.5 178.5 L 130.5 178.5 L 132.5 177.5 L 134.5 175.5 M 142.5 157.5 L 142.5 178.5 M 142.5 157.5 L 142.5 178.5 M 150.5 164.5 L 150.5 174.5 L 151.5 177.5 L 153.5 178.5 L 156.5 178.5 L 158.5 177.5 L 161.5 174.5 M 161.5 164.5 L 161.5 178.5 M 161.5 164.5 L 161.5 178.5 M 180.5 167.5 L 178.5 165.5 L 176.5 164.5 L 173.5 164.5 L 171.5 165.5 L 169.5 167.5 L 168.5 170.5 L 168.5 172.5 L 169.5 175.5 L 171.5 177.5 L 173.5 178.5 L 176.5 178.5 L 178.5 177.5 L 180.5 175.5 M 180.5 167.5 L 178.5 165.5 L 176.5 164.5 L 173.5 164.5 L 171.5 165.5 L 169.5 167.5 L 168.5 170.5 L 168.5 172.5 L 169.5 175.5 L 171.5 177.5 L 173.5 178.5 L 176.5 178.5 L 178.5 177.5 L 180.5 175.5 M 191.5 164.5 L 189.5 165.5 L 187.5 167.5 L 186.5 170.5 L 186.5 172.5 L 187.5 175.5 L 189.5 177.5 L 191.5 178.5 L 194.5 178.5 L 196.5 177.5 L 198.5 175.5 L 199.5 172.5 L 199.5 170.5 L 198.5 167.5 L 196.5 165.5 L 194.5 164.5 L 191.5 164.5 M 191.5 164.5 L 189.5 165.5 L 187.5 167.5 L 186.5 170.5 L 186.5 172.5 L 187.5 175.5 L 189.5 177.5 L 191.5 178.5 L 194.5 178.5 L 196.5 177.5 L 198.5 175.5 L 199.5 172.5 L 199.5 170.5 L 198.5 167.5 L 196.5 165.5 L 194.5 164.5 L 191.5 164.5 M 216.5 167.5 L 215.5 165.5 L 212.5 164.5 L 209.5 164.5 L 206.5 165.5 L 205.5 167.5 L 206.5 169.5 L 208.5 170.5 L 213.5 171.5 L 215.5 172.5 L 216.5 174.5 L 216.5 175.5 L 215.5 177.5 L 212.5 178.5 L 209.5 178.5 L 206.5 177.5 L 205.5 175.5 M 173.199219 269.800781 L 173.199219 274 M 171.800781 269.800781 L 174.601562 269.800781 M 171.800781 269.800781 L 174.601562 269.800781 M 175.398438 269.800781 L 175.601562 270 L 175.800781 269.800781 L 175.601562 269.601562 L 175.398438 269.800781 M 175.601562 271.199219 L 175.601562 274 M 175.601562 271.199219 L 175.601562 274 M 178 271.199219 L 177.601562 271.398438 L 177.199219 271.800781 L 177 272.398438 L 177 272.800781 L 177.199219 273.398438 L 177.601562 273.800781 L 178 274 L 178.601562 274 L 179 273.800781 L 179.398438 273.398438 L 179.601562 272.800781 L 179.601562 272.398438 L 179.398438 271.800781 L 179 271.398438 L 178.601562 271.199219 L 178 271.199219 M 178 271.199219 L 177.601562 271.398438 L 177.199219 271.800781 L 177 272.398438 L 177 272.800781 L 177.199219 273.398438 L 177.601562 273.800781 L 178 274 L 178.601562 274 L 179 273.800781 L 179.398438 273.398438 L 179.601562 272.800781 L 179.601562 272.398438 L 179.398438 271.800781 L 179 271.398438 L 178.601562 271.199219 L 178 271.199219 M 178 271.199219 L 177.601562 271.398438 L 177.199219 271.800781 L 177 272.398438 L 177 272.800781 L 177.199219 273.398438 L 177.601562 273.800781 L 178 274 L 178.601562 274 L 179 273.800781 L 179.398438 273.398438 L 179.601562 272.800781 L 179.601562 272.398438 L 179.398438 271.800781 L 179 271.398438 L 178.601562 271.199219 L 178 271.199219 M 184.199219 269.800781 L 184.199219 274 M 184.199219 269.800781 L 186 269.800781 L 186.601562 270 L 186.800781 270.199219 L 187 270.601562 L 187 271.199219 L 186.800781 271.601562 L 186.601562 271.800781 L 186 272 L 184.199219 272 M 184.199219 269.800781 L 186 269.800781 L 186.601562 270 L 186.800781 270.199219 L 187 270.601562 L 187 271.199219 L 186.800781 271.601562 L 186.601562 271.800781 L 186 272 L 184.199219 272 M 190.601562 271.199219 L 190.601562 274 M 190.601562 271.800781 L 190.199219 271.398438 L 189.800781 271.199219 L 189.199219 271.199219 L 188.800781 271.398438 L 188.398438 271.800781 L 188.199219 272.398438 L 188.199219 272.800781 L 188.398438 273.398438 L 188.800781 273.800781 L 189.199219 274 L 189.800781 274 L 190.199219 273.800781 L 190.601562 273.398438 M 190.601562 271.800781 L 190.199219 271.398438 L 189.800781 271.199219 L 189.199219 271.199219 L 188.800781 271.398438 L 188.398438 271.800781 L 188.199219 272.398438 L 188.199219 272.800781 L 188.398438 273.398438 L 188.800781 273.800781 L 189.199219 274 L 189.800781 274 L 190.199219 273.800781 L 190.601562 273.398438 M 192.199219 271.199219 L 192.199219 273.199219 L 192.398438 273.800781 L 192.800781 274 L 193.398438 274 L 193.800781 273.800781 L 194.398438 273.199219 M 194.398438 271.199219 L 194.398438 274 M 194.398438 271.199219 L 194.398438 274 M 196 269.800781 L 196 274 M 196 269.800781 L 196 274 M 198.398438 271.199219 L 198 271.398438 L 197.601562 271.800781 L 197.398438 272.398438 L 197.398438 272.800781 L 197.601562 273.398438 L 198 273.800781 L 198.398438 274 L 199 274 L 199.398438 273.800781 L 199.800781 273.398438 L 200 272.800781 L 200 272.398438 L 199.800781 271.800781 L 199.398438 271.398438 L 199 271.199219 L 198.398438 271.199219 M 198.398438 271.199219 L 198 271.398438 L 197.601562 271.800781 L 197.398438 272.398438 L 197.398438 272.800781 L 197.601562 273.398438 L 198 273.800781 L 198.398438 274 L 199 274 L 199.398438 273.800781 L 199.800781 273.398438 L 200 272.800781 L 200 272.398438 L 199.800781 271.800781 L 199.398438 271.398438 L 199 271.199219 L 198.398438 271.199219 M 198.398438 271.199219 L 198 271.398438 L 197.601562 271.800781 L 197.398438 272.398438 L 197.398438 272.800781 L 197.601562 273.398438 L 198 273.800781 L 198.398438 274 L 199 274 L 199.398438 273.800781 L 199.800781 273.398438 L 200 272.800781 L 200 272.398438 L 199.800781 271.800781 L 199.398438 271.398438 L 199 271.199219 L 198.398438 271.199219 M 204.601562 272.199219 L 208.199219 272.199219 M 204.601562 272.199219 L 208.199219 272.199219 M 204.601562 272.199219 L 208.199219 272.199219 M 214.601562 269.800781 L 214.601562 273 L 214.398438 273.601562 L 214.199219 273.800781 L 213.800781 274 L 213.398438 274 L 213 273.800781 L 212.800781 273.601562 L 212.601562 273 L 212.601562 272.601562 M 214.601562 269.800781 L 214.601562 273 L 214.398438 273.601562 L 214.199219 273.800781 L 213.800781 274 L 213.398438 274 L 213 273.800781 L 212.800781 273.601562 L 212.601562 273 L 212.601562 272.601562 M 216.199219 271.199219 L 216.199219 273.199219 L 216.398438 273.800781 L 216.800781 274 L 217.398438 274 L 217.800781 273.800781 L 218.398438 273.199219 M 218.398438 271.199219 L 218.398438 274 M 218.398438 271.199219 L 218.398438 274 M 220 271.199219 L 220 274 M 220 272 L 220.601562 271.398438 L 221 271.199219 L 221.601562 271.199219 L 222 271.398438 L 222.199219 272 L 222.199219 274 M 220 272 L 220.601562 271.398438 L 221 271.199219 L 221.601562 271.199219 L 222 271.398438 L 222.199219 272 L 222.199219 274 M 223.800781 269.800781 L 223.800781 274 M 223.800781 272 L 224.398438 271.398438 L 224.800781 271.199219 L 225.398438 271.199219 L 225.800781 271.398438 L 226 272 L 226 274 M 223.800781 272 L 224.398438 271.398438 L 224.800781 271.199219 L 225.398438 271.199219 L 225.800781 271.398438 L 226 272 L 226 274 M 228.398438 271.199219 L 228 271.398438 L 227.601562 271.800781 L 227.398438 272.398438 L 227.398438 272.800781 L 227.601562 273.398438 L 228 273.800781 L 228.398438 274 L 229 274 L 229.398438 273.800781 L 229.800781 273.398438 L 230 272.800781 L 230 272.398438 L 229.800781 271.800781 L 229.398438 271.398438 L 229 271.199219 L 228.398438 271.199219 M 228.398438 271.199219 L 228 271.398438 L 227.601562 271.800781 L 227.398438 272.398438 L 227.398438 272.800781 L 227.601562 273.398438 L 228 273.800781 L 228.398438 274 L 229 274 L 229.398438 273.800781 L 229.800781 273.398438 L 230 272.800781 L 230 272.398438 L 229.800781 271.800781 L 229.398438 271.398438 L 229 271.199219 L 228.398438 271.199219 M 234.601562 269 L 231 275.398438 M 234.601562 269 L 231 275.398438 M 235.800781 270.800781 L 235.800781 270.601562 L 236 270.199219 L 236.199219 270 L 236.601562 269.800781 L 237.398438 269.800781 L 237.800781 270 L 238 270.199219 L 238.199219 270.601562 L 238.199219 271 L 238 271.398438 L 237.601562 272 L 235.601562 274 L 238.398438 274 M 235.800781 270.800781 L 235.800781 270.601562 L 236 270.199219 L 236.199219 270 L 236.601562 269.800781 L 237.398438 269.800781 L 237.800781 270 L 238 270.199219 L 238.199219 270.601562 L 238.199219 271 L 238 271.398438 L 237.601562 272 L 235.601562 274 L 238.398438 274 M 240.800781 269.800781 L 240.199219 270 L 239.800781 270.601562 L 239.601562 271.601562 L 239.601562 272.199219 L 239.800781 273.199219 L 240.199219 273.800781 L 240.800781 274 L 241.199219 274 L 241.800781 273.800781 L 242.199219 273.199219 L 242.398438 272.199219 L 242.398438 271.601562 L 242.199219 270.601562 L 241.800781 270 L 241.199219 269.800781 L 240.800781 269.800781 M 240.800781 269.800781 L 240.199219 270 L 239.800781 270.601562 L 239.601562 271.601562 L 239.601562 272.199219 L 239.800781 273.199219 L 240.199219 273.800781 L 240.800781 274 L 241.199219 274 L 241.800781 273.800781 L 242.199219 273.199219 L 242.398438 272.199219 L 242.398438 271.601562 L 242.199219 270.601562 L 241.800781 270 L 241.199219 269.800781 L 240.800781 269.800781 M 244.199219 270.601562 L 244.601562 270.398438 L 245.199219 269.800781 L 245.199219 274 M 244.199219 270.601562 L 244.601562 270.398438 L 245.199219 269.800781 L 245.199219 274 M 250.199219 271.199219 L 250 271.800781 L 249.601562 272.199219 L 249 272.398438 L 248.800781 272.398438 L 248.199219 272.199219 L 247.800781 271.800781 L 247.601562 271.199219 L 247.601562 271 L 247.800781 270.398438 L 248.199219 270 L 248.800781 269.800781 L 249 269.800781 L 249.601562 270 L 250 270.398438 L 250.199219 271.199219 L 250.199219 272.199219 L 250 273.199219 L 249.601562 273.800781 L 249 274 L 248.601562 274 L 248 273.800781 L 247.800781 273.398438 "/>
</svg>
